SplineFontDB: 3.0
FontName: Alfphabet-III
FullName: Alfphabet-III
FamilyName: Alfphabet
Weight: Book
Copyright: Copyright Hammerfonts and OSP 1992-2014 (Karl Bassil, Nadim Zablit, Pierre Huyghebaert, Ludi Loiseau)
Version: 001.001
ItalicAngle: 0
UnderlinePosition: 0
UnderlineWidth: 0
Ascent: 1638
Descent: 410
InvalidEm: 0
sfntRevision: 0x00010041
LayerCount: 2
Layer: 0 1 "Arri+AOgA-re" 1
Layer: 1 1 "Avant" 0
XUID: [1021 962 1798745627 13095575]
StyleMap: 0x0040
FSType: 4
OS2Version: 3
OS2_WeightWidthSlopeOnly: 0
OS2_UseTypoMetrics: 0
CreationTime: 1232070204
ModificationTime: 1497536099
PfmFamily: 17
TTFWeight: 400
TTFWidth: 3
LineGap: 0
VLineGap: 0
Panose: 2 0 5 6 2 0 0 2 0 4
OS2TypoAscent: 1638
OS2TypoAOffset: 0
OS2TypoDescent: -410
OS2TypoDOffset: 0
OS2TypoLinegap: 0
OS2WinAscent: 1972
OS2WinAOffset: 0
OS2WinDescent: 499
OS2WinDOffset: 0
HheadAscent: 1972
HheadAOffset: 0
HheadDescent: -499
HheadDOffset: 0
OS2SubXSize: 1434
OS2SubYSize: 1331
OS2SubXOff: 0
OS2SubYOff: 287
OS2SupXSize: 1434
OS2SupYSize: 1331
OS2SupXOff: 0
OS2SupYOff: 977
OS2StrikeYSize: 102
OS2StrikeYPos: 512
OS2CapHeight: 1458
OS2XHeight: 1210
OS2Vendor: 'pyrs'
OS2CodePages: 00000001.00000000
OS2UnicodeRanges: 00000001.00000000.00000000.00000000
MarkAttachClasses: 1
DEI: 91125
TtTable: prep
PUSHW_1
 511
SCANCTRL
PUSHB_1
 1
SCANTYPE
SVTCA[y-axis]
MPPEM
PUSHB_1
 8
LT
IF
PUSHB_2
 1
 1
INSTCTRL
EIF
PUSHB_2
 70
 6
CALL
IF
POP
PUSHB_1
 16
EIF
MPPEM
PUSHB_1
 20
GT
IF
POP
PUSHB_1
 128
EIF
SCVTCI
PUSHB_1
 6
CALL
NOT
IF
SVTCA[y-axis]
PUSHB_1
 3
DUP
RCVT
PUSHB_1
 3
CALL
WCVTP
PUSHB_1
 4
DUP
RCVT
PUSHB_3
 3
 13
 2
CALL
PUSHB_1
 3
CALL
WCVTP
PUSHB_1
 5
DUP
RCVT
PUSHB_3
 4
 17
 2
CALL
PUSHB_1
 3
CALL
WCVTP
PUSHB_1
 6
DUP
RCVT
PUSHB_3
 5
 67
 2
CALL
PUSHB_1
 3
CALL
WCVTP
PUSHB_1
 7
DUP
RCVT
PUSHW_3
 6
 1085
 2
CALL
PUSHB_1
 3
CALL
WCVTP
PUSHB_1
 8
DUP
RCVT
PUSHB_3
 7
 55
 2
CALL
PUSHB_1
 3
CALL
WCVTP
PUSHB_1
 9
DUP
RCVT
PUSHW_3
 8
 1128
 2
CALL
PUSHB_1
 3
CALL
WCVTP
PUSHB_1
 10
DUP
RCVT
PUSHW_3
 9
 401
 2
CALL

StartChar: .notdef
Encoding: 65536 -1 0
Width: 748
Flags: W
LayerCount: 2
Fore
SplineSet
68 0 m 1,0,-1
 68 1365 l 1,1,-1
 612 1365 l 1,2,-1
 612 0 l 1,3,-1
 68 0 l 1,0,-1
136 68 m 1,4,-1
 544 68 l 1,5,-1
 544 1297 l 1,6,-1
 136 1297 l 1,7,-1
 136 68 l 1,4,-1
EndSplineSet
EndChar

StartChar: exclam
Encoding: 33 33 4
Width: 491
GlyphClass: 2
Flags: W
LayerCount: 2
Fore
SplineSet
141 1458 m 1,0,-1
 350 1458 l 1,1,-1
 272 373 l 1,2,-1
 219 373 l 1,3,-1
 141 1458 l 1,0,-1
166 0 m 1,4,-1
 166 164 l 1,5,-1
 326 164 l 1,6,-1
 326 0 l 1,7,-1
 166 0 l 1,4,-1
EndSplineSet
EndChar

StartChar: quotedbl
Encoding: 34 34 5
Width: 569
GlyphClass: 2
Flags: W
LayerCount: 2
Fore
SplineSet
92 1098 m 1,0,-1
 92 1458 l 1,1,-1
 205 1458 l 1,2,-1
 205 1098 l 1,3,-1
 92 1098 l 1,0,-1
362 1098 m 1,4,-1
 362 1458 l 1,5,-1
 477 1458 l 1,6,-1
 477 1098 l 1,7,-1
 362 1098 l 1,4,-1
EndSplineSet
EndChar

StartChar: numbersign
Encoding: 35 35 6
Width: 761
GlyphClass: 2
Flags: W
LayerCount: 2
Fore
SplineSet
37 457 m 1,0,-1
 37 530 l 1,1,-1
 156 530 l 1,2,-1
 207 928 l 1,3,-1
 100 928 l 1,4,-1
 100 1001 l 1,5,-1
 217 1001 l 1,6,-1
 276 1458 l 1,7,-1
 365 1458 l 1,8,-1
 305 1001 l 1,9,-1
 528 1001 l 1,10,-1
 588 1458 l 1,11,-1
 676 1458 l 1,12,-1
 616 1001 l 1,13,-1
 725 1001 l 1,14,-1
 725 928 l 1,15,-1
 606 928 l 1,16,-1
 555 530 l 1,17,-1
 662 530 l 1,18,-1
 662 457 l 1,19,-1
 545 457 l 1,20,-1
 485 0 l 1,21,-1
 397 0 l 1,22,-1
 457 457 l 1,23,-1
 233 457 l 1,24,-1
 174 0 l 1,25,-1
 86 0 l 1,26,-1
 145 457 l 1,27,-1
 37 457 l 1,0,-1
244 530 m 1,28,-1
 467 530 l 1,29,-1
 518 928 l 1,30,-1
 295 928 l 1,31,-1
 244 530 l 1,28,-1
EndSplineSet
EndChar

StartChar: dollar
Encoding: 36 36 7
Width: 761
GlyphClass: 2
Flags: W
LayerCount: 2
Fore
SplineSet
47 317 m 2,0,-1
 47 377 l 1,1,-1
 205 377 l 1,2,-1
 205 328 l 2,3,4
 205 273 205 273 237 221 c 128,-1,5
 269 169 269 169 356 147 c 1,6,-1
 356 684 l 1,7,-1
 270 719 l 2,8,9
 144 769 144 769 100 859 c 0,10,11
 57 946 57 946 57 1081 c 0,12,13
 57 1234 57 1234 129 1341 c 0,14,15
 201 1447 201 1447 354 1468 c 1,16,-1
 354 1624 l 1,17,-1
 408 1624 l 1,18,-1
 408 1468 l 1,19,20
 483 1457 483 1457 539 1428 c 0,21,22
 599 1397 599 1397 635 1356 c 0,23,24
 673 1314 673 1314 694 1261 c 256,25,26
 715 1208 715 1208 715 1153 c 2,27,-1
 715 1073 l 1,28,-1
 557 1073 l 1,29,-1
 557 1096 l 2,30,31
 557 1165 557 1165 527 1225 c 128,-1,32
 497 1285 497 1285 408 1313 c 1,33,-1
 408 836 l 1,34,-1
 510 795 l 2,35,36
 573 768 573 768 613 734 c 0,37,38
 654 699 654 699 676 654 c 0,39,40
 700 605 700 605 707 548 c 0,41,42
 715 484 715 484 715 408 c 0,43,44
 715 324 715 324 699 247 c 0,45,46
 684 174 684 174 648 120 c 128,-1,47
 612 66 612 66 554 32 c 256,48,49
 496 -2 496 -2 410 -10 c 1,50,-1
 410 -184 l 1,51,-1
 356 -184 l 1,52,-1
 356 -10 l 1,53,54
 288 -3 288 -3 228 27 c 0,55,56
 170 56 170 56 131 98 c 0,57,58
 89 143 89 143 69 198 c 0,59,60
 47 258 47 258 47 317 c 2,0,-1
215 1083 m 0,61,62
 215 1041 215 1041 219 1014 c 0,63,64
 224 983 224 983 237 956 c 0,65,66
 250 930 250 930 277 906 c 0,67,68
 303 883 303 883 354 858 c 1,69,-1
 356 1315 l 1,70,71
 310 1297 310 1297 282 1271 c 0,72,73
 256 1247 256 1247 240 1214 c 0,74,75
 224 1182 224 1182 220 1150 c 0,76,77
 215 1112 215 1112 215 1083 c 0,61,62
408 147 m 1,78,79
 462 159 462 159 492 185 c 0,80,81
 522 210 522 210 537 245 c 0,82,83
 551 277 551 277 554 319 c 0,84,85
 557 360 557 360 557 406 c 0,86,87
 557 457 557 457 552 500 c 0,88,89
 548 536 548 536 531 566 c 0,90,91
 515 595 515 595 486 615 c 0,92,93
 451 639 451 639 408 659 c 1,94,-1
 408 147 l 1,78,79
EndSplineSet
EndChar

StartChar: percent
Encoding: 37 37 8
Width: 720
GlyphClass: 2
Flags: W
LayerCount: 2
Fore
SplineSet
43 1186 m 2,0,-1
 43 1323 l 2,1,2
 43 1391 43 1391 83 1431 c 0,3,4
 122 1470 122 1470 193 1470 c 0,5,6
 263 1470 263 1470 302 1431 c 0,7,8
 342 1391 342 1391 342 1323 c 2,9,-1
 342 1186 l 2,10,11
 342 1126 342 1126 303 1089 c 0,12,13
 263 1051 263 1051 193 1051 c 0,14,15
 122 1051 122 1051 82 1089 c 0,16,17
 43 1126 43 1126 43 1186 c 2,0,-1
78 0 m 1,18,-1
 561 1458 l 1,19,-1
 643 1458 l 1,20,-1
 160 0 l 1,21,-1
 78 0 l 1,18,-1
115 1206 m 2,22,23
 115 1172 115 1172 138 1149 c 0,24,25
 163 1124 163 1124 193 1124 c 128,-1,26
 223 1124 223 1124 246 1149 c 0,27,28
 268 1172 268 1172 268 1206 c 2,29,-1
 270 1315 l 2,30,31
 270 1349 270 1349 247 1372 c 0,32,33
 222 1397 222 1397 193 1397 c 0,34,35
 163 1397 163 1397 138 1372 c 0,36,37
 115 1349 115 1349 115 1315 c 2,38,-1
 115 1206 l 2,22,23
379 123 m 2,39,-1
 379 260 l 2,40,41
 379 330 379 330 419 369 c 0,42,43
 460 408 460 408 528 408 c 0,44,45
 598 408 598 408 638 369 c 128,-1,46
 678 330 678 330 678 260 c 2,47,-1
 678 123 l 2,48,49
 678 63 678 63 639 26 c 0,50,51
 599 -12 599 -12 528 -12 c 0,52,53
 458 -12 458 -12 418 26 c 0,54,55
 379 64 379 64 379 123 c 2,39,-1
451 143 m 2,56,57
 451 109 451 109 474 86 c 0,58,59
 499 61 499 61 528 61 c 0,60,61
 558 61 558 61 583 86 c 0,62,63
 606 109 606 109 606 143 c 2,64,-1
 606 252 l 2,65,66
 606 286 606 286 583 309 c 0,67,68
 558 334 558 334 528 334 c 0,69,70
 499 334 499 334 474 309 c 0,71,72
 451 286 451 286 451 252 c 2,73,-1
 451 143 l 2,56,57
EndSplineSet
EndChar

StartChar: ampersand
Encoding: 38 38 9
Width: 985
GlyphClass: 2
Flags: W
LayerCount: 2
Fore
SplineSet
98 313 m 0,0,1
 98 430 98 430 155 520 c 0,2,3
 216 616 216 616 309 702 c 1,4,5
 247 791 247 791 208 880 c 0,6,7
 172 962 172 962 172 1055 c 0,8,9
 172 1167 172 1167 238 1245 c 128,-1,10
 304 1323 304 1323 432 1323 c 0,11,12
 496 1323 496 1323 541 1304 c 0,13,14
 589 1284 589 1284 620 1250 c 0,15,16
 652 1215 652 1215 668 1171 c 128,-1,17
 684 1127 684 1127 684 1075 c 0,18,19
 684 976 684 976 623 884 c 0,20,21
 558 786 558 786 463 698 c 1,22,-1
 564 528 l 2,23,24
 606 456 606 456 688 332 c 1,25,-1
 807 500 l 1,26,-1
 893 436 l 1,27,-1
 743 236 l 1,28,-1
 885 0 l 1,29,-1
 737 0 l 1,30,-1
 657 131 l 1,31,32
 579 52 579 52 517 20 c 0,33,34
 454 -12 454 -12 375 -12 c 0,35,36
 317 -12 317 -12 269 10 c 0,37,38
 218 33 218 33 181 76 c 0,39,40
 143 120 143 120 121 179 c 0,41,42
 98 240 98 240 98 313 c 0,0,1
231 324 m 0,43,44
 231 283 231 283 245 241 c 0,45,46
 259 200 259 200 282 171 c 0,47,48
 307 140 307 140 339 123 c 0,49,50
 375 104 375 104 414 104 c 0,51,52
 472 104 472 104 519 141 c 0,53,54
 569 180 569 180 600 221 c 1,55,-1
 373 598 l 1,56,57
 307 529 307 529 269 465 c 128,-1,58
 231 401 231 401 231 324 c 0,43,44
305 1051 m 0,59,60
 305 995 305 995 332 932 c 0,61,62
 358 872 358 872 406 791 c 1,63,64
 460 846 460 846 510 913 c 0,65,66
 558 979 558 979 563 1071 c 0,67,68
 563 1095 563 1095 554 1119 c 0,69,70
 546 1141 546 1141 528 1162 c 128,-1,71
 510 1183 510 1183 488 1194 c 0,72,73
 464 1206 464 1206 436 1206 c 0,74,75
 373 1206 373 1206 339 1157 c 128,-1,76
 305 1108 305 1108 305 1051 c 0,59,60
EndSplineSet
EndChar

StartChar: quotesingle
Encoding: 39 39 10
Width: 380
GlyphClass: 2
Flags: W
LayerCount: 2
Fore
SplineSet
133 1098 m 1,0,-1
 133 1458 l 1,1,-1
 248 1458 l 1,2,-1
 248 1098 l 1,3,-1
 133 1098 l 1,0,-1
EndSplineSet
EndChar

StartChar: parenleft
Encoding: 40 40 11
Width: 454
GlyphClass: 2
Flags: W
LayerCount: 2
Fore
SplineSet
127 627 m 0,0,1
 127 732 127 732 142 843 c 0,2,3
 156 949 156 949 188 1063 c 0,4,5
 217 1169 217 1169 262 1272 c 0,6,7
 308 1377 308 1377 360 1458 c 1,8,-1
 383 1458 l 1,9,10
 327 1237 327 1237 306 1018 c 0,11,12
 285 794 285 794 285 567 c 0,13,14
 285 355 285 355 310 167 c 0,15,16
 334 -17 334 -17 383 -205 c 1,17,-1
 360 -205 l 1,18,19
 303 -121 303 -121 258 -12 c 0,20,21
 216 90 216 90 185 202 c 0,22,23
 157 304 157 304 141 420 c 0,24,25
 127 521 127 521 127 627 c 0,0,1
EndSplineSet
EndChar

StartChar: parenright
Encoding: 41 41 12
Width: 454
GlyphClass: 2
Flags: W
LayerCount: 2
Fore
SplineSet
72 -205 m 1,0,1
 127 9 127 9 148 236 c 0,2,3
 170 470 170 470 170 686 c 0,4,5
 170 890 170 890 144 1086 c 0,6,7
 118 1278 118 1278 72 1458 c 1,8,-1
 94 1458 l 1,9,10
 156 1360 156 1360 196 1265 c 0,11,12
 240 1162 240 1162 268 1052 c 0,13,14
 297 939 297 939 312 834 c 0,15,16
 328 719 328 719 328 627 c 0,17,18
 328 529 328 529 312 411 c 0,19,20
 297 303 297 303 266 190 c 0,21,22
 235 80 235 80 193 -18 c 0,23,24
 148 -122 148 -122 94 -205 c 1,25,-1
 72 -205 l 1,0,1
EndSplineSet
EndChar

StartChar: asterisk
Encoding: 42 42 13
Width: 757
GlyphClass: 2
Flags: W
LayerCount: 2
Fore
SplineSet
98 989 m 1,0,-1
 319 1122 l 1,1,-1
 98 1257 l 1,2,-1
 131 1323 l 1,3,-1
 348 1178 l 1,4,-1
 348 1458 l 1,5,-1
 418 1458 l 1,6,-1
 418 1178 l 1,7,-1
 627 1323 l 1,8,-1
 659 1257 l 1,9,-1
 438 1122 l 1,10,-1
 659 989 l 1,11,-1
 627 922 l 1,12,-1
 410 1067 l 1,13,-1
 410 786 l 1,14,-1
 340 786 l 1,15,-1
 340 1067 l 1,16,-1
 131 922 l 1,17,-1
 98 989 l 1,0,-1
EndSplineSet
EndChar

StartChar: plus
Encoding: 43 43 14
Width: 1228
GlyphClass: 2
Flags: W
LayerCount: 2
Fore
SplineSet
121 459 m 1,0,-1
 121 578 l 1,1,-1
 557 578 l 1,2,-1
 557 1036 l 1,3,-1
 670 1036 l 1,4,-1
 670 578 l 1,5,-1
 1108 578 l 1,6,-1
 1108 459 l 1,7,-1
 672 459 l 1,8,-1
 672 0 l 1,9,-1
 559 0 l 1,10,-1
 559 459 l 1,11,-1
 121 459 l 1,0,-1
EndSplineSet
EndChar

StartChar: comma
Encoding: 44 44 15
Width: 380
GlyphClass: 2
Flags: W
LayerCount: 2
Fore
SplineSet
111 -123 m 1,0,-1
 111 209 l 1,1,-1
 270 209 l 1,2,-1
 270 8 l 1,3,-1
 111 -123 l 1,0,-1
EndSplineSet
EndChar

StartChar: hyphen
Encoding: 45 45 16
Width: 827
GlyphClass: 2
Flags: W
LayerCount: 2
Fore
SplineSet
96 559 m 1,0,-1
 96 725 l 1,1,-1
 729 725 l 1,2,-1
 729 559 l 1,3,-1
 96 559 l 1,0,-1
EndSplineSet
EndChar

StartChar: period
Encoding: 46 46 17
Width: 360
GlyphClass: 2
Flags: W
LayerCount: 2
Fore
SplineSet
98 0 m 1,0,-1
 98 166 l 1,1,-1
 262 166 l 1,2,-1
 262 0 l 1,3,-1
 98 0 l 1,0,-1
EndSplineSet
EndChar

StartChar: slash
Encoding: 47 47 18
Width: 454
GlyphClass: 2
Flags: W
LayerCount: 2
Fore
SplineSet
41 -12 m 1,0,-1
 301 1470 l 1,1,-1
 414 1470 l 1,2,-1
 154 -12 l 1,3,-1
 41 -12 l 1,0,-1
EndSplineSet
EndChar

StartChar: zero
Encoding: 48 48 19
Width: 827
GlyphClass: 2
Flags: W
LayerCount: 2
Fore
SplineSet
96 287 m 2,0,-1
 96 1171 l 2,1,2
 96 1235 96 1235 122 1295 c 128,-1,3
 148 1355 148 1355 190 1397 c 128,-1,4
 232 1439 232 1439 291 1464 c 128,-1,5
 350 1489 350 1489 414 1489 c 128,-1,6
 478 1489 478 1489 537 1464 c 0,7,8
 594 1440 594 1440 637 1397 c 0,9,10
 681 1353 681 1353 705 1295 c 0,11,12
 729 1236 729 1236 729 1171 c 2,13,-1
 729 287 l 2,14,15
 729 221 729 221 705 164 c 128,-1,16
 681 107 681 107 637 63 c 0,17,18
 594 20 594 20 537 -4 c 0,19,20
 478 -29 478 -29 414 -29 c 128,-1,21
 350 -29 350 -29 291 -4 c 128,-1,22
 232 21 232 21 190 63 c 0,23,24
 149 104 149 104 122 164 c 0,25,26
 96 222 96 222 96 287 c 2,0,-1
262 287 m 2,27,28
 262 224 262 224 306 180 c 0,29,30
 349 137 349 137 414 137 c 0,31,32
 476 137 476 137 519 180 c 0,33,34
 563 224 563 224 563 287 c 2,35,-1
 563 1171 l 2,36,37
 563 1235 563 1235 519 1279 c 128,-1,38
 475 1323 475 1323 414 1323 c 0,39,40
 350 1323 350 1323 306 1279 c 128,-1,41
 262 1235 262 1235 262 1171 c 2,42,-1
 262 287 l 2,27,28
EndSplineSet
EndChar

StartChar: one
Encoding: 49 49 20
Width: 466
GlyphClass: 2
Flags: W
LayerCount: 2
Fore
SplineSet
98 1118 m 1,0,-1
 98 1352 l 1,1,-1
 203 1458 l 1,2,-1
 369 1458 l 1,3,-1
 369 0 l 1,4,-1
 203 0 l 1,5,-1
 203 1225 l 1,6,-1
 98 1118 l 1,0,-1
EndSplineSet
EndChar

StartChar: two
Encoding: 50 50 21
Width: 827
GlyphClass: 2
Flags: W
LayerCount: 2
Fore
SplineSet
96 0 m 1,0,-1
 96 166 l 1,1,-1
 549 1106 l 2,2,3
 563 1131 563 1131 563 1171 c 0,4,5
 563 1235 563 1235 519 1279 c 128,-1,6
 475 1323 475 1323 414 1323 c 0,7,8
 350 1323 350 1323 306 1279 c 128,-1,9
 262 1235 262 1235 262 1171 c 0,10,11
 262 1131 262 1131 283 1098 c 1,12,-1
 139 1014 l 1,13,14
 122 1042 122 1042 108 1089 c 0,15,16
 96 1130 96 1130 96 1171 c 0,17,18
 96 1235 96 1235 122 1295 c 128,-1,19
 148 1355 148 1355 190 1397 c 128,-1,20
 232 1439 232 1439 291 1464 c 128,-1,21
 350 1489 350 1489 414 1489 c 128,-1,22
 478 1489 478 1489 537 1464 c 0,23,24
 594 1440 594 1440 637 1397 c 0,25,26
 681 1353 681 1353 705 1295 c 0,27,28
 729 1236 729 1236 729 1171 c 0,29,30
 729 1100 729 1100 698 1036 c 2,31,-1
 281 166 l 1,32,-1
 729 166 l 1,33,-1
 729 0 l 1,34,-1
 96 0 l 1,0,-1
EndSplineSet
EndChar

StartChar: three
Encoding: 51 51 22
Width: 827
GlyphClass: 2
Flags: W
LayerCount: 2
Fore
SplineSet
98 135 m 1,0,-1
 240 221 l 1,1,2
 263 182 263 182 302 160 c 0,3,4
 343 137 343 137 389 137 c 0,5,6
 461 137 461 137 512 188 c 128,-1,7
 563 239 563 239 563 311 c 2,8,-1
 563 616 l 2,9,10
 563 670 563 670 537 710 c 0,11,12
 511 751 511 751 467 772 c 2,13,-1
 236 881 l 1,14,-1
 526 1292 l 1,15,-1
 195 1292 l 1,16,-1
 195 1458 l 1,17,-1
 729 1458 l 1,18,-1
 729 1292 l 1,19,-1
 481 944 l 1,20,21
 590 909 590 909 659 822 c 0,22,23
 729 734 729 734 729 616 c 2,24,-1
 729 311 l 2,25,26
 729 240 729 240 702 178 c 128,-1,27
 675 116 675 116 630 71 c 0,28,29
 584 25 584 25 521 -2 c 128,-1,30
 458 -29 458 -29 389 -29 c 0,31,32
 296 -29 296 -29 220 16 c 0,33,34
 143 61 143 61 98 135 c 1,0,-1
EndSplineSet
EndChar

StartChar: four
Encoding: 52 52 23
Width: 827
GlyphClass: 2
Flags: W
LayerCount: 2
Fore
SplineSet
98 297 m 1,0,-1
 98 463 l 1,1,-1
 485 1458 l 1,2,-1
 651 1458 l 1,3,-1
 651 463 l 1,4,-1
 729 463 l 1,5,-1
 729 297 l 1,6,-1
 651 297 l 1,7,-1
 651 0 l 1,8,-1
 485 0 l 1,9,-1
 485 297 l 1,10,-1
 98 297 l 1,0,-1
274 463 m 1,11,-1
 485 463 l 1,12,-1
 485 1004 l 1,13,-1
 274 463 l 1,11,-1
EndSplineSet
EndChar

StartChar: five
Encoding: 53 53 24
Width: 827
GlyphClass: 2
Flags: W
LayerCount: 2
Fore
SplineSet
96 137 m 1,0,-1
 240 221 l 1,1,2
 263 182 263 182 302 160 c 0,3,4
 343 137 343 137 389 137 c 0,5,6
 461 137 461 137 512 188 c 128,-1,7
 563 239 563 239 563 311 c 2,8,-1
 563 686 l 2,9,10
 563 758 563 758 512 809 c 128,-1,11
 461 860 461 860 389 860 c 0,12,13
 305 860 305 860 254 799 c 1,14,-1
 96 928 l 1,15,-1
 96 1458 l 1,16,-1
 633 1458 l 1,17,-1
 633 1292 l 1,18,-1
 262 1292 l 1,19,-1
 262 1001 l 1,20,21
 321 1026 321 1026 389 1026 c 0,22,23
 458 1026 458 1026 521 999 c 0,24,25
 586 971 586 971 630 927 c 128,-1,26
 674 883 674 883 702 818 c 0,27,28
 729 755 729 755 729 686 c 2,29,-1
 729 311 l 2,30,31
 729 240 729 240 702 178 c 128,-1,32
 675 116 675 116 630 71 c 0,33,34
 584 25 584 25 521 -2 c 128,-1,35
 458 -29 458 -29 389 -29 c 0,36,37
 294 -29 294 -29 218 16 c 0,38,39
 140 62 140 62 96 137 c 1,0,-1
EndSplineSet
EndChar

StartChar: six
Encoding: 54 54 25
Width: 827
GlyphClass: 2
Flags: W
LayerCount: 2
Fore
SplineSet
96 287 m 2,0,-1
 96 1171 l 2,1,2
 96 1235 96 1235 122 1295 c 128,-1,3
 148 1355 148 1355 190 1397 c 128,-1,4
 232 1439 232 1439 291 1464 c 128,-1,5
 350 1489 350 1489 414 1489 c 128,-1,6
 478 1489 478 1489 537 1464 c 0,7,8
 594 1440 594 1440 637 1397 c 0,9,10
 681 1353 681 1353 705 1295 c 0,11,12
 729 1236 729 1236 729 1171 c 1,13,-1
 563 1171 l 1,14,15
 563 1235 563 1235 519 1279 c 128,-1,16
 475 1323 475 1323 414 1323 c 0,17,18
 350 1323 350 1323 306 1279 c 128,-1,19
 262 1235 262 1235 262 1171 c 2,20,-1
 262 862 l 1,21,22
 295 878 295 878 335 889 c 0,23,24
 371 899 371 899 414 899 c 0,25,26
 478 899 478 899 537 874 c 0,27,28
 594 850 594 850 637 807 c 0,29,30
 682 762 682 762 705 707 c 0,31,32
 729 650 729 650 729 584 c 2,33,-1
 729 287 l 2,34,35
 729 221 729 221 705 164 c 128,-1,36
 681 107 681 107 637 63 c 0,37,38
 594 20 594 20 537 -4 c 0,39,40
 478 -29 478 -29 414 -29 c 128,-1,41
 350 -29 350 -29 291 -4 c 128,-1,42
 232 21 232 21 190 63 c 0,43,44
 149 104 149 104 122 164 c 0,45,46
 96 222 96 222 96 287 c 2,0,-1
262 287 m 2,47,48
 262 224 262 224 306 180 c 0,49,50
 349 137 349 137 414 137 c 0,51,52
 476 137 476 137 519 180 c 0,53,54
 563 224 563 224 563 287 c 2,55,-1
 563 584 l 2,56,57
 563 646 563 646 519 690 c 0,58,59
 476 733 476 733 414 733 c 0,60,61
 349 733 349 733 306 690 c 0,62,63
 262 646 262 646 262 584 c 2,64,-1
 262 287 l 2,47,48
EndSplineSet
EndChar

StartChar: seven
Encoding: 55 55 26
Width: 827
GlyphClass: 2
Flags: W
LayerCount: 2
Fore
SplineSet
96 0 m 1,0,-1
 555 1292 l 1,1,-1
 96 1292 l 1,2,-1
 96 1458 l 1,3,-1
 729 1458 l 1,4,-1
 729 1292 l 1,5,-1
 272 0 l 1,6,-1
 96 0 l 1,0,-1
EndSplineSet
EndChar

StartChar: eight
Encoding: 56 56 27
Width: 827
GlyphClass: 2
Flags: W
LayerCount: 2
Fore
SplineSet
96 287 m 2,0,-1
 96 584 l 2,1,2
 96 660 96 660 129 723 c 0,3,4
 161 784 161 784 215 829 c 1,5,6
 160 896 160 896 160 987 c 2,7,-1
 160 1235 l 2,8,9
 160 1289 160 1289 180 1333 c 0,10,11
 202 1382 202 1382 234 1414 c 0,12,13
 267 1447 267 1447 314 1468 c 0,14,15
 360 1489 360 1489 414 1489 c 0,16,17
 464 1489 464 1489 511 1468 c 0,18,19
 560 1446 560 1446 592 1414 c 0,20,21
 626 1380 626 1380 646 1333 c 0,22,23
 666 1285 666 1285 666 1235 c 2,24,-1
 666 987 l 2,25,26
 666 897 666 897 610 829 c 1,27,28
 666 785 666 785 697 723 c 0,29,30
 729 659 729 659 729 584 c 2,31,-1
 729 287 l 2,32,33
 729 221 729 221 705 164 c 128,-1,34
 681 107 681 107 637 63 c 0,35,36
 594 20 594 20 537 -4 c 0,37,38
 478 -29 478 -29 414 -29 c 128,-1,39
 350 -29 350 -29 291 -4 c 128,-1,40
 232 21 232 21 190 63 c 0,41,42
 149 104 149 104 122 164 c 0,43,44
 96 222 96 222 96 287 c 2,0,-1
262 287 m 2,45,46
 262 224 262 224 306 180 c 0,47,48
 349 137 349 137 414 137 c 0,49,50
 476 137 476 137 519 180 c 0,51,52
 563 224 563 224 563 287 c 2,53,-1
 563 584 l 2,54,55
 563 646 563 646 519 690 c 0,56,57
 476 733 476 733 414 733 c 0,58,59
 349 733 349 733 306 690 c 0,60,61
 262 646 262 646 262 584 c 2,62,-1
 262 287 l 2,45,46
326 987 m 2,63,64
 326 950 326 950 351 925 c 0,65,66
 377 899 377 899 414 899 c 0,67,68
 448 899 448 899 474 925 c 128,-1,69
 500 951 500 951 500 987 c 2,70,-1
 500 1235 l 2,71,72
 500 1271 500 1271 474 1297 c 128,-1,73
 448 1323 448 1323 414 1323 c 0,74,75
 377 1323 377 1323 351 1297 c 0,76,77
 326 1272 326 1272 326 1235 c 2,78,-1
 326 987 l 2,63,64
EndSplineSet
EndChar

StartChar: nine
Encoding: 57 57 28
Width: 827
GlyphClass: 2
Flags: W
LayerCount: 2
Fore
SplineSet
96 287 m 1,0,-1
 262 287 l 1,1,2
 262 224 262 224 306 180 c 0,3,4
 349 137 349 137 414 137 c 0,5,6
 476 137 476 137 519 180 c 0,7,8
 563 224 563 224 563 287 c 2,9,-1
 563 598 l 1,10,11
 497 559 497 559 414 559 c 0,12,13
 350 559 350 559 291 584 c 128,-1,14
 232 609 232 609 190 651 c 0,15,16
 149 692 149 692 122 752 c 0,17,18
 96 810 96 810 96 874 c 2,19,-1
 96 1171 l 2,20,21
 96 1235 96 1235 122 1295 c 128,-1,22
 148 1355 148 1355 190 1397 c 128,-1,23
 232 1439 232 1439 291 1464 c 128,-1,24
 350 1489 350 1489 414 1489 c 128,-1,25
 478 1489 478 1489 537 1464 c 0,26,27
 594 1440 594 1440 637 1397 c 0,28,29
 681 1353 681 1353 705 1295 c 0,30,31
 729 1236 729 1236 729 1171 c 2,32,-1
 729 874 l 1,33,-1
 729 287 l 2,34,35
 729 221 729 221 705 164 c 128,-1,36
 681 107 681 107 637 63 c 0,37,38
 594 20 594 20 537 -4 c 0,39,40
 478 -29 478 -29 414 -29 c 128,-1,41
 350 -29 350 -29 291 -4 c 128,-1,42
 232 21 232 21 190 63 c 0,43,44
 149 104 149 104 122 164 c 0,45,46
 96 222 96 222 96 287 c 1,0,-1
262 874 m 2,47,48
 262 813 262 813 306 769 c 128,-1,49
 350 725 350 725 414 725 c 0,50,51
 475 725 475 725 519 769 c 128,-1,52
 563 813 563 813 563 874 c 2,53,-1
 563 1171 l 2,54,55
 563 1235 563 1235 519 1279 c 128,-1,56
 475 1323 475 1323 414 1323 c 0,57,58
 350 1323 350 1323 306 1279 c 128,-1,59
 262 1235 262 1235 262 1171 c 2,60,-1
 262 874 l 2,47,48
EndSplineSet
EndChar

StartChar: colon
Encoding: 58 58 29
Width: 360
GlyphClass: 2
Flags: W
LayerCount: 2
Fore
SplineSet
98 0 m 1,0,-1
 98 166 l 1,1,-1
 262 166 l 1,2,-1
 262 0 l 1,3,-1
 98 0 l 1,0,-1
98 393 m 1,4,-1
 98 559 l 1,5,-1
 262 559 l 1,6,-1
 262 393 l 1,7,-1
 98 393 l 1,4,-1
EndSplineSet
EndChar

StartChar: semicolon
Encoding: 59 59 30
Width: 380
GlyphClass: 2
Flags: W
LayerCount: 2
Fore
SplineSet
111 -125 m 1,0,-1
 111 178 l 1,1,-1
 270 178 l 1,2,-1
 270 -4 l 1,3,-1
 111 -125 l 1,0,-1
111 506 m 1,4,-1
 111 674 l 1,5,-1
 270 674 l 1,6,-1
 270 506 l 1,7,-1
 111 506 l 1,4,-1
EndSplineSet
EndChar

StartChar: less
Encoding: 60 60 31
Width: 1228
GlyphClass: 2
Flags: W
LayerCount: 2
Fore
SplineSet
121 471 m 1,0,-1
 121 565 l 1,1,-1
 1108 1038 l 1,2,-1
 1108 924 l 1,3,-1
 258 518 l 1,4,-1
 1108 113 l 1,5,-1
 1108 -2 l 1,6,-1
 121 471 l 1,0,-1
EndSplineSet
EndChar

StartChar: equal
Encoding: 61 61 32
Width: 1228
GlyphClass: 2
Flags: W
LayerCount: 2
Fore
SplineSet
121 231 m 1,0,-1
 121 356 l 1,1,-1
 1108 356 l 1,2,-1
 1108 231 l 1,3,-1
 121 231 l 1,0,-1
121 680 m 1,4,-1
 121 805 l 1,5,-1
 1108 805 l 1,6,-1
 1108 680 l 1,7,-1
 121 680 l 1,4,-1
EndSplineSet
EndChar

StartChar: greater
Encoding: 62 62 33
Width: 1228
GlyphClass: 2
Flags: W
LayerCount: 2
Fore
SplineSet
121 -2 m 1,0,-1
 121 113 l 1,1,-1
 971 518 l 1,2,-1
 121 924 l 1,3,-1
 121 1038 l 1,4,-1
 1108 565 l 1,5,-1
 1108 471 l 1,6,-1
 121 -2 l 1,0,-1
EndSplineSet
EndChar

StartChar: question
Encoding: 63 63 34
Width: 757
GlyphClass: 2
Flags: W
LayerCount: 2
Fore
SplineSet
90 1075 m 1,0,-1
 90 1174 l 2,1,2
 90 1234 90 1234 113 1289 c 128,-1,3
 136 1344 136 1344 175 1383 c 0,4,5
 215 1423 215 1423 268 1447 c 0,6,7
 318 1470 318 1470 381 1470 c 0,8,9
 509 1470 509 1470 589 1380 c 0,10,11
 668 1291 668 1291 668 1116 c 0,12,13
 668 1076 668 1076 666 1026 c 0,14,15
 665 1009 665 1009 660 964 c 0,16,17
 657 939 657 939 651 921 c 0,18,19
 647 909 647 909 637 889 c 2,20,-1
 496 639 l 2,21,22
 485 618 485 618 470 582 c 0,23,24
 459 554 459 554 459 516 c 2,25,-1
 459 373 l 1,26,-1
 299 373 l 1,27,-1
 299 545 l 2,28,29
 297 590 297 590 311 624 c 0,30,31
 327 665 327 665 348 702 c 2,32,-1
 479 924 l 2,33,34
 498 956 498 956 504 990 c 0,35,36
 510 1026 510 1026 510 1059 c 2,37,-1
 510 1171 l 2,38,39
 510 1226 510 1226 472 1267 c 0,40,41
 435 1307 435 1307 381 1307 c 0,42,43
 337 1307 337 1307 293 1272 c 0,44,45
 250 1238 250 1238 250 1171 c 2,46,-1
 250 1075 l 1,47,-1
 90 1075 l 1,0,-1
299 0 m 1,48,-1
 299 164 l 1,49,-1
 457 164 l 1,50,-1
 457 0 l 1,51,-1
 299 0 l 1,48,-1
EndSplineSet
EndChar

StartChar: at
Encoding: 64 64 35
Width: 1638
GlyphClass: 2
Flags: W
LayerCount: 2
Fore
SplineSet
135 733 m 0,0,1
 135 888 135 888 195 1021 c 0,2,3
 256 1156 256 1156 356 1255 c 0,4,5
 459 1356 459 1356 595 1413 c 0,6,7
 732 1470 732 1470 885 1470 c 0,8,9
 1026 1470 1026 1470 1150 1425 c 0,10,11
 1275 1380 1275 1380 1367 1298 c 0,12,13
 1460 1215 1460 1215 1514 1105 c 0,14,15
 1569 992 1569 992 1569 862 c 0,16,17
 1569 737 1569 737 1522 631 c 0,18,19
 1477 530 1477 530 1407 452 c 0,20,21
 1339 376 1339 376 1263 336 c 0,22,23
 1186 295 1186 295 1126 295 c 128,-1,24
 1066 295 1066 295 1032 326 c 0,25,26
 1000 355 1000 355 989 428 c 1,27,-1
 952 428 l 1,28,29
 903 374 903 374 850 334 c 0,30,31
 799 295 799 295 713 295 c 0,32,33
 650 295 650 295 603 318 c 0,34,35
 551 343 551 343 518 382 c 0,36,37
 483 423 483 423 464 476 c 0,38,39
 444 531 444 531 444 592 c 0,40,41
 444 694 444 694 478 793 c 0,42,43
 513 894 513 894 572 971 c 0,44,45
 630 1046 630 1046 716 1098 c 0,46,47
 798 1147 798 1147 899 1147 c 0,48,49
 965 1147 965 1147 1024 1110 c 128,-1,50
 1083 1073 1083 1073 1116 981 c 1,51,-1
 1157 981 l 1,52,-1
 1198 1110 l 1,53,-1
 1274 1110 l 1,54,-1
 1106 561 l 2,55,56
 1097 536 1097 536 1090 504 c 0,57,58
 1083 471 1083 471 1083 457 c 0,59,60
 1083 427 1083 427 1099 398 c 0,61,62
 1114 371 1114 371 1157 371 c 0,63,64
 1215 371 1215 371 1270 417 c 0,65,66
 1324 462 1324 462 1368 535 c 128,-1,67
 1412 608 1412 608 1437 690 c 128,-1,68
 1462 772 1462 772 1462 852 c 0,69,70
 1462 969 1462 969 1415 1068 c 0,71,72
 1369 1165 1369 1165 1288 1235 c 0,73,74
 1208 1304 1208 1304 1104 1343 c 0,75,76
 999 1382 999 1382 887 1382 c 0,77,78
 752 1382 752 1382 635 1328 c 0,79,80
 520 1275 520 1275 430 1182 c 0,81,82
 342 1091 342 1091 292 971 c 128,-1,83
 242 851 242 851 242 723 c 0,84,85
 242 590 242 590 292 470 c 0,86,87
 340 355 340 355 431 264 c 0,88,89
 519 176 519 176 639 126 c 128,-1,90
 759 76 759 76 897 76 c 0,91,92
 975 76 975 76 1046 93 c 0,93,94
 1125 112 1125 112 1188 140 c 0,95,96
 1256 170 1256 170 1312 210 c 0,97,98
 1367 249 1367 249 1407 297 c 1,99,-1
 1505 297 l 1,100,101
 1454 222 1454 222 1388 168 c 0,102,103
 1321 112 1321 112 1238 71 c 0,104,105
 1155 29 1155 29 1066 9 c 0,106,107
 974 -12 974 -12 881 -12 c 0,108,109
 723 -12 723 -12 589 44 c 0,110,111
 452 101 452 101 352 200 c 0,112,113
 254 297 254 297 194 436 c 0,114,115
 135 574 135 574 135 733 c 0,0,1
557 606 m 0,116,117
 557 506 557 506 611 451 c 0,118,119
 665 395 665 395 754 395 c 0,120,121
 822 395 822 395 880 441 c 0,122,123
 936 486 936 486 981 555 c 0,124,125
 1025 623 1025 623 1050 700 c 0,126,127
 1076 778 1076 778 1077 844 c 0,128,129
 1077 926 1077 926 1032 986 c 0,130,131
 986 1047 986 1047 899 1047 c 0,132,133
 824 1047 824 1047 762 1004 c 0,134,135
 696 959 696 959 653 895 c 0,136,137
 609 830 609 830 583 753 c 0,138,139
 557 675 557 675 557 606 c 0,116,117
EndSplineSet
EndChar

StartChar: A
Encoding: 65 65 36
Width: 913
GlyphClass: 2
Flags: W
LayerCount: 2
Fore
SplineSet
98 0 m 1,0,-1
 375 1458 l 1,1,-1
 541 1458 l 1,2,-1
 817 0 l 1,3,-1
 649 0 l 1,4,-1
 590 305 l 1,5,-1
 324 305 l 1,6,-1
 266 0 l 1,7,-1
 98 0 l 1,0,-1
354 471 m 1,8,-1
 559 471 l 1,9,-1
 457 1008 l 1,10,-1
 354 471 l 1,8,-1
EndSplineSet
EndChar

StartChar: B
Encoding: 66 66 37
Width: 827
GlyphClass: 2
Flags: W
LayerCount: 2
Fore
SplineSet
98 0 m 1,0,-1
 98 1458 l 1,1,-1
 414 1458 l 2,2,3
 466 1458 466 1458 510 1439 c 128,-1,4
 554 1420 554 1420 589 1385 c 0,5,6
 623 1351 623 1351 642 1307 c 0,7,8
 662 1261 662 1261 662 1210 c 2,9,-1
 662 983 l 2,10,11
 662 895 662 895 610 831 c 1,12,13
 664 786 664 786 696 724 c 0,14,15
 729 659 729 659 729 584 c 2,16,-1
 729 315 l 2,17,18
 729 250 729 250 705 193 c 128,-1,19
 681 136 681 136 637 92 c 0,20,21
 594 49 594 49 537 25 c 0,22,23
 478 0 478 0 414 0 c 2,24,-1
 98 0 l 1,0,-1
264 166 m 1,25,-1
 414 166 l 2,26,27
 475 166 475 166 519 210 c 128,-1,28
 563 254 563 254 563 315 c 2,29,-1
 563 584 l 2,30,31
 563 646 563 646 519 690 c 0,32,33
 476 733 476 733 414 733 c 2,34,-1
 264 733 l 1,35,-1
 264 166 l 1,25,-1
264 899 m 1,36,-1
 414 899 l 2,37,38
 447 899 447 899 472 924 c 0,39,40
 496 948 496 948 496 983 c 2,41,-1
 496 1210 l 2,42,43
 496 1245 496 1245 472 1269 c 0,44,45
 449 1292 449 1292 414 1292 c 2,46,-1
 264 1292 l 1,47,-1
 264 899 l 1,36,-1
EndSplineSet
EndChar

StartChar: C
Encoding: 67 67 38
Width: 827
GlyphClass: 2
Flags: W
LayerCount: 2
Fore
SplineSet
98 287 m 2,0,-1
 98 1171 l 2,1,2
 98 1234 98 1234 123 1295 c 0,3,4
 147 1354 147 1354 190 1397 c 0,5,6
 232 1439 232 1439 291 1464 c 128,-1,7
 350 1489 350 1489 414 1489 c 128,-1,8
 478 1489 478 1489 537 1464 c 0,9,10
 594 1440 594 1440 637 1397 c 0,11,12
 681 1353 681 1353 705 1295 c 0,13,14
 729 1236 729 1236 729 1171 c 1,15,-1
 563 1171 l 1,16,17
 563 1235 563 1235 519 1279 c 128,-1,18
 475 1323 475 1323 414 1323 c 0,19,20
 351 1323 351 1323 307 1279 c 0,21,22
 264 1236 264 1236 264 1171 c 2,23,-1
 264 287 l 2,24,25
 264 223 264 223 307 180 c 128,-1,26
 350 137 350 137 414 137 c 0,27,28
 476 137 476 137 519 180 c 0,29,30
 563 224 563 224 563 287 c 1,31,-1
 729 287 l 1,32,33
 729 221 729 221 705 164 c 128,-1,34
 681 107 681 107 637 63 c 0,35,36
 594 20 594 20 537 -4 c 0,37,38
 478 -29 478 -29 414 -29 c 128,-1,39
 350 -29 350 -29 291 -4 c 128,-1,40
 232 21 232 21 190 63 c 128,-1,41
 148 105 148 105 123 164 c 128,-1,42
 98 223 98 223 98 287 c 2,0,-1
EndSplineSet
EndChar

StartChar: D
Encoding: 68 68 39
Width: 827
GlyphClass: 2
Flags: W
LayerCount: 2
Fore
SplineSet
98 0 m 1,0,-1
 98 1458 l 1,1,-1
 414 1458 l 2,2,3
 480 1458 480 1458 537 1434 c 0,4,5
 592 1411 592 1411 637 1366 c 128,-1,6
 682 1321 682 1321 705 1266 c 0,7,8
 729 1209 729 1209 729 1143 c 2,9,-1
 729 315 l 2,10,11
 729 250 729 250 705 193 c 128,-1,12
 681 136 681 136 637 92 c 0,13,14
 594 49 594 49 537 25 c 0,15,16
 478 0 478 0 414 0 c 2,17,-1
 98 0 l 1,0,-1
264 166 m 1,18,-1
 414 166 l 2,19,20
 475 166 475 166 519 210 c 128,-1,21
 563 254 563 254 563 315 c 2,22,-1
 563 1143 l 2,23,24
 563 1205 563 1205 519 1249 c 0,25,26
 476 1292 476 1292 414 1292 c 2,27,-1
 264 1292 l 1,28,-1
 264 166 l 1,18,-1
EndSplineSet
EndChar

StartChar: E
Encoding: 69 69 40
Width: 718
GlyphClass: 2
Flags: W
LayerCount: 2
Fore
SplineSet
98 0 m 1,0,-1
 98 1458 l 1,1,-1
 623 1458 l 1,2,-1
 623 1292 l 1,3,-1
 264 1292 l 1,4,-1
 264 899 l 1,5,-1
 506 899 l 1,6,-1
 506 733 l 1,7,-1
 264 733 l 1,8,-1
 264 166 l 1,9,-1
 623 166 l 1,10,-1
 623 0 l 1,11,-1
 98 0 l 1,0,-1
EndSplineSet
EndChar

StartChar: F
Encoding: 70 70 41
Width: 718
GlyphClass: 2
Flags: W
LayerCount: 2
Fore
SplineSet
98 0 m 1,0,-1
 98 1458 l 1,1,-1
 623 1458 l 1,2,-1
 623 1292 l 1,3,-1
 264 1292 l 1,4,-1
 264 899 l 1,5,-1
 506 899 l 1,6,-1
 506 733 l 1,7,-1
 264 733 l 1,8,-1
 264 0 l 1,9,-1
 98 0 l 1,0,-1
EndSplineSet
EndChar

StartChar: G
Encoding: 71 71 42
Width: 827
GlyphClass: 2
Flags: W
LayerCount: 2
Fore
SplineSet
96 287 m 2,0,-1
 96 1171 l 2,1,2
 96 1235 96 1235 122 1295 c 128,-1,3
 148 1355 148 1355 190 1397 c 128,-1,4
 232 1439 232 1439 291 1464 c 128,-1,5
 350 1489 350 1489 414 1489 c 128,-1,6
 478 1489 478 1489 537 1464 c 0,7,8
 594 1440 594 1440 637 1397 c 0,9,10
 681 1353 681 1353 705 1295 c 0,11,12
 729 1236 729 1236 729 1171 c 1,13,-1
 563 1171 l 1,14,15
 563 1235 563 1235 519 1279 c 128,-1,16
 475 1323 475 1323 414 1323 c 0,17,18
 350 1323 350 1323 306 1279 c 128,-1,19
 262 1235 262 1235 262 1171 c 2,20,-1
 262 287 l 2,21,22
 262 224 262 224 306 180 c 0,23,24
 349 137 349 137 414 137 c 0,25,26
 476 137 476 137 519 180 c 0,27,28
 563 224 563 224 563 287 c 2,29,-1
 563 535 l 1,30,-1
 406 535 l 1,31,-1
 406 700 l 1,32,-1
 729 700 l 1,33,-1
 729 287 l 2,34,35
 729 221 729 221 705 164 c 128,-1,36
 681 107 681 107 637 63 c 0,37,38
 594 20 594 20 537 -4 c 0,39,40
 478 -29 478 -29 414 -29 c 128,-1,41
 350 -29 350 -29 291 -4 c 128,-1,42
 232 21 232 21 190 63 c 0,43,44
 149 104 149 104 122 164 c 0,45,46
 96 222 96 222 96 287 c 2,0,-1
EndSplineSet
EndChar

StartChar: H
Encoding: 72 72 43
Width: 827
GlyphClass: 2
Flags: W
LayerCount: 2
Fore
SplineSet
96 0 m 1,0,-1
 96 1458 l 1,1,-1
 262 1458 l 1,2,-1
 262 899 l 1,3,-1
 563 899 l 1,4,-1
 563 1458 l 1,5,-1
 729 1458 l 1,6,-1
 729 0 l 1,7,-1
 563 0 l 1,8,-1
 563 733 l 1,9,-1
 262 733 l 1,10,-1
 262 0 l 1,11,-1
 96 0 l 1,0,-1
EndSplineSet
EndChar

StartChar: I
Encoding: 73 73 44
Width: 360
GlyphClass: 2
Flags: W
LayerCount: 2
Fore
SplineSet
98 0 m 1,0,-1
 98 1458 l 1,1,-1
 264 1458 l 1,2,-1
 264 0 l 1,3,-1
 98 0 l 1,0,-1
EndSplineSet
EndChar

StartChar: J
Encoding: 74 74 45
Width: 827
GlyphClass: 2
Flags: W
LayerCount: 2
Fore
SplineSet
96 287 m 1,0,-1
 262 287 l 1,1,2
 262 224 262 224 306 180 c 0,3,4
 349 137 349 137 414 137 c 0,5,6
 476 137 476 137 519 180 c 0,7,8
 563 224 563 224 563 287 c 2,9,-1
 563 1458 l 1,10,-1
 729 1458 l 1,11,-1
 729 287 l 2,12,13
 729 221 729 221 705 164 c 128,-1,14
 681 107 681 107 637 63 c 0,15,16
 594 20 594 20 537 -4 c 0,17,18
 478 -29 478 -29 414 -29 c 128,-1,19
 350 -29 350 -29 291 -4 c 128,-1,20
 232 21 232 21 190 63 c 0,21,22
 149 104 149 104 122 164 c 0,23,24
 96 222 96 222 96 287 c 1,0,-1
EndSplineSet
EndChar

StartChar: K
Encoding: 75 75 46
Width: 827
GlyphClass: 2
Flags: W
LayerCount: 2
Fore
SplineSet
98 0 m 1,0,-1
 98 1458 l 1,1,-1
 264 1458 l 1,2,-1
 264 1036 l 1,3,-1
 532 1458 l 1,4,-1
 729 1458 l 1,5,-1
 418 973 l 1,6,-1
 729 0 l 1,7,-1
 555 0 l 1,8,-1
 303 793 l 1,9,-1
 264 729 l 1,10,-1
 264 0 l 1,11,-1
 98 0 l 1,0,-1
EndSplineSet
EndChar

StartChar: L
Encoding: 76 76 47
Width: 718
GlyphClass: 2
Flags: W
LayerCount: 2
Fore
SplineSet
96 0 m 1,0,-1
 96 1458 l 1,1,-1
 262 1458 l 1,2,-1
 262 166 l 1,3,-1
 623 166 l 1,4,-1
 623 0 l 1,5,-1
 96 0 l 1,0,-1
EndSplineSet
EndChar

StartChar: M
Encoding: 77 77 48
Width: 827
GlyphClass: 2
Flags: W
LayerCount: 2
Fore
SplineSet
98 0 m 1,0,-1
 98 1458 l 1,1,-1
 264 1458 l 1,2,-1
 414 1198 l 1,3,-1
 563 1458 l 1,4,-1
 729 1458 l 1,5,-1
 729 0 l 1,6,-1
 563 0 l 1,7,-1
 563 1128 l 1,8,-1
 414 866 l 1,9,-1
 264 1128 l 1,10,-1
 264 0 l 1,11,-1
 98 0 l 1,0,-1
EndSplineSet
EndChar

StartChar: N
Encoding: 78 78 49
Width: 827
GlyphClass: 2
Flags: W
LayerCount: 2
Fore
SplineSet
98 0 m 1,0,-1
 98 1458 l 1,1,-1
 264 1458 l 1,2,-1
 563 905 l 1,3,-1
 563 1458 l 1,4,-1
 729 1458 l 1,5,-1
 729 0 l 1,6,-1
 563 0 l 1,7,-1
 563 559 l 1,8,-1
 264 1112 l 1,9,-1
 264 0 l 1,10,-1
 98 0 l 1,0,-1
EndSplineSet
EndChar

StartChar: O
Encoding: 79 79 50
Width: 827
GlyphClass: 2
Flags: W
LayerCount: 2
Fore
SplineSet
96 287 m 2,0,-1
 96 1171 l 2,1,2
 96 1235 96 1235 122 1295 c 128,-1,3
 148 1355 148 1355 190 1397 c 128,-1,4
 232 1439 232 1439 291 1464 c 128,-1,5
 350 1489 350 1489 414 1489 c 128,-1,6
 478 1489 478 1489 537 1464 c 0,7,8
 594 1440 594 1440 637 1397 c 0,9,10
 681 1353 681 1353 705 1295 c 0,11,12
 729 1236 729 1236 729 1171 c 2,13,-1
 729 287 l 2,14,15
 729 221 729 221 705 164 c 128,-1,16
 681 107 681 107 637 63 c 0,17,18
 594 20 594 20 537 -4 c 0,19,20
 478 -29 478 -29 414 -29 c 128,-1,21
 350 -29 350 -29 291 -4 c 128,-1,22
 232 21 232 21 190 63 c 0,23,24
 149 104 149 104 122 164 c 0,25,26
 96 222 96 222 96 287 c 2,0,-1
262 287 m 2,27,28
 262 224 262 224 306 180 c 0,29,30
 349 137 349 137 414 137 c 0,31,32
 476 137 476 137 519 180 c 0,33,34
 563 224 563 224 563 287 c 2,35,-1
 563 1171 l 2,36,37
 563 1235 563 1235 519 1279 c 128,-1,38
 475 1323 475 1323 414 1323 c 0,39,40
 350 1323 350 1323 306 1279 c 128,-1,41
 262 1235 262 1235 262 1171 c 2,42,-1
 262 287 l 2,27,28
EndSplineSet
EndChar

StartChar: P
Encoding: 80 80 51
Width: 827
GlyphClass: 2
Flags: W
LayerCount: 2
Fore
SplineSet
98 0 m 1,0,-1
 98 1458 l 1,1,-1
 414 1458 l 2,2,3
 480 1458 480 1458 537 1434 c 0,4,5
 592 1411 592 1411 637 1366 c 128,-1,6
 682 1321 682 1321 705 1266 c 0,7,8
 729 1209 729 1209 729 1143 c 2,9,-1
 729 874 l 2,10,11
 729 809 729 809 705 752 c 128,-1,12
 681 695 681 695 637 651 c 0,13,14
 594 608 594 608 537 584 c 0,15,16
 478 559 478 559 414 559 c 2,17,-1
 264 559 l 1,18,-1
 264 0 l 1,19,-1
 98 0 l 1,0,-1
264 725 m 1,20,-1
 414 725 l 2,21,22
 475 725 475 725 519 769 c 128,-1,23
 563 813 563 813 563 874 c 2,24,-1
 563 1143 l 2,25,26
 563 1205 563 1205 519 1249 c 0,27,28
 476 1292 476 1292 414 1292 c 2,29,-1
 264 1292 l 1,30,-1
 264 725 l 1,20,-1
EndSplineSet
EndChar

StartChar: Q
Encoding: 81 81 52
Width: 827
GlyphClass: 2
Flags: W
LayerCount: 2
Fore
SplineSet
96 315 m 2,0,-1
 96 1171 l 2,1,2
 96 1235 96 1235 122 1295 c 128,-1,3
 148 1355 148 1355 190 1397 c 128,-1,4
 232 1439 232 1439 291 1464 c 128,-1,5
 350 1489 350 1489 414 1489 c 128,-1,6
 478 1489 478 1489 537 1464 c 0,7,8
 594 1440 594 1440 637 1397 c 0,9,10
 681 1353 681 1353 705 1295 c 0,11,12
 729 1236 729 1236 729 1171 c 2,13,-1
 729 315 l 2,14,15
 729 204 729 204 662 119 c 1,16,-1
 729 0 l 1,17,-1
 539 0 l 1,18,-1
 526 20 l 1,19,20
 473 0 473 0 414 0 c 0,21,22
 350 0 350 0 291 25 c 128,-1,23
 232 50 232 50 190 92 c 0,24,25
 149 133 149 133 122 193 c 0,26,27
 96 251 96 251 96 315 c 2,0,-1
262 315 m 2,28,29
 262 254 262 254 306 210 c 128,-1,30
 350 166 350 166 414 166 c 2,31,-1
 427 166 l 2,32,33
 432 166 432 166 442 168 c 1,34,-1
 356 315 l 1,35,-1
 547 315 l 1,36,-1
 561 291 l 1,37,38
 563 299 563 299 563 315 c 2,39,-1
 563 1171 l 2,40,41
 563 1235 563 1235 519 1279 c 128,-1,42
 475 1323 475 1323 414 1323 c 0,43,44
 350 1323 350 1323 306 1279 c 128,-1,45
 262 1235 262 1235 262 1171 c 2,46,-1
 262 315 l 2,28,29
EndSplineSet
EndChar

StartChar: R
Encoding: 82 82 53
Width: 827
GlyphClass: 2
Flags: W
LayerCount: 2
Fore
SplineSet
98 0 m 1,0,-1
 98 1458 l 1,1,-1
 414 1458 l 2,2,3
 480 1458 480 1458 537 1434 c 0,4,5
 592 1411 592 1411 637 1366 c 128,-1,6
 682 1321 682 1321 705 1266 c 0,7,8
 729 1209 729 1209 729 1143 c 2,9,-1
 729 874 l 2,10,11
 729 788 729 788 687 716 c 0,12,13
 644 642 644 642 573 602 c 1,14,-1
 729 0 l 1,15,-1
 559 0 l 1,16,-1
 414 559 l 1,17,-1
 264 559 l 1,18,-1
 264 0 l 1,19,-1
 98 0 l 1,0,-1
264 725 m 1,20,-1
 414 725 l 2,21,22
 475 725 475 725 519 769 c 128,-1,23
 563 813 563 813 563 874 c 2,24,-1
 563 1143 l 2,25,26
 563 1205 563 1205 519 1249 c 0,27,28
 476 1292 476 1292 414 1292 c 2,29,-1
 264 1292 l 1,30,-1
 264 725 l 1,20,-1
EndSplineSet
EndChar

StartChar: S
Encoding: 83 83 54
Width: 827
GlyphClass: 2
Flags: W
LayerCount: 2
Fore
SplineSet
98 287 m 1,0,-1
 264 287 l 1,1,2
 264 223 264 223 307 180 c 128,-1,3
 350 137 350 137 414 137 c 0,4,5
 476 137 476 137 519 180 c 0,6,7
 563 224 563 224 563 287 c 2,8,-1
 563 584 l 2,9,10
 563 646 563 646 519 690 c 0,11,12
 476 733 476 733 414 733 c 0,13,14
 360 733 360 733 314 754 c 0,15,16
 267 775 267 775 234 808 c 128,-1,17
 201 841 201 841 180 888 c 0,18,19
 160 932 160 932 160 987 c 2,20,-1
 160 1235 l 2,21,22
 160 1289 160 1289 180 1333 c 0,23,24
 202 1382 202 1382 234 1414 c 0,25,26
 267 1447 267 1447 314 1468 c 0,27,28
 360 1489 360 1489 414 1489 c 0,29,30
 464 1489 464 1489 511 1468 c 0,31,32
 560 1446 560 1446 592 1414 c 0,33,34
 626 1380 626 1380 646 1333 c 0,35,36
 666 1285 666 1285 666 1235 c 1,37,-1
 500 1235 l 1,38,39
 500 1271 500 1271 474 1297 c 128,-1,40
 448 1323 448 1323 414 1323 c 0,41,42
 377 1323 377 1323 351 1297 c 0,43,44
 326 1272 326 1272 326 1235 c 2,45,-1
 326 987 l 2,46,47
 326 950 326 950 351 925 c 0,48,49
 377 899 377 899 414 899 c 0,50,51
 478 899 478 899 537 874 c 0,52,53
 594 850 594 850 637 807 c 0,54,55
 682 762 682 762 705 707 c 0,56,57
 729 650 729 650 729 584 c 2,58,-1
 729 287 l 2,59,60
 729 221 729 221 705 164 c 128,-1,61
 681 107 681 107 637 63 c 0,62,63
 594 20 594 20 537 -4 c 0,64,65
 478 -29 478 -29 414 -29 c 128,-1,66
 350 -29 350 -29 291 -4 c 128,-1,67
 232 21 232 21 190 63 c 128,-1,68
 148 105 148 105 123 164 c 128,-1,69
 98 223 98 223 98 287 c 1,0,-1
EndSplineSet
EndChar

StartChar: T
Encoding: 84 84 55
Width: 778
GlyphClass: 2
Flags: W
LayerCount: 2
Fore
SplineSet
98 1292 m 1,0,-1
 98 1458 l 1,1,-1
 680 1458 l 1,2,-1
 680 1292 l 1,3,-1
 471 1292 l 1,4,-1
 471 0 l 1,5,-1
 305 0 l 1,6,-1
 305 1292 l 1,7,-1
 98 1292 l 1,0,-1
EndSplineSet
EndChar

StartChar: U
Encoding: 85 85 56
Width: 827
GlyphClass: 2
Flags: W
LayerCount: 2
Fore
SplineSet
98 287 m 2,0,-1
 98 1458 l 1,1,-1
 264 1458 l 1,2,-1
 264 287 l 2,3,4
 264 223 264 223 307 180 c 128,-1,5
 350 137 350 137 414 137 c 0,6,7
 476 137 476 137 519 180 c 0,8,9
 563 224 563 224 563 287 c 2,10,-1
 563 1458 l 1,11,-1
 729 1458 l 1,12,-1
 729 287 l 2,13,14
 729 221 729 221 705 164 c 128,-1,15
 681 107 681 107 637 63 c 0,16,17
 594 20 594 20 537 -4 c 0,18,19
 478 -29 478 -29 414 -29 c 128,-1,20
 350 -29 350 -29 291 -4 c 128,-1,21
 232 21 232 21 190 63 c 128,-1,22
 148 105 148 105 123 164 c 128,-1,23
 98 223 98 223 98 287 c 2,0,-1
EndSplineSet
EndChar

StartChar: V
Encoding: 86 86 57
Width: 827
GlyphClass: 2
Flags: W
LayerCount: 2
Fore
SplineSet
96 1458 m 1,0,-1
 264 1458 l 1,1,-1
 414 530 l 1,2,-1
 561 1458 l 1,3,-1
 729 1458 l 1,4,-1
 496 0 l 1,5,-1
 332 0 l 1,6,-1
 96 1458 l 1,0,-1
EndSplineSet
EndChar

StartChar: W
Encoding: 87 87 58
Width: 972
GlyphClass: 2
Flags: W
LayerCount: 2
Fore
SplineSet
96 1458 m 1,0,-1
 264 1458 l 1,1,-1
 367 383 l 1,2,-1
 485 711 l 1,3,-1
 606 383 l 1,4,-1
 709 1458 l 1,5,-1
 874 1458 l 1,6,-1
 733 0 l 1,7,-1
 569 0 l 1,8,-1
 485 227 l 1,9,-1
 403 0 l 1,10,-1
 238 0 l 1,11,-1
 96 1458 l 1,0,-1
EndSplineSet
EndChar

StartChar: X
Encoding: 88 88 59
Width: 827
GlyphClass: 2
Flags: W
LayerCount: 2
Fore
SplineSet
96 0 m 1,0,-1
 328 729 l 1,1,-1
 96 1458 l 1,2,-1
 270 1458 l 1,3,-1
 414 1006 l 1,4,-1
 557 1458 l 1,5,-1
 729 1458 l 1,6,-1
 500 729 l 1,7,-1
 729 0 l 1,8,-1
 557 0 l 1,9,-1
 414 455 l 1,10,-1
 270 0 l 1,11,-1
 96 0 l 1,0,-1
EndSplineSet
EndChar

StartChar: Y
Encoding: 89 89 60
Width: 827
GlyphClass: 2
Flags: W
LayerCount: 2
Fore
SplineSet
98 1458 m 1,0,-1
 270 1458 l 1,1,-1
 414 1014 l 1,2,-1
 555 1458 l 1,3,-1
 729 1458 l 1,4,-1
 496 729 l 1,5,-1
 496 0 l 1,6,-1
 330 0 l 1,7,-1
 330 729 l 1,8,-1
 98 1458 l 1,0,-1
EndSplineSet
EndChar

StartChar: Z
Encoding: 90 90 61
Width: 827
GlyphClass: 2
Flags: W
LayerCount: 2
Fore
SplineSet
96 0 m 1,0,-1
 96 166 l 1,1,-1
 551 1292 l 1,2,-1
 96 1292 l 1,3,-1
 96 1458 l 1,4,-1
 729 1458 l 1,5,-1
 729 1292 l 1,6,-1
 274 166 l 1,7,-1
 729 166 l 1,8,-1
 729 0 l 1,9,-1
 96 0 l 1,0,-1
EndSplineSet
EndChar

StartChar: bracketleft
Encoding: 91 91 62
Width: 454
GlyphClass: 2
Flags: W
LayerCount: 2
Fore
SplineSet
143 -205 m 1,0,-1
 143 1458 l 1,1,-1
 414 1458 l 1,2,-1
 414 1384 l 1,3,-1
 276 1384 l 1,4,-1
 276 -131 l 1,5,-1
 414 -131 l 1,6,-1
 414 -205 l 1,7,-1
 143 -205 l 1,0,-1
EndSplineSet
EndChar

StartChar: backslash
Encoding: 92 92 63
Width: 454
GlyphClass: 2
Flags: W
LayerCount: 2
Fore
SplineSet
41 1470 m 1,0,-1
 154 1470 l 1,1,-1
 414 -12 l 1,2,-1
 301 -12 l 1,3,-1
 41 1470 l 1,0,-1
EndSplineSet
EndChar

StartChar: bracketright
Encoding: 93 93 64
Width: 454
GlyphClass: 2
Flags: W
LayerCount: 2
Fore
SplineSet
41 -131 m 1,0,-1
 178 -131 l 1,1,-1
 178 1384 l 1,2,-1
 41 1384 l 1,3,-1
 41 1458 l 1,4,-1
 311 1458 l 1,5,-1
 311 -205 l 1,6,-1
 41 -205 l 1,7,-1
 41 -131 l 1,0,-1
EndSplineSet
EndChar

StartChar: asciicircum
Encoding: 94 94 65
Width: 1228
GlyphClass: 2
Flags: W
LayerCount: 2
Fore
SplineSet
143 580 m 1,0,-1
 563 1458 l 1,1,-1
 666 1458 l 1,2,-1
 1085 580 l 1,3,-1
 979 580 l 1,4,-1
 614 1350 l 1,5,-1
 250 580 l 1,6,-1
 143 580 l 1,0,-1
EndSplineSet
EndChar

StartChar: underscore
Encoding: 95 95 66
Width: 1024
GlyphClass: 2
Flags: W
LayerCount: 2
Fore
SplineSet
25 -154 m 1,0,-1
 999 -154 l 1,1,-1
 999 -256 l 1,2,-1
 25 -256 l 1,3,-1
 25 -154 l 1,0,-1
EndSplineSet
EndChar

StartChar: grave
Encoding: 96 96 67
Width: 706
GlyphClass: 2
Flags: W
LayerCount: 2
Fore
SplineSet
387 1516 m 1,0,-1
 489 1618 l 1,1,-1
 686 1421 l 1,2,-1
 614 1350 l 1,3,-1
 387 1516 l 1,0,-1
EndSplineSet
EndChar

StartChar: a
Encoding: 97 97 68
Width: 890
GlyphClass: 2
Flags: W
LayerCount: 2
Fore
SplineSet
55 389 m 0,0,1
 55 468 55 468 84 540 c 0,2,3
 112 609 112 609 163 663 c 0,4,5
 211 713 211 713 280 745 c 0,6,7
 348 776 348 776 422 776 c 0,8,9
 463 776 463 776 500 765 c 0,10,11
 547 751 547 751 610 725 c 1,12,-1
 610 874 l 2,13,14
 610 946 610 946 563 996 c 0,15,16
 515 1047 515 1047 451 1047 c 0,17,18
 394 1047 394 1047 350 1009 c 0,19,20
 307 972 307 972 295 913 c 1,21,-1
 117 913 l 1,22,23
 123 979 123 979 152 1039 c 0,24,25
 181 1098 181 1098 225 1141 c 0,26,27
 268 1183 268 1183 328 1208 c 0,28,29
 387 1233 387 1233 451 1233 c 0,30,31
 518 1233 518 1233 582 1205 c 0,32,33
 642 1179 642 1179 688 1128 c 128,-1,34
 734 1077 734 1077 760 1014 c 0,35,36
 786 950 786 950 786 874 c 2,37,-1
 786 0 l 1,38,-1
 610 0 l 1,39,-1
 610 53 l 1,40,41
 544 21 544 21 500 10 c 0,42,43
 461 0 461 0 422 0 c 0,44,45
 348 0 348 0 280 31 c 128,-1,46
 212 62 212 62 163 114 c 0,47,48
 111 169 111 169 84 238 c 0,49,50
 55 311 55 311 55 389 c 0,0,1
231 389 m 0,51,52
 231 351 231 351 247 311 c 0,53,54
 261 275 261 275 288 247 c 0,55,56
 314 219 314 219 348 203 c 0,57,58
 384 186 384 186 422 186 c 0,59,60
 459 186 459 186 495 203 c 0,61,62
 527 218 527 218 554 247 c 0,63,64
 581 275 581 275 595 311 c 0,65,66
 610 348 610 348 610 389 c 0,67,68
 610 428 610 428 595 465 c 0,69,70
 581 501 581 501 554 529 c 0,71,72
 527 558 527 558 495 573 c 0,73,74
 459 590 459 590 422 590 c 0,75,76
 384 590 384 590 348 573 c 0,77,78
 314 557 314 557 288 529 c 0,79,80
 261 501 261 501 247 465 c 0,81,82
 231 425 231 425 231 389 c 0,51,52
EndSplineSet
EndChar

StartChar: b
Encoding: 98 98 69
Width: 829
GlyphClass: 2
Flags: W
LayerCount: 2
Fore
SplineSet
78 0 m 1,0,-1
 78 1458 l 1,1,-1
 254 1458 l 1,2,-1
 254 1159 l 1,3,4
 321 1184 321 1184 351 1191 c 0,5,6
 383 1198 383 1198 416 1198 c 0,7,8
 484 1198 484 1198 546 1170 c 0,9,10
 606 1143 606 1143 651 1095 c 0,11,12
 695 1048 695 1048 723 983 c 0,13,14
 750 920 750 920 750 846 c 2,15,-1
 750 354 l 2,16,17
 750 280 750 280 723 216 c 0,18,19
 696 151 696 151 651 103 c 128,-1,20
 606 55 606 55 546 28 c 0,21,22
 484 0 484 0 416 0 c 0,23,24
 384 0 384 0 352 7 c 0,25,26
 312 16 312 16 254 35 c 1,27,-1
 254 0 l 1,28,-1
 78 0 l 1,0,-1
254 354 m 2,29,30
 254 283 254 283 301 233 c 0,31,32
 347 184 347 184 416 184 c 0,33,34
 481 184 481 184 527 233 c 128,-1,35
 573 282 573 282 573 354 c 2,36,-1
 573 846 l 2,37,38
 573 917 573 917 527 964 c 0,39,40
 480 1012 480 1012 416 1012 c 0,41,42
 348 1012 348 1012 301 964 c 0,43,44
 254 915 254 915 254 846 c 2,45,-1
 254 354 l 2,29,30
EndSplineSet
EndChar

StartChar: c
Encoding: 99 99 70
Width: 829
GlyphClass: 2
Flags: W
LayerCount: 2
Fore
SplineSet
80 334 m 2,0,-1
 80 877 l 2,1,2
 80 953 80 953 106 1015 c 0,3,4
 132 1078 132 1078 178 1128 c 0,5,6
 223 1178 223 1178 285 1205 c 0,7,8
 349 1233 349 1233 416 1233 c 0,9,10
 477 1233 477 1233 538 1208 c 0,11,12
 597 1184 597 1184 641 1141 c 0,13,14
 687 1097 687 1097 715 1039 c 0,15,16
 744 979 744 979 750 913 c 1,17,-1
 571 913 l 1,18,19
 559 972 559 972 516 1009 c 0,20,21
 472 1047 472 1047 416 1047 c 0,22,23
 350 1047 350 1047 302 996 c 0,24,25
 256 947 256 947 256 877 c 2,26,-1
 256 334 l 2,27,28
 256 263 256 263 302 214 c 0,29,30
 349 164 349 164 416 164 c 0,31,32
 472 164 472 164 516 203 c 0,33,34
 559 242 559 242 571 297 c 1,35,-1
 750 297 l 1,36,37
 744 231 744 231 715 171 c 0,38,39
 688 115 688 115 641 70 c 0,40,41
 595 25 595 25 538 2 c 0,42,43
 477 -23 477 -23 416 -23 c 0,44,45
 348 -23 348 -23 285 6 c 0,46,47
 223 35 223 35 178 83 c 128,-1,48
 133 131 133 131 106 196 c 0,49,50
 80 258 80 258 80 334 c 2,0,-1
EndSplineSet
EndChar

StartChar: d
Encoding: 100 100 71
Width: 829
GlyphClass: 2
Flags: W
LayerCount: 2
Fore
SplineSet
78 354 m 2,0,-1
 78 846 l 2,1,2
 78 922 78 922 104 983 c 0,3,4
 132 1049 132 1049 177 1095 c 0,5,6
 224 1143 224 1143 285 1170 c 0,7,8
 349 1198 349 1198 416 1198 c 0,9,10
 446 1198 446 1198 478 1191 c 0,11,12
 507 1185 507 1185 573 1159 c 1,13,-1
 573 1458 l 1,14,-1
 750 1458 l 1,15,-1
 750 0 l 1,16,-1
 573 0 l 1,17,-1
 573 35 l 1,18,19
 514 15 514 15 478 7 c 0,20,21
 446 0 446 0 416 0 c 0,22,23
 349 0 349 0 285 28 c 0,24,25
 224 55 224 55 177 103 c 0,26,27
 132 150 132 150 104 216 c 0,28,29
 78 278 78 278 78 354 c 2,0,-1
254 354 m 2,30,31
 254 283 254 283 301 233 c 0,32,33
 347 184 347 184 416 184 c 0,34,35
 481 184 481 184 527 233 c 128,-1,36
 573 282 573 282 573 354 c 2,37,-1
 573 846 l 2,38,39
 573 917 573 917 527 964 c 0,40,41
 480 1012 480 1012 416 1012 c 0,42,43
 348 1012 348 1012 301 964 c 0,44,45
 254 915 254 915 254 846 c 2,46,-1
 254 354 l 2,30,31
EndSplineSet
EndChar

StartChar: e
Encoding: 101 101 72
Width: 874
GlyphClass: 2
Flags: W
LayerCount: 2
Fore
SplineSet
72 334 m 2,0,-1
 72 846 l 2,1,2
 72 927 72 927 100 996 c 128,-1,3
 128 1065 128 1065 179 1119 c 0,4,5
 228 1171 228 1171 296 1202 c 128,-1,6
 364 1233 364 1233 438 1233 c 0,7,8
 513 1233 513 1233 581 1202 c 0,9,10
 645 1173 645 1173 696 1119 c 0,11,12
 746 1066 746 1066 774 996 c 0,13,14
 803 924 803 924 803 846 c 2,15,-1
 803 575 l 1,16,-1
 248 575 l 1,17,-1
 248 334 l 2,18,19
 248 264 248 264 295 214 c 128,-1,20
 342 164 342 164 410 164 c 0,21,22
 467 164 467 164 509 203 c 128,-1,23
 551 242 551 242 563 297 c 1,24,-1
 741 297 l 1,25,26
 735 228 735 228 707 171 c 0,27,28
 680 115 680 115 633 70 c 0,29,30
 588 26 588 26 530 2 c 0,31,32
 471 -23 471 -23 410 -23 c 0,33,34
 339 -23 339 -23 276 6 c 0,35,36
 216 34 216 34 170 83 c 0,37,38
 125 131 125 131 98 196 c 0,39,40
 72 258 72 258 72 334 c 2,0,-1
248 762 m 1,41,-1
 627 762 l 1,42,-1
 627 846 l 2,43,44
 627 882 627 882 611 922 c 0,45,46
 597 958 597 958 570 986 c 0,47,48
 543 1015 543 1015 511 1030 c 0,49,50
 475 1047 475 1047 438 1047 c 128,-1,51
 401 1047 401 1047 365 1030 c 0,52,53
 330 1013 330 1013 304 986 c 0,54,55
 277 958 277 958 263 922 c 0,56,57
 248 884 248 884 248 846 c 2,58,-1
 248 762 l 1,41,-1
EndSplineSet
EndChar

StartChar: f
Encoding: 102 102 73
Width: 743
GlyphClass: 2
Flags: W
LayerCount: 2
Fore
SplineSet
80 0 m 1,0,-1
 80 1126 l 2,1,2
 80 1203 80 1203 106 1265 c 0,3,4
 133 1329 133 1329 178 1377 c 0,5,6
 224 1426 224 1426 285 1453 c 0,7,8
 349 1481 349 1481 416 1481 c 0,9,10
 477 1481 477 1481 538 1456 c 0,11,12
 596 1432 596 1432 641 1390 c 128,-1,13
 686 1348 686 1348 715 1290 c 128,-1,14
 744 1232 744 1232 750 1165 c 1,15,-1
 573 1165 l 1,16,17
 561 1222 561 1222 517 1260 c 0,18,19
 475 1296 475 1296 416 1296 c 0,20,21
 349 1296 349 1296 302 1246 c 0,22,23
 256 1197 256 1197 256 1126 c 2,24,-1
 256 821 l 1,25,-1
 506 821 l 1,26,-1
 506 637 l 1,27,-1
 256 637 l 1,28,-1
 256 0 l 1,29,-1
 80 0 l 1,0,-1
EndSplineSet
EndChar

StartChar: g
Encoding: 103 103 74
Width: 843
GlyphClass: 2
Flags: W
LayerCount: 2
Fore
SplineSet
78 371 m 2,0,-1
 78 860 l 2,1,2
 78 934 78 934 104 995 c 0,3,4
 132 1061 132 1061 177 1107 c 0,5,6
 225 1157 225 1157 285 1183 c 0,7,8
 346 1210 346 1210 416 1210 c 0,9,10
 446 1210 446 1210 478 1203 c 0,11,12
 517 1195 517 1195 573 1174 c 1,13,-1
 573 1210 l 1,14,-1
 750 1210 l 1,15,-1
 750 -20 l 2,16,17
 750 -93 750 -93 723 -157 c 128,-1,18
 696 -221 696 -221 651 -269 c 0,19,20
 604 -319 604 -319 546 -345 c 0,21,22
 484 -373 484 -373 416 -373 c 0,23,24
 359 -373 359 -373 302 -351 c 0,25,26
 247 -330 247 -330 203 -293 c 1,27,-1
 330 -162 l 1,28,29
 368 -188 368 -188 416 -188 c 0,30,31
 480 -188 480 -188 527 -138 c 0,32,33
 573 -89 573 -89 573 -20 c 2,34,-1
 573 53 l 1,35,36
 513 31 513 31 478 25 c 0,37,38
 438 18 438 18 416 18 c 0,39,40
 349 18 349 18 285 46 c 0,41,42
 226 72 226 72 177 121 c 0,43,44
 131 167 131 167 104 232 c 0,45,46
 78 294 78 294 78 371 c 2,0,-1
254 371 m 2,47,48
 254 300 254 300 301 251 c 0,49,50
 348 203 348 203 416 203 c 0,51,52
 480 203 480 203 527 251 c 0,53,54
 573 298 573 298 573 371 c 2,55,-1
 573 860 l 2,56,57
 573 928 573 928 527 977 c 128,-1,58
 481 1026 481 1026 416 1026 c 0,59,60
 348 1026 348 1026 301 978 c 0,61,62
 254 929 254 929 254 860 c 2,63,-1
 254 371 l 2,47,48
EndSplineSet
EndChar

StartChar: h
Encoding: 104 104 75
Width: 829
GlyphClass: 2
Flags: W
LayerCount: 2
Fore
SplineSet
78 0 m 1,0,-1
 78 1458 l 1,1,-1
 254 1458 l 1,2,-1
 254 1159 l 1,3,4
 321 1184 321 1184 351 1191 c 0,5,6
 383 1198 383 1198 416 1198 c 0,7,8
 484 1198 484 1198 546 1170 c 0,9,10
 606 1143 606 1143 651 1095 c 0,11,12
 695 1048 695 1048 723 983 c 0,13,14
 750 920 750 920 750 846 c 2,15,-1
 750 0 l 1,16,-1
 573 0 l 1,17,-1
 573 846 l 2,18,19
 573 917 573 917 527 964 c 0,20,21
 480 1012 480 1012 416 1012 c 0,22,23
 348 1012 348 1012 301 964 c 0,24,25
 254 915 254 915 254 846 c 2,26,-1
 254 0 l 1,27,-1
 78 0 l 1,0,-1
EndSplineSet
EndChar

StartChar: i
Encoding: 105 105 76
Width: 430
GlyphClass: 2
Flags: W
LayerCount: 2
Fore
SplineSet
127 0 m 1,0,-1
 127 1198 l 1,1,-1
 303 1198 l 1,2,-1
 303 0 l 1,3,-1
 127 0 l 1,0,-1
127 1403 m 1,4,-1
 127 1458 l 1,5,-1
 303 1458 l 1,6,-1
 303 1403 l 1,7,-1
 127 1403 l 1,4,-1
EndSplineSet
EndChar

StartChar: j
Encoding: 106 106 77
Width: 503
GlyphClass: 2
Flags: W
LayerCount: 2
Fore
SplineSet
-195 -293 m 1,0,-1
 -68 -164 l 1,1,2
 -31 -188 -31 -188 18 -188 c 0,3,4
 84 -188 84 -188 130 -139 c 128,-1,5
 176 -90 176 -90 176 -23 c 2,6,-1
 176 1200 l 1,7,-1
 352 1200 l 1,8,-1
 352 -23 l 2,9,10
 352 -97 352 -97 326 -159 c 0,11,12
 299 -224 299 -224 254 -270 c 0,13,14
 207 -318 207 -318 148 -345 c 0,15,16
 86 -373 86 -373 18 -373 c 0,17,18
 -38 -373 -38 -373 -95 -351 c 128,-1,19
 -152 -329 -152 -329 -195 -293 c 1,0,-1
176 1403 m 1,20,-1
 176 1458 l 1,21,-1
 352 1458 l 1,22,-1
 352 1403 l 1,23,-1
 176 1403 l 1,20,-1
EndSplineSet
EndChar

StartChar: k
Encoding: 107 107 78
Width: 843
GlyphClass: 2
Flags: W
LayerCount: 2
Fore
SplineSet
82 0 m 1,0,-1
 82 1458 l 1,1,-1
 258 1458 l 1,2,-1
 258 885 l 1,3,-1
 539 1198 l 1,4,-1
 780 1198 l 1,5,-1
 432 809 l 1,6,-1
 805 0 l 1,7,-1
 610 0 l 1,8,-1
 258 764 l 1,9,-1
 258 0 l 1,10,-1
 82 0 l 1,0,-1
EndSplineSet
EndChar

StartChar: l
Encoding: 108 108 79
Width: 430
GlyphClass: 2
Flags: W
LayerCount: 2
Fore
SplineSet
127 0 m 1,0,-1
 127 1458 l 1,1,-1
 303 1458 l 1,2,-1
 303 0 l 1,3,-1
 127 0 l 1,0,-1
EndSplineSet
EndChar

StartChar: m
Encoding: 109 109 80
Width: 1310
GlyphClass: 2
Flags: W
LayerCount: 2
Fore
SplineSet
70 0 m 1,0,-1
 70 1210 l 1,1,-1
 246 1210 l 1,2,-1
 246 1171 l 1,3,4
 311 1196 311 1196 344 1203 c 0,5,6
 376 1210 376 1210 408 1210 c 0,7,8
 474 1210 474 1210 532 1184 c 0,9,10
 594 1156 594 1156 655 1098 c 1,11,12
 714 1156 714 1156 777 1184 c 0,13,14
 835 1210 835 1210 903 1210 c 0,15,16
 973 1210 973 1210 1033 1183 c 128,-1,17
 1093 1156 1093 1156 1140 1106 c 0,18,19
 1184 1059 1184 1059 1212 992 c 0,20,21
 1239 928 1239 928 1239 854 c 2,22,-1
 1239 0 l 1,23,-1
 1063 0 l 1,24,-1
 1063 854 l 2,25,26
 1063 925 1063 925 1016 975 c 0,27,28
 970 1024 970 1024 903 1024 c 0,29,30
 838 1024 838 1024 790 975 c 0,31,32
 741 924 741 924 741 854 c 2,33,-1
 741 0 l 1,34,-1
 565 0 l 1,35,-1
 565 854 l 2,36,37
 565 926 565 926 519 975 c 128,-1,38
 473 1024 473 1024 408 1024 c 0,39,40
 339 1024 339 1024 293 975 c 0,41,42
 246 925 246 925 246 854 c 2,43,-1
 246 0 l 1,44,-1
 70 0 l 1,0,-1
EndSplineSet
EndChar

StartChar: n
Encoding: 110 110 81
Width: 829
GlyphClass: 2
Flags: W
LayerCount: 2
Fore
SplineSet
78 0 m 1,0,-1
 78 1210 l 1,1,-1
 254 1210 l 1,2,-1
 254 1171 l 1,3,4
 321 1196 321 1196 351 1203 c 0,5,6
 383 1210 383 1210 416 1210 c 0,7,8
 486 1210 486 1210 546 1183 c 0,9,10
 605 1156 605 1156 651 1106 c 0,11,12
 696 1056 696 1056 723 992 c 128,-1,13
 750 928 750 928 750 854 c 2,14,-1
 750 0 l 1,15,-1
 575 0 l 1,16,-1
 575 854 l 2,17,18
 575 925 575 925 528 975 c 0,19,20
 482 1024 482 1024 416 1024 c 0,21,22
 347 1024 347 1024 301 975 c 0,23,24
 254 925 254 925 254 854 c 2,25,-1
 254 0 l 1,26,-1
 78 0 l 1,0,-1
EndSplineSet
EndChar

StartChar: o
Encoding: 111 111 82
Width: 829
GlyphClass: 2
Flags: W
LayerCount: 2
Fore
SplineSet
78 334 m 2,0,-1
 78 877 l 2,1,2
 78 953 78 953 104 1015 c 0,3,4
 131 1079 131 1079 177 1128 c 0,5,6
 224 1178 224 1178 285 1205 c 0,7,8
 349 1233 349 1233 416 1233 c 0,9,10
 484 1233 484 1233 546 1205 c 0,11,12
 605 1178 605 1178 651 1128 c 128,-1,13
 697 1078 697 1078 723 1015 c 0,14,15
 750 950 750 950 750 877 c 2,16,-1
 750 334 l 2,17,18
 750 260 750 260 723 196 c 0,19,20
 696 131 696 131 651 83 c 0,21,22
 605 34 605 34 546 6 c 0,23,24
 485 -23 485 -23 416 -23 c 0,25,26
 348 -23 348 -23 285 6 c 0,27,28
 224 34 224 34 177 83 c 0,29,30
 132 130 132 130 104 196 c 0,31,32
 78 258 78 258 78 334 c 2,0,-1
254 334 m 2,33,34
 254 264 254 264 301 214 c 128,-1,35
 348 164 348 164 416 164 c 0,36,37
 482 164 482 164 529 214 c 0,38,39
 575 263 575 263 575 334 c 2,40,-1
 575 877 l 2,41,42
 575 947 575 947 528 997 c 128,-1,43
 481 1047 481 1047 416 1047 c 0,44,45
 348 1047 348 1047 301 997 c 128,-1,46
 254 947 254 947 254 877 c 2,47,-1
 254 334 l 2,33,34
EndSplineSet
EndChar

StartChar: p
Encoding: 112 112 83
Width: 829
GlyphClass: 2
Flags: W
LayerCount: 2
Fore
SplineSet
78 -248 m 1,0,-1
 78 858 l 1,1,-1
 78 1210 l 1,2,-1
 254 1210 l 1,3,-1
 254 1171 l 1,4,5
 321 1196 321 1196 351 1203 c 0,6,7
 383 1210 383 1210 416 1210 c 0,8,9
 486 1210 486 1210 546 1183 c 0,10,11
 604 1157 604 1157 651 1107 c 0,12,13
 695 1060 695 1060 723 995 c 0,14,15
 750 932 750 932 750 858 c 2,16,-1
 750 367 l 2,17,18
 750 292 750 292 723 228 c 128,-1,19
 696 164 696 164 651 116 c 0,20,21
 604 66 604 66 546 40 c 0,22,23
 484 12 484 12 416 12 c 0,24,25
 384 12 384 12 352 19 c 0,26,27
 312 28 312 28 254 47 c 1,28,-1
 254 -248 l 1,29,-1
 78 -248 l 1,0,-1
254 367 m 2,30,31
 254 296 254 296 301 247 c 0,32,33
 348 199 348 199 416 199 c 0,34,35
 481 199 481 199 527 248 c 128,-1,36
 573 297 573 297 573 367 c 2,37,-1
 573 858 l 2,38,39
 573 928 573 928 527 977 c 128,-1,40
 481 1026 481 1026 416 1026 c 0,41,42
 347 1026 347 1026 301 977 c 0,43,44
 254 927 254 927 254 858 c 2,45,-1
 254 367 l 2,30,31
EndSplineSet
EndChar

StartChar: q
Encoding: 113 113 84
Width: 829
GlyphClass: 2
Flags: W
LayerCount: 2
Fore
SplineSet
78 367 m 2,0,-1
 78 858 l 2,1,2
 78 934 78 934 104 995 c 0,3,4
 132 1061 132 1061 177 1107 c 0,5,6
 225 1157 225 1157 285 1183 c 0,7,8
 346 1210 346 1210 416 1210 c 0,9,10
 446 1210 446 1210 478 1203 c 0,11,12
 507 1197 507 1197 573 1171 c 1,13,-1
 573 1210 l 1,14,-1
 750 1210 l 1,15,-1
 750 -248 l 1,16,-1
 573 -248 l 1,17,-1
 573 47 l 1,18,19
 514 27 514 27 478 19 c 0,20,21
 446 12 446 12 416 12 c 0,22,23
 349 12 349 12 285 40 c 0,24,25
 225 66 225 66 177 116 c 0,26,27
 131 163 131 163 104 228 c 0,28,29
 78 290 78 290 78 367 c 2,0,-1
254 367 m 2,30,31
 254 296 254 296 301 247 c 0,32,33
 348 199 348 199 416 199 c 0,34,35
 481 199 481 199 527 248 c 128,-1,36
 573 297 573 297 573 367 c 2,37,-1
 573 858 l 2,38,39
 573 928 573 928 527 977 c 128,-1,40
 481 1026 481 1026 416 1026 c 0,41,42
 347 1026 347 1026 301 977 c 0,43,44
 254 927 254 927 254 858 c 2,45,-1
 254 367 l 2,30,31
EndSplineSet
EndChar

StartChar: r
Encoding: 114 114 85
Width: 722
GlyphClass: 2
Flags: W
LayerCount: 2
Fore
SplineSet
80 0 m 1,0,-1
 80 1210 l 1,1,-1
 256 1210 l 1,2,-1
 256 1171 l 1,3,4
 320 1196 320 1196 352 1203 c 128,-1,5
 384 1210 384 1210 416 1210 c 0,6,7
 480 1210 480 1210 538 1186 c 0,8,9
 595 1163 595 1163 641 1118 c 128,-1,10
 687 1073 687 1073 715 1018 c 0,11,12
 744 960 744 960 750 893 c 1,13,-1
 571 893 l 1,14,15
 559 949 559 949 516 986 c 0,16,17
 472 1024 472 1024 416 1024 c 0,18,19
 349 1024 349 1024 302 974 c 0,20,21
 256 925 256 925 256 854 c 2,22,-1
 256 0 l 1,23,-1
 80 0 l 1,0,-1
EndSplineSet
EndChar

StartChar: s
Encoding: 115 115 86
Width: 841
GlyphClass: 2
Flags: W
LayerCount: 2
Fore
SplineSet
41 328 m 1,0,-1
 217 328 l 1,1,2
 233 257 233 257 284 211 c 0,3,4
 337 164 337 164 403 164 c 0,5,6
 444 164 444 164 477 180 c 0,7,8
 512 197 512 197 538 224 c 128,-1,9
 564 251 564 251 579 288 c 0,10,11
 594 324 594 324 594 365 c 0,12,13
 594 404 594 404 579 442 c 0,14,15
 564 479 564 479 538 507 c 128,-1,16
 512 535 512 535 477 550 c 0,17,18
 443 565 443 565 403 565 c 0,19,20
 339 565 339 565 282 592 c 0,21,22
 226 619 226 619 182 664 c 0,23,24
 139 708 139 708 115 770 c 0,25,26
 90 834 90 834 90 899 c 0,27,28
 90 966 90 966 115 1029 c 128,-1,29
 140 1092 140 1092 182 1135 c 0,30,31
 224 1179 224 1179 282 1206 c 0,32,33
 339 1233 339 1233 403 1233 c 0,34,35
 464 1233 464 1233 519 1210 c 0,36,37
 575 1187 575 1187 615 1148 c 0,38,39
 657 1107 657 1107 684 1054 c 0,40,41
 711 1000 711 1000 717 938 c 1,42,-1
 537 938 l 1,43,44
 526 986 526 986 489 1016 c 0,45,46
 450 1047 450 1047 403 1047 c 0,47,48
 349 1047 349 1047 307 1002 c 0,49,50
 266 958 266 958 266 899 c 0,51,52
 266 839 266 839 307 796 c 0,53,54
 348 754 348 754 403 754 c 0,55,56
 478 754 478 754 546 723 c 128,-1,57
 614 692 614 692 663 640 c 0,58,59
 713 587 713 587 741 516 c 0,60,61
 770 443 770 443 770 365 c 0,62,63
 770 286 770 286 741 214 c 0,64,65
 712 144 712 144 663 91 c 0,66,67
 614 39 614 39 546 8 c 128,-1,68
 478 -23 478 -23 403 -23 c 0,69,70
 332 -23 332 -23 269 4 c 0,71,72
 209 30 209 30 158 79 c 0,73,74
 108 128 108 128 78 190 c 0,75,76
 47 255 47 255 41 328 c 1,0,-1
EndSplineSet
EndChar

StartChar: t
Encoding: 116 116 87
Width: 647
GlyphClass: 2
Flags: W
LayerCount: 2
Fore
SplineSet
96 332 m 2,0,-1
 96 1458 l 1,1,-1
 272 1458 l 1,2,-1
 272 1198 l 1,3,-1
 522 1198 l 1,4,-1
 522 1012 l 1,5,-1
 272 1012 l 1,6,-1
 272 332 l 2,7,8
 272 261 272 261 318 212 c 0,9,10
 365 162 365 162 432 162 c 0,11,12
 455 162 455 162 479 170 c 0,13,14
 501 177 501 177 520 190 c 1,15,-1
 651 61 l 1,16,17
 607 23 607 23 551 0 c 0,18,19
 494 -23 494 -23 432 -23 c 0,20,21
 365 -23 365 -23 301 5 c 0,22,23
 242 31 242 31 195 81 c 0,24,25
 150 129 150 129 123 194 c 0,26,27
 96 258 96 258 96 332 c 2,0,-1
EndSplineSet
EndChar

StartChar: u
Encoding: 117 117 88
Width: 829
GlyphClass: 2
Flags: W
LayerCount: 2
Fore
SplineSet
78 358 m 2,0,-1
 78 1210 l 1,1,-1
 254 1210 l 1,2,-1
 254 358 l 2,3,4
 254 287 254 287 301 237 c 0,5,6
 349 186 349 186 416 186 c 0,7,8
 447 186 447 186 477 200 c 128,-1,9
 507 214 507 214 527 237 c 0,10,11
 550 263 550 263 561 292 c 0,12,13
 573 324 573 324 573 358 c 2,14,-1
 573 1210 l 1,15,-1
 750 1210 l 1,16,-1
 750 0 l 1,17,-1
 573 0 l 1,18,-1
 573 35 l 1,19,20
 514 15 514 15 478 7 c 0,21,22
 446 0 446 0 416 0 c 0,23,24
 349 0 349 0 285 28 c 0,25,26
 223 55 223 55 177 104 c 128,-1,27
 131 153 131 153 104 219 c 0,28,29
 78 283 78 283 78 358 c 2,0,-1
EndSplineSet
EndChar

StartChar: v
Encoding: 118 118 89
Width: 780
GlyphClass: 2
Flags: W
LayerCount: 2
Fore
SplineSet
61 1210 m 1,0,-1
 238 1210 l 1,1,-1
 391 418 l 1,2,-1
 545 1210 l 1,3,-1
 719 1210 l 1,4,-1
 487 0 l 1,5,-1
 295 0 l 1,6,-1
 61 1210 l 1,0,-1
EndSplineSet
EndChar

StartChar: w
Encoding: 119 119 90
Width: 1177
GlyphClass: 2
Flags: W
LayerCount: 2
Fore
SplineSet
12 1210 m 1,0,-1
 186 1210 l 1,1,-1
 340 418 l 1,2,-1
 496 1210 l 1,3,-1
 682 1210 l 1,4,-1
 836 418 l 1,5,-1
 991 1210 l 1,6,-1
 1165 1210 l 1,7,-1
 932 0 l 1,8,-1
 741 0 l 1,9,-1
 588 799 l 1,10,-1
 436 0 l 1,11,-1
 246 0 l 1,12,-1
 12 1210 l 1,0,-1
EndSplineSet
EndChar

StartChar: x
Encoding: 120 120 91
Width: 741
GlyphClass: 2
Flags: W
LayerCount: 2
Fore
SplineSet
51 0 m 1,0,-1
 276 606 l 1,1,-1
 51 1210 l 1,2,-1
 242 1210 l 1,3,-1
 373 862 l 1,4,-1
 502 1210 l 1,5,-1
 690 1210 l 1,6,-1
 467 606 l 1,7,-1
 690 0 l 1,8,-1
 502 0 l 1,9,-1
 373 348 l 1,10,-1
 242 0 l 1,11,-1
 51 0 l 1,0,-1
EndSplineSet
EndChar

StartChar: y
Encoding: 121 121 92
Width: 829
GlyphClass: 2
Flags: W
LayerCount: 2
Fore
SplineSet
78 371 m 2,0,-1
 78 1210 l 1,1,-1
 254 1210 l 1,2,-1
 254 371 l 2,3,4
 254 300 254 300 301 251 c 0,5,6
 348 203 348 203 416 203 c 0,7,8
 480 203 480 203 527 251 c 0,9,10
 573 298 573 298 573 371 c 2,11,-1
 573 1210 l 1,12,-1
 750 1210 l 1,13,-1
 750 -20 l 2,14,15
 750 -93 750 -93 723 -157 c 128,-1,16
 696 -221 696 -221 651 -269 c 0,17,18
 604 -319 604 -319 546 -345 c 0,19,20
 484 -373 484 -373 416 -373 c 0,21,22
 359 -373 359 -373 302 -351 c 0,23,24
 247 -330 247 -330 203 -293 c 1,25,-1
 330 -162 l 1,26,27
 368 -188 368 -188 416 -188 c 0,28,29
 480 -188 480 -188 527 -138 c 0,30,31
 573 -89 573 -89 573 -20 c 2,32,-1
 573 53 l 1,33,34
 513 31 513 31 478 25 c 0,35,36
 438 18 438 18 416 18 c 0,37,38
 349 18 349 18 285 46 c 0,39,40
 226 72 226 72 177 121 c 0,41,42
 131 167 131 167 104 232 c 0,43,44
 78 294 78 294 78 371 c 2,0,-1
EndSplineSet
EndChar

StartChar: z
Encoding: 122 122 93
Width: 829
GlyphClass: 2
Flags: W
LayerCount: 2
Fore
SplineSet
78 0 m 1,0,-1
 78 215 l 1,1,-1
 559 1024 l 1,2,-1
 78 1024 l 1,3,-1
 78 1210 l 1,4,-1
 750 1210 l 1,5,-1
 750 995 l 1,6,-1
 270 186 l 1,7,-1
 750 186 l 1,8,-1
 750 0 l 1,9,-1
 78 0 l 1,0,-1
EndSplineSet
EndChar

StartChar: braceleft
Encoding: 123 123 94
Width: 454
GlyphClass: 2
Flags: W
LayerCount: 2
Fore
SplineSet
31 588 m 1,0,-1
 31 670 l 1,1,2
 96 685 96 685 129 758 c 0,3,4
 162 832 162 832 162 930 c 2,5,-1
 162 1249 l 2,6,7
 162 1353 162 1353 215 1406 c 0,8,9
 267 1458 267 1458 338 1458 c 2,10,-1
 424 1458 l 1,11,-1
 424 1384 l 1,12,-1
 412 1384 l 2,13,14
 345 1384 345 1384 321 1334 c 128,-1,15
 297 1284 297 1284 297 1219 c 2,16,-1
 297 899 l 2,17,18
 297 829 297 829 284 786 c 128,-1,19
 271 743 271 743 249 713 c 0,20,21
 230 687 230 687 203 670 c 0,22,23
 181 656 181 656 154 651 c 1,24,-1
 154 602 l 1,25,26
 182 597 182 597 203 585 c 0,27,28
 227 572 227 572 248 543 c 0,29,30
 268 516 268 516 282 468 c 0,31,32
 295 423 295 423 295 352 c 2,33,-1
 295 37 l 2,34,35
 295 -32 295 -32 319 -81 c 0,36,37
 343 -131 343 -131 412 -131 c 2,38,-1
 424 -131 l 1,39,-1
 424 -205 l 1,40,-1
 338 -205 l 2,41,42
 268 -205 268 -205 216 -153 c 128,-1,43
 164 -101 164 -101 164 4 c 2,44,-1
 164 322 l 2,45,46
 164 422 164 422 130 497 c 0,47,48
 96 573 96 573 31 588 c 1,0,-1
EndSplineSet
EndChar

StartChar: bar
Encoding: 124 124 95
Width: 454
GlyphClass: 2
Flags: W
LayerCount: 2
Fore
SplineSet
170 -12 m 1,0,-1
 170 1470 l 1,1,-1
 285 1470 l 1,2,-1
 285 -12 l 1,3,-1
 170 -12 l 1,0,-1
EndSplineSet
EndChar

StartChar: braceright
Encoding: 125 125 96
Width: 454
GlyphClass: 2
Flags: W
LayerCount: 2
Fore
SplineSet
31 -131 m 1,0,-1
 43 -131 l 2,1,2
 110 -131 110 -131 134 -81 c 0,3,4
 158 -32 158 -32 158 37 c 2,5,-1
 158 352 l 2,6,7
 158 423 158 423 171 468 c 128,-1,8
 184 513 184 513 206 543 c 0,9,10
 226 571 226 571 252 585 c 0,11,12
 273 597 273 597 301 602 c 1,13,-1
 301 651 l 1,14,15
 274 656 274 656 252 670 c 0,16,17
 227 685 227 685 207 713 c 128,-1,18
 187 741 187 741 173 786 c 0,19,20
 160 829 160 829 160 899 c 2,21,-1
 160 1219 l 2,22,23
 160 1282 160 1282 135 1334 c 0,24,25
 111 1384 111 1384 43 1384 c 2,26,-1
 31 1384 l 1,27,-1
 31 1458 l 1,28,-1
 117 1458 l 2,29,30
 187 1458 187 1458 239 1406 c 128,-1,31
 291 1354 291 1354 291 1249 c 2,32,-1
 291 930 l 2,33,34
 291 830 291 830 325 758 c 0,35,36
 359 685 359 685 424 670 c 1,37,-1
 424 588 l 1,38,39
 359 573 359 573 326 497 c 0,40,41
 293 420 293 420 293 322 c 2,42,-1
 293 4 l 2,43,44
 293 -100 293 -100 240 -153 c 0,45,46
 188 -205 188 -205 117 -205 c 2,47,-1
 31 -205 l 1,48,-1
 31 -131 l 1,0,-1
EndSplineSet
EndChar

StartChar: asciitilde
Encoding: 126 126 97
Width: 1228
GlyphClass: 2
Flags: W
LayerCount: 2
Fore
SplineSet
170 487 m 1,0,1
 186 520 186 520 208 555 c 0,2,3
 227 584 227 584 257 613 c 0,4,5
 285 639 285 639 319 654 c 0,6,7
 356 670 356 670 397 670 c 0,8,9
 452 670 452 670 512 643 c 128,-1,10
 572 616 572 616 629 586 c 2,11,-1
 738 528 l 2,12,13
 789 502 789 502 834 502 c 0,14,15
 895 502 895 502 938 548 c 0,16,17
 983 596 983 596 1012 647 c 1,18,-1
 1059 547 l 1,19,20
 1043 514 1043 514 1021 479 c 0,21,22
 1002 450 1002 450 972 421 c 0,23,24
 945 396 945 396 909 380 c 0,25,26
 874 365 874 365 831 365 c 0,27,28
 775 365 775 365 717 391 c 0,29,30
 670 412 670 412 600 449 c 2,31,-1
 489 506 l 2,32,33
 438 532 438 532 395 532 c 0,34,35
 364 532 364 532 338 519 c 0,36,37
 310 505 310 505 290 485 c 0,38,39
 264 459 264 459 250 438 c 0,40,41
 232 411 232 411 217 387 c 1,42,-1
 170 487 l 1,0,1
EndSplineSet
EndChar

StartChar: exclamdown
Encoding: 161 161 99
Width: 491
GlyphClass: 2
Flags: W
LayerCount: 2
Fore
SplineSet
141 -420 m 1,0,-1
 219 666 l 1,1,-1
 272 666 l 1,2,-1
 350 -420 l 1,3,-1
 141 -420 l 1,0,-1
166 874 m 1,4,-1
 166 1038 l 1,5,-1
 326 1038 l 1,6,-1
 326 874 l 1,7,-1
 166 874 l 1,4,-1
EndSplineSet
EndChar

StartChar: cent
Encoding: 162 162 100
Width: 761
GlyphClass: 2
Flags: W
LayerCount: 2
Fore
SplineSet
94 336 m 2,0,-1
 94 700 l 2,1,2
 94 859 94 859 153 944 c 128,-1,3
 212 1029 212 1029 360 1047 c 1,4,-1
 360 1204 l 1,5,-1
 393 1204 l 1,6,-1
 393 1047 l 1,7,8
 522 1036 522 1036 591 957 c 0,9,10
 660 877 660 877 666 754 c 1,11,-1
 508 754 l 1,12,13
 504 802 504 802 479 836 c 0,14,15
 456 868 456 868 393 891 c 1,16,-1
 393 147 l 1,17,18
 454 169 454 169 477 203 c 128,-1,19
 500 237 500 237 506 266 c 1,20,-1
 666 266 l 1,21,22
 661 209 661 209 644 164 c 0,23,24
 625 115 625 115 594 80 c 0,25,26
 561 42 561 42 512 20 c 0,27,28
 464 -2 464 -2 395 -8 c 1,29,-1
 395 -184 l 1,30,-1
 362 -184 l 1,31,-1
 362 -8 l 1,32,33
 209 4 209 4 152 92 c 0,34,35
 94 182 94 182 94 336 c 2,0,-1
252 283 m 2,36,37
 252 236 252 236 276 203 c 0,38,39
 300 169 300 169 360 147 c 1,40,-1
 362 893 l 1,41,42
 323 877 323 877 299 858 c 0,43,44
 277 840 277 840 266 820 c 128,-1,45
 255 800 255 800 254 780 c 0,46,47
 252 752 252 752 252 739 c 2,48,-1
 252 283 l 2,36,37
EndSplineSet
EndChar

StartChar: sterling
Encoding: 163 163 101
Width: 761
GlyphClass: 2
Flags: W
LayerCount: 2
Fore
SplineSet
51 633 m 1,0,-1
 51 731 l 1,1,-1
 182 731 l 1,2,3
 156 779 156 779 137 823 c 0,4,5
 122 857 122 857 108 904 c 0,6,7
 95 947 95 947 91 985 c 0,8,9
 86 1030 86 1030 86 1079 c 0,10,11
 86 1165 86 1165 103 1232 c 0,12,13
 121 1303 121 1303 159 1356 c 0,14,15
 198 1411 198 1411 255 1440 c 0,16,17
 314 1470 314 1470 393 1470 c 0,18,19
 438 1470 438 1470 488 1452 c 0,20,21
 539 1433 539 1433 579 1395 c 0,22,23
 616 1359 616 1359 645 1295 c 0,24,25
 672 1235 672 1235 672 1151 c 2,26,-1
 672 1081 l 1,27,-1
 526 1081 l 1,28,-1
 526 1141 l 2,29,30
 526 1170 526 1170 520 1201 c 128,-1,31
 514 1232 514 1232 499 1258 c 256,32,33
 484 1284 484 1284 457 1302 c 0,34,35
 431 1319 431 1319 387 1319 c 0,36,37
 341 1319 341 1319 310 1297 c 0,38,39
 281 1277 281 1277 263 1242 c 0,40,41
 247 1212 247 1212 239 1164 c 0,42,43
 231 1118 231 1118 231 1077 c 0,44,45
 231 993 231 993 254 901 c 128,-1,46
 277 809 277 809 305 731 c 1,47,-1
 537 731 l 1,48,-1
 537 633 l 1,49,-1
 334 633 l 1,50,51
 338 622 338 622 343 607 c 128,-1,52
 348 592 348 592 351.5 581.5 c 128,-1,53
 355 571 355 571 358 563 c 0,54,55
 371 530 371 530 374 515 c 0,56,57
 380 487 380 487 381 473 c 0,58,59
 383 445 383 445 383 420 c 0,60,61
 383 360 383 360 362 302 c 128,-1,62
 341 244 341 244 301 168 c 1,63,64
 329 164 329 164 375 157 c 2,65,-1
 425 147 l 2,66,67
 446 143 446 143 466 141 c 0,68,69
 492 139 492 139 510 139 c 0,70,71
 545 139 545 139 578 148 c 0,72,73
 610 157 610 157 645 195 c 1,74,-1
 752 84 l 1,75,76
 710 29 710 29 665 9 c 0,77,78
 618 -12 618 -12 557 -12 c 0,79,80
 528 -12 528 -12 483 -6 c 0,81,82
 470 -4 470 -4 389 8 c 0,83,84
 382 9 382 9 346.5 15 c 128,-1,85
 311 21 311 21 292 23 c 0,86,87
 244 29 244 29 209 29 c 0,88,89
 172 29 172 29 137 22 c 0,90,91
 119 18 119 18 72 6 c 1,92,-1
 72 133 l 1,93,94
 95 144 95 144 125 154 c 0,95,96
 152 163 152 163 193 168 c 1,97,98
 260 268 260 268 260 377 c 0,99,100
 260 431 260 431 246 494 c 0,101,102
 230 567 230 567 205 633 c 1,103,-1
 51 633 l 1,0,-1
EndSplineSet
EndChar

StartChar: currency
Encoding: 164 164 102
Width: 761
GlyphClass: 2
Flags: W
LayerCount: 2
Fore
SplineSet
43 1040 m 1,0,-1
 92 1092 l 1,1,-1
 174 1001 l 1,2,3
 266 1087 266 1087 381 1087 c 0,4,5
 493 1087 493 1087 590 1001 c 1,6,-1
 672 1092 l 1,7,-1
 719 1040 l 1,8,-1
 635 952 l 1,9,10
 715 852 715 852 715 729 c 0,11,12
 715 603 715 603 635 508 c 1,13,-1
 717 420 l 1,14,-1
 670 369 l 1,15,-1
 586 457 l 1,16,17
 500 371 500 371 381 371 c 128,-1,18
 262 371 262 371 174 459 c 1,19,-1
 92 369 l 1,20,-1
 45 418 l 1,21,-1
 129 508 l 1,22,23
 47 602 47 602 47 729 c 0,24,25
 47 853 47 853 127 950 c 1,26,-1
 43 1040 l 1,0,-1
131 729 m 0,27,28
 131 675 131 675 151 626 c 0,29,30
 171 576 171 576 204 542 c 0,31,32
 241 504 241 504 283 484 c 0,33,34
 328 463 328 463 381 463 c 0,35,36
 432 463 432 463 477 484 c 0,37,38
 519 504 519 504 556 542 c 0,39,40
 589 576 589 576 609 626 c 0,41,42
 630 677 630 677 631 729 c 0,43,44
 631 784 631 784 611 833 c 0,45,46
 591 881 591 881 558 916 c 0,47,48
 521 955 521 955 478 974 c 0,49,50
 432 995 432 995 381 995 c 0,51,52
 328 995 328 995 283 974 c 0,53,54
 241 954 241 954 204 916 c 0,55,56
 171 881 171 881 151 833 c 0,57,58
 131 784 131 784 131 729 c 0,27,28
EndSplineSet
EndChar

StartChar: yen
Encoding: 165 165 103
Width: 761
GlyphClass: 2
Flags: W
LayerCount: 2
Fore
SplineSet
43 1458 m 1,0,-1
 197 1458 l 1,1,-1
 358 858 l 1,2,-1
 403 858 l 1,3,-1
 565 1458 l 1,4,-1
 719 1458 l 1,5,-1
 477 696 l 1,6,-1
 688 696 l 1,7,-1
 688 608 l 1,8,-1
 453 608 l 1,9,-1
 453 453 l 1,10,-1
 688 453 l 1,11,-1
 688 365 l 1,12,-1
 455 365 l 1,13,-1
 455 0 l 1,14,-1
 309 0 l 1,15,-1
 309 365 l 1,16,-1
 74 365 l 1,17,-1
 74 453 l 1,18,-1
 309 453 l 1,19,-1
 309 608 l 1,20,-1
 74 608 l 1,21,-1
 74 696 l 1,22,-1
 285 696 l 1,23,-1
 43 1458 l 1,0,-1
EndSplineSet
EndChar

StartChar: brokenbar
Encoding: 166 166 104
Width: 380
GlyphClass: 2
Flags: W
LayerCount: 2
Fore
SplineSet
170 -12 m 1,0,-1
 170 518 l 1,1,-1
 285 518 l 1,2,-1
 285 -12 l 1,3,-1
 170 -12 l 1,0,-1
170 940 m 1,4,-1
 170 1470 l 1,5,-1
 285 1470 l 1,6,-1
 285 940 l 1,7,-1
 170 940 l 1,4,-1
EndSplineSet
EndChar

StartChar: section
Encoding: 167 167 105
Width: 757
GlyphClass: 2
Flags: W
LayerCount: 2
Fore
SplineSet
92 530 m 0,0,1
 92 615 92 615 100 676 c 0,2,3
 107 732 107 732 134 771 c 0,4,5
 160 810 160 810 205 835 c 0,6,7
 251 861 251 861 324 885 c 1,8,9
 252 922 252 922 218 949 c 0,10,11
 181 979 181 979 161 1011 c 128,-1,12
 141 1043 141 1043 137 1081 c 0,13,14
 133 1116 133 1116 133 1174 c 0,15,16
 133 1251 133 1251 154 1308 c 128,-1,17
 175 1365 175 1365 210 1400 c 128,-1,18
 245 1435 245 1435 292 1453 c 0,19,20
 336 1470 336 1470 389 1470 c 0,21,22
 435 1470 435 1470 480 1454 c 0,23,24
 527 1437 527 1437 561 1405 c 0,25,26
 596 1372 596 1372 618 1323 c 0,27,28
 641 1272 641 1272 641 1208 c 2,29,-1
 641 1137 l 1,30,-1
 518 1137 l 1,31,-1
 518 1200 l 2,32,33
 518 1225 518 1225 510 1254 c 0,34,35
 503 1281 503 1281 486 1304 c 0,36,37
 473 1322 473 1322 446 1339 c 0,38,39
 422 1354 422 1354 389 1354 c 0,40,41
 350 1354 350 1354 322 1337 c 0,42,43
 297 1321 297 1321 281 1295 c 0,44,45
 265 1268 265 1268 261 1238 c 0,46,47
 256 1203 256 1203 256 1176 c 0,48,49
 256 1134 256 1134 259 1107 c 0,50,51
 262 1078 262 1078 273 1059 c 0,52,53
 285 1038 285 1038 306 1020 c 0,54,55
 330 999 330 999 365 977 c 2,56,-1
 563 844 l 2,57,58
 593 823 593 823 615 800 c 0,59,60
 633 781 633 781 646 745 c 0,61,62
 657 714 657 714 662 663 c 0,63,64
 666 619 666 619 666 530 c 0,65,66
 666 471 666 471 660 407 c 0,67,68
 655 358 655 358 635 323 c 0,69,70
 613 286 613 286 571 258 c 0,71,72
 528 230 528 230 453 193 c 1,73,74
 510 163 510 163 556 130 c 0,75,76
 593 103 593 103 612 72 c 0,77,78
 632 39 632 39 636 -1 c 0,79,80
 641 -48 641 -48 641 -104 c 0,81,82
 641 -281 641 -281 573 -357 c 0,83,84
 506 -432 506 -432 381 -432 c 0,85,86
 303 -432 303 -432 254 -406 c 0,87,88
 203 -379 203 -379 171 -338 c 0,89,90
 140 -298 140 -298 126 -249 c 0,91,92
 113 -203 113 -203 113 -158 c 2,93,-1
 113 -94 l 1,94,-1
 236 -94 l 1,95,-1
 236 -156 l 2,96,97
 236 -220 236 -220 273 -267 c 0,98,99
 310 -315 310 -315 375 -315 c 0,100,101
 454 -315 454 -315 486 -264 c 0,102,103
 518 -212 518 -212 518 -125 c 0,104,105
 518 -84 518 -84 515 -55 c 0,106,107
 512 -27 512 -27 503 -6 c 128,-1,108
 494 15 494 15 479 30 c 0,109,110
 466 43 466 43 440 61 c 2,111,-1
 199 213 l 2,112,113
 163 234 163 234 141 260 c 0,114,115
 124 280 124 280 110 321 c 0,116,117
 98 357 98 357 95 407 c 0,118,119
 92 456 92 456 92 530 c 0,0,1
250 434 m 2,120,121
 250 378 250 378 287 338 c 0,122,123
 325 297 325 297 379 297 c 0,124,125
 431 297 431 297 469 338 c 0,126,127
 506 378 506 378 506 434 c 2,128,-1
 508 643 l 2,129,130
 508 698 508 698 470 739 c 128,-1,131
 432 780 432 780 379 780 c 0,132,133
 325 780 325 780 287 739 c 0,134,135
 250 699 250 699 250 643 c 2,136,-1
 250 434 l 2,120,121
EndSplineSet
EndChar

StartChar: dieresis
Encoding: 168 168 106
Width: 1648
GlyphClass: 2
Flags: W
LayerCount: 2
Fore
SplineSet
199 1473 m 1,0,-1
 199 1618 l 1,1,-1
 344 1618 l 1,2,-1
 344 1473 l 1,3,-1
 199 1473 l 1,0,-1
489 1473 m 1,4,-1
 489 1618 l 1,5,-1
 635 1618 l 1,6,-1
 635 1473 l 1,7,-1
 489 1473 l 1,4,-1
EndSplineSet
EndChar

StartChar: copyright
Encoding: 169 169 107
Width: 1638
GlyphClass: 2
Flags: W
LayerCount: 2
Fore
SplineSet
102 729 m 128,-1,1
 102 883 102 883 159 1018 c 0,2,3
 217 1155 217 1155 312 1253 c 0,4,5
 409 1353 409 1353 541 1412 c 0,6,7
 670 1470 670 1470 819 1470 c 0,8,9
 969 1470 969 1470 1098 1412 c 0,10,11
 1228 1354 1228 1354 1326 1253 c 0,12,13
 1423 1153 1423 1153 1480 1018 c 0,14,15
 1536 885 1536 885 1536 729 c 128,-1,16
 1536 573 1536 573 1480 440 c 0,17,18
 1423 305 1423 305 1326 205 c 0,19,20
 1228 104 1228 104 1098 46 c 0,21,22
 969 -12 969 -12 819 -12 c 0,23,24
 670 -12 670 -12 541 46 c 0,25,26
 409 105 409 105 312 205 c 0,27,28
 217 303 217 303 159 440 c 0,29,0
 102 575 102 575 102 729 c 128,-1,1
199 729 m 128,-1,31
 199 592 199 592 248 475 c 0,32,33
 299 354 299 354 381 267 c 0,34,35
 465 178 465 178 578 127 c 0,36,37
 690 76 690 76 819 76 c 128,-1,38
 948 76 948 76 1061 127 c 0,39,40
 1173 178 1173 178 1256 267 c 0,41,42
 1340 357 1340 357 1389 475 c 128,-1,43
 1438 593 1438 593 1440 729 c 0,44,45
 1440 866 1440 866 1391 983 c 0,46,47
 1341 1102 1341 1102 1257 1191 c 0,48,49
 1172 1281 1172 1281 1061 1331 c 0,50,51
 949 1382 949 1382 819 1382 c 0,52,53
 690 1382 690 1382 578 1331 c 0,54,55
 465 1280 465 1280 381 1191 c 0,56,57
 299 1104 299 1104 248 983 c 0,58,30
 199 866 199 866 199 729 c 128,-1,31
432 729 m 128,-1,60
 432 824 432 824 460 911 c 0,61,62
 486 992 486 992 541 1055 c 0,63,64
 591 1112 591 1112 669 1148 c 0,65,66
 743 1182 743 1182 840 1182 c 0,67,68
 965 1182 965 1182 1058 1113 c 128,-1,69
 1151 1044 1151 1044 1178 913 c 1,70,-1
 1092 913 l 1,71,72
 1070 989 1070 989 1001 1043 c 0,73,74
 933 1096 933 1096 842 1096 c 0,75,76
 766 1096 766 1096 708 1066 c 0,77,78
 649 1036 649 1036 609 987 c 0,79,80
 571 940 571 940 549 872 c 0,81,82
 528 806 528 806 528 733 c 0,83,84
 528 665 528 665 551 598 c 0,85,86
 574 532 574 532 614 481 c 256,87,88
 654 430 654 430 714 398 c 0,89,90
 772 367 772 367 846 367 c 0,91,92
 939 367 939 367 1005 421 c 0,93,94
 1072 476 1072 476 1094 557 c 1,95,-1
 1176 557 l 1,96,97
 1143 429 1143 429 1054 353 c 0,98,99
 967 279 967 279 846 279 c 0,100,101
 751 279 751 279 676 313 c 0,102,103
 603 346 603 346 546 409 c 0,104,105
 492 469 492 469 462 551 c 0,106,59
 432 634 432 634 432 729 c 128,-1,60
EndSplineSet
EndChar

StartChar: ordfeminine
Encoding: 170 170 108
Width: 491
GlyphClass: 2
Flags: W
LayerCount: 2
Fore
SplineSet
53 987 m 0,0,1
 53 1094 53 1094 94 1144 c 128,-1,2
 135 1194 135 1194 250 1194 c 0,3,4
 271 1194 271 1194 283 1193 c 0,5,6
 339 1188 339 1188 342 1188 c 2,7,-1
 342 1272 l 2,8,9
 342 1315 342 1315 322 1346 c 0,10,11
 302 1378 302 1378 248 1378 c 0,12,13
 218 1378 218 1378 191 1363 c 128,-1,14
 164 1348 164 1348 152 1311 c 1,15,-1
 66 1311 l 1,16,17
 78 1385 78 1385 125 1428 c 0,18,19
 172 1470 172 1470 248 1470 c 256,20,21
 324 1470 324 1470 382 1423 c 0,22,23
 438 1377 438 1377 438 1284 c 2,24,-1
 438 840 l 1,25,-1
 342 840 l 1,26,-1
 342 909 l 1,27,-1
 299 909 l 1,28,29
 272 870 272 870 246 849 c 0,30,31
 223 831 223 831 182 831 c 0,32,33
 165 831 165 831 139 838 c 0,34,35
 116 844 116 844 97 860 c 0,36,37
 79 876 79 876 66 907 c 0,38,39
 53 940 53 940 53 987 c 0,0,1
150 1012 m 0,40,41
 150 968 150 968 175 944 c 0,42,43
 201 920 201 920 242 920 c 0,44,45
 288 920 288 920 314 949 c 0,46,47
 342 980 342 980 342 1022 c 2,48,-1
 342 1128 l 1,49,50
 334 1129 334 1129 319.5 1131.5 c 128,-1,51
 305 1134 305 1134 300 1135 c 0,52,53
 282 1137 282 1137 279 1137 c 0,54,55
 227 1137 227 1137 188 1110 c 0,56,57
 150 1084 150 1084 150 1012 c 0,40,41
EndSplineSet
EndChar

StartChar: guillemotleft
Encoding: 171 171 109
Width: 872
GlyphClass: 2
Flags: W
LayerCount: 2
Fore
SplineSet
57 567 m 1,0,-1
 412 942 l 1,1,-1
 412 797 l 1,2,-1
 193 567 l 1,3,-1
 410 338 l 1,4,-1
 410 193 l 1,5,-1
 57 567 l 1,0,-1
436 567 m 1,6,-1
 791 942 l 1,7,-1
 791 797 l 1,8,-1
 571 567 l 1,9,-1
 791 338 l 1,10,-1
 791 193 l 1,11,-1
 436 567 l 1,6,-1
EndSplineSet
EndChar

StartChar: logicalnot
Encoding: 172 172 110
Width: 1228
GlyphClass: 2
Flags: W
LayerCount: 2
Fore
SplineSet
121 680 m 1,0,-1
 121 805 l 1,1,-1
 1108 805 l 1,2,-1
 1108 231 l 1,3,-1
 995 231 l 1,4,-1
 995 680 l 1,5,-1
 121 680 l 1,0,-1
EndSplineSet
EndChar

StartChar: uni00AD
Encoding: 173 173 111
Width: 827
GlyphClass: 2
Flags: W
LayerCount: 2
Fore
SplineSet
96 559 m 1,0,-1
 96 725 l 1,1,-1
 729 725 l 1,2,-1
 729 559 l 1,3,-1
 96 559 l 1,0,-1
EndSplineSet
EndChar

StartChar: registered
Encoding: 174 174 112
Width: 1638
GlyphClass: 2
Flags: W
LayerCount: 2
Fore
SplineSet
102 729 m 128,-1,1
 102 883 102 883 159 1018 c 0,2,3
 217 1155 217 1155 312 1253 c 0,4,5
 409 1353 409 1353 541 1412 c 0,6,7
 670 1470 670 1470 819 1470 c 0,8,9
 969 1470 969 1470 1098 1412 c 0,10,11
 1228 1354 1228 1354 1326 1253 c 0,12,13
 1423 1153 1423 1153 1480 1018 c 0,14,15
 1536 885 1536 885 1536 729 c 128,-1,16
 1536 573 1536 573 1480 440 c 0,17,18
 1423 305 1423 305 1326 205 c 0,19,20
 1228 104 1228 104 1098 46 c 0,21,22
 969 -12 969 -12 819 -12 c 0,23,24
 670 -12 670 -12 541 46 c 0,25,26
 409 105 409 105 312 205 c 0,27,28
 217 303 217 303 159 440 c 0,29,0
 102 575 102 575 102 729 c 128,-1,1
199 729 m 128,-1,31
 199 592 199 592 248 475 c 0,32,33
 299 354 299 354 381 267 c 0,34,35
 465 178 465 178 578 127 c 0,36,37
 690 76 690 76 819 76 c 128,-1,38
 948 76 948 76 1061 127 c 0,39,40
 1173 178 1173 178 1256 267 c 0,41,42
 1340 357 1340 357 1389 475 c 128,-1,43
 1438 593 1438 593 1440 729 c 0,44,45
 1440 866 1440 866 1391 983 c 0,46,47
 1341 1102 1341 1102 1257 1191 c 0,48,49
 1172 1281 1172 1281 1061 1331 c 0,50,51
 949 1382 949 1382 819 1382 c 0,52,53
 690 1382 690 1382 578 1331 c 0,54,55
 465 1280 465 1280 381 1191 c 0,56,57
 299 1104 299 1104 248 983 c 0,58,30
 199 866 199 866 199 729 c 128,-1,31
563 307 m 1,59,-1
 563 1151 l 1,60,-1
 866 1151 l 2,61,62
 1008 1151 1008 1151 1073 1096 c 0,63,64
 1139 1041 1139 1041 1139 924 c 0,65,66
 1139 811 1139 811 1077 761 c 0,67,68
 1014 710 1014 710 899 694 c 1,69,-1
 1143 307 l 1,70,-1
 1040 307 l 1,71,-1
 793 696 l 1,72,-1
 649 696 l 1,73,-1
 649 307 l 1,74,-1
 563 307 l 1,59,-1
647 770 m 1,75,-1
 827 770 l 2,76,77
 928 770 928 770 992 805 c 0,78,79
 1055 840 1055 840 1055 930 c 0,80,81
 1055 967 1055 967 1039 997 c 0,82,83
 1024 1025 1024 1025 998 1042 c 0,84,85
 970 1060 970 1060 940 1067 c 0,86,87
 905 1075 905 1075 870 1075 c 2,88,-1
 647 1075 l 1,89,-1
 647 770 l 1,75,-1
EndSplineSet
EndChar

StartChar: macron
Encoding: 175 175 113
Width: 380
GlyphClass: 2
Flags: W
LayerCount: 2
Fore
SplineSet
-66 1243 m 1,0,-1
 -66 1366 l 1,1,-1
 446 1366 l 1,2,-1
 446 1243 l 1,3,-1
 -66 1243 l 1,0,-1
EndSplineSet
EndChar

StartChar: degree
Encoding: 176 176 114
Width: 532
GlyphClass: 2
Flags: W
LayerCount: 2
Fore
SplineSet
61 1456 m 128,-1,1
 61 1502 61 1502 77 1547 c 0,2,3
 92 1589 92 1589 120 1620 c 0,4,5
 147 1650 147 1650 185 1668 c 0,6,7
 222 1686 222 1686 266 1686 c 0,8,9
 308 1686 308 1686 346 1668 c 128,-1,10
 384 1650 384 1650 411 1620 c 128,-1,11
 438 1590 438 1590 455 1547 c 0,12,13
 471 1506 471 1506 471 1456 c 0,14,15
 471 1408 471 1408 455 1367 c 0,16,17
 438 1324 438 1324 411 1294 c 0,18,19
 383 1263 383 1263 346 1245 c 0,20,21
 308 1227 308 1227 266 1227 c 128,-1,22
 224 1227 224 1227 186 1245 c 0,23,24
 151 1262 151 1262 122 1294 c 0,25,26
 95 1324 95 1324 78 1367 c 128,-1,0
 61 1410 61 1410 61 1456 c 128,-1,1
115 1456 m 0,27,28
 115 1387 115 1387 159 1337 c 0,29,30
 202 1288 202 1288 266 1288 c 128,-1,31
 330 1288 330 1288 373 1337 c 128,-1,32
 416 1386 416 1386 418 1456 c 0,33,34
 418 1527 418 1527 374 1576 c 0,35,36
 330 1624 330 1624 266 1624 c 128,-1,37
 202 1624 202 1624 159 1576 c 0,38,39
 115 1527 115 1527 115 1456 c 0,27,28
EndSplineSet
EndChar

StartChar: plusminus
Encoding: 177 177 115
Width: 1228
GlyphClass: 2
Flags: W
LayerCount: 2
Fore
SplineSet
121 0 m 1,0,-1
 121 119 l 1,1,-1
 1108 119 l 1,2,-1
 1108 0 l 1,3,-1
 121 0 l 1,0,-1
121 571 m 1,4,-1
 121 690 l 1,5,-1
 557 690 l 1,6,-1
 557 1036 l 1,7,-1
 670 1036 l 1,8,-1
 670 690 l 1,9,-1
 1108 690 l 1,10,-1
 1108 571 l 1,11,-1
 672 571 l 1,12,-1
 672 223 l 1,13,-1
 559 223 l 1,14,-1
 559 571 l 1,15,-1
 121 571 l 1,4,-1
EndSplineSet
EndChar

StartChar: uni00B2
Encoding: 178 178 116
Width: 380
GlyphClass: 2
Flags: W
LayerCount: 2
Fore
SplineSet
47 588 m 1,0,-1
 47 672 l 1,1,-1
 307 1124 l 2,2,3
 322 1153 322 1153 328 1171 c 0,4,5
 336 1197 336 1197 336 1223 c 2,6,-1
 336 1274 l 2,7,8
 336 1320 336 1320 305 1345 c 0,9,10
 276 1368 276 1368 246 1368 c 0,11,12
 210 1368 210 1368 186 1342 c 128,-1,13
 162 1316 162 1316 162 1274 c 2,14,-1
 162 1233 l 1,15,-1
 47 1233 l 1,16,-1
 47 1284 l 2,17,18
 47 1362 47 1362 104 1416 c 128,-1,19
 161 1470 161 1470 248 1470 c 128,-1,20
 335 1470 335 1470 391 1421 c 0,21,22
 449 1371 449 1371 449 1300 c 2,23,-1
 449 1229 l 2,24,25
 449 1175 449 1175 437 1145 c 0,26,27
 423 1109 423 1109 403 1079 c 2,28,-1
 186 690 l 1,29,-1
 449 690 l 1,30,-1
 449 588 l 1,31,-1
 47 588 l 1,0,-1
EndSplineSet
EndChar

StartChar: uni00B3
Encoding: 179 179 117
Width: 380
GlyphClass: 2
Flags: W
LayerCount: 2
Fore
SplineSet
47 758 m 2,0,-1
 47 805 l 1,1,-1
 160 805 l 1,2,-1
 160 780 l 2,3,4
 160 738 160 738 183 711 c 0,5,6
 207 682 207 682 248 682 c 0,7,8
 287 682 287 682 311 711 c 0,9,10
 336 741 336 741 336 774 c 2,11,-1
 336 887 l 2,12,13
 336 947 336 947 310 968 c 0,14,15
 285 988 285 988 229 993 c 1,16,-1
 229 1085 l 1,17,18
 280 1087 280 1087 308 1108 c 0,19,20
 336 1130 336 1130 336 1184 c 2,21,-1
 336 1276 l 2,22,23
 336 1313 336 1313 311 1341 c 0,24,25
 287 1368 287 1368 248 1368 c 0,26,27
 200 1368 200 1368 181 1335 c 0,28,29
 162 1303 162 1303 162 1276 c 2,30,-1
 162 1245 l 1,31,-1
 47 1245 l 1,32,-1
 47 1288 l 2,33,34
 47 1366 47 1366 102 1418 c 128,-1,35
 157 1470 157 1470 252 1470 c 0,36,37
 304 1470 304 1470 340 1454 c 0,38,39
 377 1438 377 1438 401 1411 c 128,-1,40
 425 1384 425 1384 437 1350 c 0,41,42
 449 1315 449 1315 449 1280 c 2,43,-1
 449 1192 l 2,44,45
 449 1177 449 1177 445 1153 c 0,46,47
 442 1133 442 1133 431 1117 c 0,48,49
 419 1099 419 1099 398 1081 c 128,-1,50
 377 1063 377 1063 338 1042 c 1,51,52
 411 997 411 997 429 964 c 0,53,54
 449 929 449 929 449 883 c 2,55,-1
 449 772 l 2,56,57
 449 736 449 736 437 702 c 0,58,59
 425 667 425 667 401 640 c 128,-1,60
 377 613 377 613 339 596 c 0,61,62
 303 580 303 580 248 580 c 0,63,64
 167 580 167 580 108 620 c 0,65,66
 47 661 47 661 47 758 c 2,0,-1
EndSplineSet
EndChar

StartChar: acute
Encoding: 180 180 118
Width: 441
GlyphClass: 2
Flags: W
LayerCount: 2
Fore
SplineSet
153 1273 m 1,0,-1
 153 1407 l 1,1,-1
 153 1639 l 1,2,-1
 287 1639 l 1,3,-1
 287 1368 l 1,4,-1
 287 1272 l 1,5,-1
 153 1273 l 1,0,-1
EndSplineSet
EndChar

StartChar: paragraph
Encoding: 182 182 119
Width: 909
GlyphClass: 2
Flags: W
LayerCount: 2
Fore
SplineSet
41 1079 m 0,0,1
 41 1271 41 1271 156 1365 c 0,2,3
 270 1458 270 1458 463 1458 c 2,4,-1
 791 1458 l 1,5,-1
 791 -420 l 1,6,-1
 694 -420 l 1,7,-1
 694 1403 l 1,8,-1
 496 1403 l 1,9,-1
 496 -420 l 1,10,-1
 399 -420 l 1,11,-1
 399 715 l 1,12,13
 328 715 328 715 263 742 c 0,14,15
 201 768 201 768 150 819 c 0,16,17
 102 867 102 867 71 935 c 0,18,19
 41 1001 41 1001 41 1079 c 0,0,1
EndSplineSet
EndChar

StartChar: periodcentered
Encoding: 183 183 120
Width: 380
GlyphClass: 2
Flags: W
LayerCount: 2
Fore
SplineSet
84 610 m 128,-1,1
 84 665 84 665 116 703 c 128,-1,2
 148 741 148 741 190 741 c 0,3,4
 233 741 233 741 265 703 c 128,-1,5
 297 665 297 665 297 610 c 128,-1,6
 297 555 297 555 265 517 c 128,-1,7
 233 479 233 479 190 479 c 0,8,9
 148 479 148 479 116 517 c 128,-1,0
 84 555 84 555 84 610 c 128,-1,1
EndSplineSet
EndChar

StartChar: cedilla
Encoding: 184 184 121
Width: 1648
GlyphClass: 2
Flags: W
LayerCount: 2
Fore
SplineSet
98 -184 m 1,0,-1
 127 0 l 1,1,-1
 195 0 l 1,2,-1
 195 -184 l 1,3,-1
 98 -184 l 1,0,-1
EndSplineSet
EndChar

StartChar: uni00B9
Encoding: 185 185 122
Width: 380
GlyphClass: 2
Flags: W
LayerCount: 2
Fore
SplineSet
80 1284 m 1,0,-1
 80 1376 l 1,1,-1
 199 1458 l 1,2,-1
 330 1458 l 1,3,-1
 330 588 l 1,4,-1
 217 588 l 1,5,-1
 217 1378 l 1,6,-1
 80 1284 l 1,0,-1
EndSplineSet
EndChar

StartChar: ordmasculine
Encoding: 186 186 123
Width: 491
GlyphClass: 2
Flags: W
LayerCount: 2
Fore
SplineSet
61 1024 m 2,0,-1
 61 1278 l 2,1,2
 61 1364 61 1364 111 1417 c 128,-1,3
 161 1470 161 1470 246 1470 c 128,-1,4
 331 1470 331 1470 381 1417 c 0,5,6
 430 1365 430 1365 430 1278 c 2,7,-1
 430 1024 l 2,8,9
 430 937 430 937 381 885 c 0,10,11
 330 831 330 831 246 831 c 128,-1,12
 162 831 162 831 111 885 c 0,13,14
 61 938 61 938 61 1024 c 2,0,-1
158 1026 m 2,15,16
 158 979 158 979 181 952 c 0,17,18
 205 924 205 924 246 924 c 128,-1,19
 287 924 287 924 309 952 c 0,20,21
 332 981 332 981 332 1026 c 2,22,-1
 334 1274 l 2,23,24
 334 1321 334 1321 311 1350 c 0,25,26
 289 1378 289 1378 246 1378 c 0,27,28
 202 1378 202 1378 180 1350 c 128,-1,29
 158 1322 158 1322 158 1274 c 2,30,-1
 158 1026 l 2,15,16
EndSplineSet
EndChar

StartChar: guillemotright
Encoding: 187 187 124
Width: 872
GlyphClass: 2
Flags: W
LayerCount: 2
Fore
SplineSet
82 193 m 1,0,-1
 82 338 l 1,1,-1
 301 567 l 1,2,-1
 82 797 l 1,3,-1
 82 942 l 1,4,-1
 436 567 l 1,5,-1
 82 193 l 1,0,-1
461 193 m 1,6,-1
 461 338 l 1,7,-1
 680 567 l 1,8,-1
 461 797 l 1,9,-1
 461 942 l 1,10,-1
 815 567 l 1,11,-1
 461 193 l 1,6,-1
EndSplineSet
EndChar

StartChar: onequarter
Encoding: 188 188 125
Width: 380
GlyphClass: 2
Flags: W
LayerCount: 2
Fore
SplineSet
47 1288 m 1,0,-1
 47 1378 l 1,1,-1
 166 1456 l 1,2,-1
 297 1456 l 1,3,-1
 297 608 l 1,4,-1
 184 608 l 1,5,-1
 184 1380 l 1,6,-1
 47 1288 l 1,0,-1
82 -35 m 1,7,-1
 946 1493 l 1,8,-1
 1010 1493 l 1,9,-1
 145 -35 l 1,10,-1
 82 -35 l 1,7,-1
621 133 m 1,11,-1
 621 233 l 1,12,-1
 815 854 l 1,13,-1
 926 854 l 1,14,-1
 733 219 l 1,15,-1
 913 219 l 1,16,-1
 913 463 l 1,17,-1
 1026 463 l 1,18,-1
 1026 219 l 1,19,-1
 1090 219 l 1,20,-1
 1090 133 l 1,21,-1
 1028 133 l 1,22,-1
 1028 2 l 1,23,-1
 915 2 l 1,24,-1
 915 133 l 1,25,-1
 621 133 l 1,11,-1
EndSplineSet
EndChar

StartChar: onehalf
Encoding: 189 189 126
Width: 380
GlyphClass: 2
Flags: W
LayerCount: 2
Fore
SplineSet
47 1288 m 1,0,-1
 47 1378 l 1,1,-1
 166 1456 l 1,2,-1
 297 1456 l 1,3,-1
 297 608 l 1,4,-1
 184 608 l 1,5,-1
 184 1380 l 1,6,-1
 47 1288 l 1,0,-1
82 2 m 1,7,-1
 946 1493 l 1,8,-1
 1010 1493 l 1,9,-1
 145 -35 l 1,10,-1
 82 2 l 1,7,-1
684 2 m 1,11,-1
 684 82 l 1,12,-1
 948 524 l 2,13,14
 964 554 964 554 969 570 c 0,15,16
 977 596 977 596 977 621 c 2,17,-1
 977 670 l 2,18,19
 977 713 977 713 946 738 c 0,20,21
 916 762 916 762 887 762 c 0,22,23
 852 762 852 762 825 738 c 0,24,25
 799 715 799 715 799 670 c 2,26,-1
 799 631 l 1,27,-1
 684 631 l 1,28,-1
 684 680 l 2,29,30
 684 758 684 758 740 810 c 128,-1,31
 796 862 796 862 889 862 c 0,32,33
 975 862 975 862 1032 814 c 0,34,35
 1090 765 1090 765 1090 694 c 2,36,-1
 1090 625 l 2,37,38
 1090 574 1090 574 1078 544 c 0,39,40
 1065 511 1065 511 1044 479 c 2,41,-1
 827 100 l 1,42,-1
 1090 100 l 1,43,-1
 1090 2 l 1,44,-1
 684 2 l 1,11,-1
EndSplineSet
EndChar

StartChar: threequarters
Encoding: 190 190 127
Width: 380
GlyphClass: 2
Flags: W
LayerCount: 2
Fore
SplineSet
47 774 m 2,0,-1
 47 819 l 1,1,-1
 160 819 l 1,2,-1
 160 797 l 2,3,4
 160 754 160 754 183 728 c 0,5,6
 208 700 208 700 248 700 c 0,7,8
 286 700 286 700 311 728 c 128,-1,9
 336 756 336 756 336 791 c 2,10,-1
 336 901 l 2,11,12
 336 959 336 959 310 980 c 0,13,14
 284 1002 284 1002 229 1006 c 1,15,-1
 229 1094 l 1,16,17
 281 1096 281 1096 308 1115 c 0,18,19
 336 1135 336 1135 336 1190 c 2,20,-1
 336 1280 l 2,21,22
 336 1315 336 1315 311 1343 c 0,23,24
 287 1370 287 1370 248 1370 c 0,25,26
 201 1370 201 1370 181 1338 c 0,27,28
 162 1307 162 1307 162 1280 c 2,29,-1
 162 1251 l 1,30,-1
 47 1251 l 1,31,-1
 47 1292 l 2,32,33
 47 1368 47 1368 102 1419 c 0,34,35
 158 1470 158 1470 252 1470 c 0,36,37
 304 1470 304 1470 340 1454 c 0,38,39
 377 1438 377 1438 401 1411 c 0,40,41
 426 1383 426 1383 437 1351 c 0,42,43
 449 1316 449 1316 449 1284 c 2,44,-1
 449 1198 l 2,45,46
 449 1184 449 1184 445 1160 c 0,47,48
 442 1141 442 1141 431 1125 c 0,49,50
 422 1112 422 1112 398 1091 c 0,51,52
 380 1076 380 1076 338 1053 c 1,53,54
 409 1008 409 1008 429 975 c 0,55,56
 449 941 449 941 449 897 c 2,57,-1
 449 788 l 2,58,59
 449 754 449 754 437 720 c 128,-1,60
 425 686 425 686 401 659 c 0,61,62
 378 633 378 633 339 616 c 0,63,64
 303 600 303 600 248 600 c 0,65,66
 207 600 207 600 171 609 c 128,-1,67
 135 618 135 618 108 639 c 0,68,69
 77 663 77 663 63 693 c 0,70,71
 47 726 47 726 47 774 c 2,0,-1
121 -35 m 1,72,-1
 985 1493 l 1,73,-1
 1049 1493 l 1,74,-1
 184 -35 l 1,75,-1
 121 -35 l 1,72,-1
621 133 m 1,76,-1
 621 233 l 1,77,-1
 815 854 l 1,78,-1
 926 854 l 1,79,-1
 733 219 l 1,80,-1
 913 219 l 1,81,-1
 913 463 l 1,82,-1
 1026 463 l 1,83,-1
 1026 219 l 1,84,-1
 1090 219 l 1,85,-1
 1090 133 l 1,86,-1
 1028 133 l 1,87,-1
 1028 2 l 1,88,-1
 915 2 l 1,89,-1
 915 133 l 1,90,-1
 621 133 l 1,76,-1
EndSplineSet
EndChar

StartChar: questiondown
Encoding: 191 191 128
Width: 757
GlyphClass: 2
Flags: W
LayerCount: 2
Fore
SplineSet
90 -78 m 0,0,1
 90 -38 90 -38 92 12 c 0,2,3
 93 43 93 43 97 75 c 0,4,5
 100 100 100 100 106 118 c 0,6,7
 108 124 108 124 121 150 c 2,8,-1
 262 399 l 2,9,10
 272 417 272 417 288 457 c 0,11,12
 299 484 299 484 299 522 c 2,13,-1
 299 666 l 1,14,-1
 459 666 l 1,15,-1
 459 494 l 2,16,17
 461 452 461 452 446 414 c 0,18,19
 428 367 428 367 410 336 c 2,20,-1
 279 115 l 2,21,22
 260 83 260 83 254 48 c 0,23,24
 248 12 248 12 248 -20 c 2,25,-1
 248 -133 l 2,26,27
 248 -187 248 -187 286 -228 c 0,28,29
 323 -268 323 -268 377 -268 c 0,30,31
 421 -268 421 -268 465 -233 c 0,32,33
 508 -199 508 -199 508 -133 c 2,34,-1
 508 -37 l 1,35,-1
 668 -37 l 1,36,-1
 668 -135 l 2,37,38
 668 -196 668 -196 645 -251 c 128,-1,39
 622 -306 622 -306 583 -345 c 128,-1,40
 544 -384 544 -384 489 -409 c 0,41,42
 439 -432 439 -432 377 -432 c 0,43,44
 248 -432 248 -432 169 -342 c 0,45,46
 90 -253 90 -253 90 -78 c 0,0,1
299 874 m 1,47,-1
 299 1038 l 1,48,-1
 459 1038 l 1,49,-1
 459 874 l 1,50,-1
 299 874 l 1,47,-1
EndSplineSet
EndChar

StartChar: Agrave
Encoding: 192 192 129
Width: 913
GlyphClass: 2
Flags: W
LayerCount: 2
Fore
SplineSet
98 0 m 1,0,-1
 375 1458 l 1,1,-1
 541 1458 l 1,2,-1
 817 0 l 1,3,-1
 649 0 l 1,4,-1
 590 305 l 1,5,-1
 324 305 l 1,6,-1
 266 0 l 1,7,-1
 98 0 l 1,0,-1
317 1763 m 1,8,-1
 420 1866 l 1,9,-1
 616 1669 l 1,10,-1
 545 1597 l 1,11,-1
 317 1763 l 1,8,-1
354 471 m 1,12,-1
 559 471 l 1,13,-1
 457 1008 l 1,14,-1
 354 471 l 1,12,-1
EndSplineSet
EndChar

StartChar: Aacute
Encoding: 193 193 130
Width: 913
GlyphClass: 2
Flags: W
LayerCount: 2
Fore
SplineSet
98 0 m 1,0,-1
 375 1458 l 1,1,-1
 541 1458 l 1,2,-1
 817 0 l 1,3,-1
 649 0 l 1,4,-1
 590 305 l 1,5,-1
 324 305 l 1,6,-1
 266 0 l 1,7,-1
 98 0 l 1,0,-1
319 1681 m 1,8,-1
 516 1878 l 1,9,-1
 618 1776 l 1,10,-1
 391 1610 l 1,11,-1
 319 1681 l 1,8,-1
354 471 m 1,12,-1
 559 471 l 1,13,-1
 457 1008 l 1,14,-1
 354 471 l 1,12,-1
EndSplineSet
EndChar

StartChar: Acircumflex
Encoding: 194 194 131
Width: 913
GlyphClass: 2
Flags: W
LayerCount: 2
Fore
SplineSet
98 0 m 1,0,-1
 375 1458 l 1,1,-1
 541 1458 l 1,2,-1
 817 0 l 1,3,-1
 649 0 l 1,4,-1
 590 305 l 1,5,-1
 324 305 l 1,6,-1
 266 0 l 1,7,-1
 98 0 l 1,0,-1
217 1661 m 1,8,-1
 465 1909 l 1,9,-1
 713 1661 l 1,10,-1
 651 1599 l 1,11,-1
 465 1784 l 1,12,-1
 279 1599 l 1,13,-1
 217 1661 l 1,8,-1
354 471 m 1,14,-1
 559 471 l 1,15,-1
 457 1008 l 1,16,-1
 354 471 l 1,14,-1
EndSplineSet
EndChar

StartChar: Atilde
Encoding: 195 195 132
Width: 913
GlyphClass: 2
Flags: W
LayerCount: 2
Fore
SplineSet
98 0 m 1,0,-1
 375 1458 l 1,1,-1
 541 1458 l 1,2,-1
 817 0 l 1,3,-1
 649 0 l 1,4,-1
 590 305 l 1,5,-1
 324 305 l 1,6,-1
 266 0 l 1,7,-1
 98 0 l 1,0,-1
135 1542 m 1,8,9
 156 1648 156 1648 196 1707 c 0,10,11
 237 1767 237 1767 311 1767 c 0,12,13
 324 1767 324 1767 350 1759 c 0,14,15
 380 1750 380 1750 407 1738 c 2,16,-1
 473 1709 l 2,17,18
 515 1691 515 1691 543 1681 c 2,19,-1
 577 1669 l 2,20,21
 595 1663 595 1663 606 1663 c 0,22,23
 656 1663 656 1663 683 1697 c 0,24,25
 712 1734 712 1734 719 1780 c 1,26,-1
 770 1780 l 1,27,28
 748 1672 748 1672 710 1615 c 0,29,30
 669 1554 669 1554 594 1554 c 0,31,32
 577 1554 577 1554 537 1571 c 2,33,-1
 454 1607 l 2,34,35
 425 1620 425 1620 367 1642 c 0,36,37
 322 1659 322 1659 299 1659 c 0,38,39
 249 1659 249 1659 222 1625 c 0,40,41
 193 1588 193 1588 186 1542 c 1,42,-1
 135 1542 l 1,8,9
354 471 m 1,43,-1
 559 471 l 1,44,-1
 457 1008 l 1,45,-1
 354 471 l 1,43,-1
EndSplineSet
EndChar

StartChar: Adieresis
Encoding: 196 196 133
Width: 913
GlyphClass: 2
Flags: W
LayerCount: 2
Fore
SplineSet
98 0 m 1,0,-1
 375 1458 l 1,1,-1
 541 1458 l 1,2,-1
 817 0 l 1,3,-1
 649 0 l 1,4,-1
 590 305 l 1,5,-1
 324 305 l 1,6,-1
 266 0 l 1,7,-1
 98 0 l 1,0,-1
240 1599 m 1,8,-1
 240 1745 l 1,9,-1
 385 1745 l 1,10,-1
 385 1599 l 1,11,-1
 240 1599 l 1,8,-1
354 471 m 1,12,-1
 559 471 l 1,13,-1
 457 1008 l 1,14,-1
 354 471 l 1,12,-1
530 1599 m 1,15,-1
 530 1745 l 1,16,-1
 676 1745 l 1,17,-1
 676 1599 l 1,18,-1
 530 1599 l 1,15,-1
EndSplineSet
EndChar

StartChar: Aring
Encoding: 197 197 134
Width: 913
GlyphClass: 2
Flags: W
LayerCount: 2
Fore
SplineSet
98 0 m 1,0,-1
 375 1458 l 1,1,-1
 541 1458 l 1,2,-1
 817 0 l 1,3,-1
 649 0 l 1,4,-1
 590 305 l 1,5,-1
 324 305 l 1,6,-1
 266 0 l 1,7,-1
 98 0 l 1,0,-1
272 1710 m 128,-1,9
 272 1754 272 1754 287 1791 c 0,10,11
 303 1831 303 1831 327 1858 c 0,12,13
 353 1887 353 1887 386 1903 c 128,-1,14
 419 1919 419 1919 457 1919 c 0,15,16
 494 1919 494 1919 527 1903 c 0,17,18
 562 1886 562 1886 587 1858 c 0,19,20
 611 1831 611 1831 627 1791 c 0,21,22
 641 1756 641 1756 641 1710 c 128,-1,23
 641 1664 641 1664 627 1629 c 0,24,25
 612 1590 612 1590 587 1563 c 0,26,27
 562 1534 562 1534 527 1518 c 0,28,29
 491 1501 491 1501 457 1501 c 0,30,31
 422 1501 422 1501 386 1518 c 0,32,33
 353 1534 353 1534 327 1563 c 0,34,35
 302 1590 302 1590 287 1629 c 0,36,8
 272 1666 272 1666 272 1710 c 128,-1,9
305 1710 m 128,-1,38
 305 1639 305 1639 349 1589 c 0,39,40
 392 1540 392 1540 457 1540 c 0,41,42
 520 1540 520 1540 563 1589 c 0,43,44
 607 1639 607 1639 608 1710 c 0,45,46
 608 1781 608 1781 564 1831 c 0,47,48
 521 1880 521 1880 457 1880 c 0,49,50
 392 1880 392 1880 349 1831 c 0,51,37
 305 1781 305 1781 305 1710 c 128,-1,38
354 471 m 1,52,-1
 559 471 l 1,53,-1
 457 1008 l 1,54,-1
 354 471 l 1,52,-1
EndSplineSet
EndChar

StartChar: AE
Encoding: 198 198 135
Width: 1251
GlyphClass: 2
Flags: W
LayerCount: 2
Fore
SplineSet
39 0 m 1,0,-1
 436 1458 l 1,1,-1
 1190 1458 l 1,2,-1
 1190 1307 l 1,3,-1
 774 1307 l 1,4,-1
 774 811 l 1,5,-1
 1137 811 l 1,6,-1
 1137 659 l 1,7,-1
 774 659 l 1,8,-1
 774 164 l 1,9,-1
 1190 164 l 1,10,-1
 1190 0 l 1,11,-1
 618 0 l 1,12,-1
 618 326 l 1,13,-1
 285 326 l 1,14,-1
 205 0 l 1,15,-1
 39 0 l 1,0,-1
322 475 m 1,16,-1
 618 475 l 1,17,-1
 618 1307 l 1,18,-1
 522 1307 l 1,19,-1
 322 475 l 1,16,-1
EndSplineSet
EndChar

StartChar: Ccedilla
Encoding: 199 199 136
Width: 667
GlyphClass: 2
Flags: W
LayerCount: 2
Fore
SplineSet
111 328 m 2,0,-1
 111 1151 l 2,1,2
 111 1220 111 1220 133 1277 c 0,3,4
 155 1333 155 1333 198 1378 c 0,5,6
 241 1422 241 1422 297 1446 c 0,7,8
 354 1470 354 1470 426 1470 c 0,9,10
 493 1470 493 1470 550 1446 c 0,11,12
 603 1424 603 1424 648 1377 c 0,13,14
 690 1334 690 1334 714 1273 c 0,15,16
 737 1216 737 1216 737 1139 c 2,17,-1
 737 1081 l 1,18,-1
 580 1081 l 1,19,-1
 580 1126 l 2,20,21
 580 1159 580 1159 569 1194 c 128,-1,22
 558 1229 558 1229 539 1252 c 0,23,24
 518 1278 518 1278 489 1293 c 0,25,26
 459 1309 459 1309 424 1309 c 0,27,28
 375 1309 375 1309 345 1291 c 0,29,30
 317 1274 317 1274 298 1246 c 0,31,32
 280 1219 280 1219 274 1183 c 128,-1,33
 268 1147 268 1147 268 1108 c 2,34,-1
 268 342 l 2,35,36
 268 309 268 309 276 274 c 0,37,38
 283 242 283 242 302 217 c 0,39,40
 322 191 322 191 349 177 c 0,41,42
 379 162 379 162 422 162 c 0,43,44
 447 162 447 162 474 171 c 128,-1,45
 501 180 501 180 525 201 c 0,46,47
 548 222 548 222 563 255 c 0,48,49
 578 290 578 290 578 340 c 2,50,-1
 578 387 l 1,51,-1
 737 387 l 1,52,-1
 737 322 l 2,53,54
 737 261 737 261 718 210 c 0,55,56
 698 156 698 156 665 116 c 0,57,58
 630 73 630 73 582 44 c 0,59,60
 533 14 533 14 475 2 c 1,61,-1
 346 -172 l 1,62,63
 423 -164 423 -164 427 -164 c 0,64,65
 455 -162 455 -162 465 -162 c 0,66,67
 510 -162 510 -162 539 -174 c 0,68,69
 567 -186 567 -186 584 -206 c 0,70,71
 599 -224 599 -224 607 -249 c 0,72,73
 614 -271 614 -271 614 -293 c 0,74,75
 614 -338 614 -338 594 -367 c 0,76,77
 573 -398 573 -398 542 -418 c 0,78,79
 512 -438 512 -438 469 -449 c 0,80,81
 430 -459 430 -459 387 -459 c 0,82,83
 340 -459 340 -459 300 -450 c 0,84,85
 262 -442 262 -442 229 -430 c 1,86,-1
 246 -389 l 1,87,88
 276 -400 276 -400 304 -407 c 128,-1,89
 332 -414 332 -414 365 -414 c 0,90,91
 383 -414 383 -414 404 -410 c 0,92,93
 431 -405 431 -405 450 -394 c 0,94,95
 472 -382 472 -382 486 -360 c 0,96,97
 502 -336 502 -336 502 -301 c 0,98,99
 502 -250 502 -250 463 -223 c 0,100,101
 425 -197 425 -197 383 -197 c 0,102,103
 371 -197 371 -197 347 -199 c 0,104,105
 331 -200 331 -200 311 -207 c 1,106,-1
 301 -195 l 1,107,-1
 442 -4 l 1,108,109
 372 2 372 2 310 22 c 128,-1,110
 248 42 248 42 206 80 c 0,111,112
 161 120 161 120 136 179 c 128,-1,113
 111 238 111 238 111 328 c 2,0,-1
EndSplineSet
EndChar

StartChar: Egrave
Encoding: 200 200 137
Width: 718
GlyphClass: 2
Flags: W
LayerCount: 2
Fore
SplineSet
98 0 m 1,0,-1
 98 1458 l 1,1,-1
 623 1458 l 1,2,-1
 623 1292 l 1,3,-1
 264 1292 l 1,4,-1
 264 899 l 1,5,-1
 506 899 l 1,6,-1
 506 733 l 1,7,-1
 264 733 l 1,8,-1
 264 166 l 1,9,-1
 623 166 l 1,10,-1
 623 0 l 1,11,-1
 98 0 l 1,0,-1
238 1776 m 1,12,-1
 340 1878 l 1,13,-1
 537 1681 l 1,14,-1
 465 1610 l 1,15,-1
 238 1776 l 1,12,-1
EndSplineSet
EndChar

StartChar: Eacute
Encoding: 201 201 138
Width: 606
GlyphClass: 2
Flags: W
LayerCount: 2
Fore
SplineSet
98 0 m 1,0,-1
 98 1458 l 1,1,-1
 623 1458 l 1,2,-1
 623 1292 l 1,3,-1
 264 1292 l 1,4,-1
 264 899 l 1,5,-1
 506 899 l 1,6,-1
 506 733 l 1,7,-1
 264 733 l 1,8,-1
 264 166 l 1,9,-1
 623 166 l 1,10,-1
 623 0 l 1,11,-1
 98 0 l 1,0,-1
248 1681 m 1,12,-1
 444 1878 l 1,13,-1
 547 1776 l 1,14,-1
 319 1610 l 1,15,-1
 248 1681 l 1,12,-1
EndSplineSet
EndChar

StartChar: Ecircumflex
Encoding: 202 202 139
Width: 718
GlyphClass: 2
Flags: W
LayerCount: 2
Fore
SplineSet
98 0 m 1,0,-1
 98 1458 l 1,1,-1
 623 1458 l 1,2,-1
 623 1292 l 1,3,-1
 264 1292 l 1,4,-1
 264 899 l 1,5,-1
 506 899 l 1,6,-1
 506 733 l 1,7,-1
 264 733 l 1,8,-1
 264 166 l 1,9,-1
 623 166 l 1,10,-1
 623 0 l 1,11,-1
 98 0 l 1,0,-1
125 1661 m 1,12,-1
 373 1909 l 1,13,-1
 621 1661 l 1,14,-1
 559 1599 l 1,15,-1
 373 1784 l 1,16,-1
 186 1599 l 1,17,-1
 125 1661 l 1,12,-1
EndSplineSet
EndChar

StartChar: Edieresis
Encoding: 203 203 140
Width: 718
GlyphClass: 2
Flags: W
LayerCount: 2
Fore
SplineSet
98 0 m 1,0,-1
 98 1458 l 1,1,-1
 623 1458 l 1,2,-1
 623 1292 l 1,3,-1
 264 1292 l 1,4,-1
 264 899 l 1,5,-1
 506 899 l 1,6,-1
 506 733 l 1,7,-1
 264 733 l 1,8,-1
 264 166 l 1,9,-1
 623 166 l 1,10,-1
 623 0 l 1,11,-1
 98 0 l 1,0,-1
158 1599 m 1,12,-1
 158 1745 l 1,13,-1
 303 1745 l 1,14,-1
 303 1599 l 1,15,-1
 158 1599 l 1,12,-1
449 1599 m 1,16,-1
 449 1745 l 1,17,-1
 594 1745 l 1,18,-1
 594 1599 l 1,19,-1
 449 1599 l 1,16,-1
EndSplineSet
EndChar

StartChar: Igrave
Encoding: 204 204 141
Width: 360
GlyphClass: 2
Flags: W
LayerCount: 2
Fore
SplineSet
47 1769 m 1,0,-1
 150 1872 l 1,1,-1
 346 1675 l 1,2,-1
 274 1604 l 1,3,-1
 47 1769 l 1,0,-1
98 0 m 1,4,-1
 98 1458 l 1,5,-1
 264 1458 l 1,6,-1
 264 0 l 1,7,-1
 98 0 l 1,4,-1
EndSplineSet
EndChar

StartChar: Iacute
Encoding: 205 205 142
Width: 360
GlyphClass: 2
Flags: W
LayerCount: 2
Fore
SplineSet
51 1688 m 1,0,-1
 248 1884 l 1,1,-1
 350 1782 l 1,2,-1
 123 1616 l 1,3,-1
 51 1688 l 1,0,-1
98 0 m 1,4,-1
 98 1458 l 1,5,-1
 264 1458 l 1,6,-1
 264 0 l 1,7,-1
 98 0 l 1,4,-1
EndSplineSet
EndChar

StartChar: Icircumflex
Encoding: 206 206 143
Width: 360
GlyphClass: 2
Flags: W
LayerCount: 2
Fore
SplineSet
-55 1640 m 1,0,-1
 193 1888 l 1,1,-1
 440 1640 l 1,2,-1
 379 1579 l 1,3,-1
 193 1763 l 1,4,-1
 6 1579 l 1,5,-1
 -55 1640 l 1,0,-1
98 0 m 1,6,-1
 98 1458 l 1,7,-1
 264 1458 l 1,8,-1
 264 0 l 1,9,-1
 98 0 l 1,6,-1
EndSplineSet
EndChar

StartChar: Idieresis
Encoding: 207 207 144
Width: 360
GlyphClass: 2
Flags: W
LayerCount: 2
Fore
SplineSet
-31 1606 m 1,0,-1
 -31 1751 l 1,1,-1
 115 1751 l 1,2,-1
 115 1606 l 1,3,-1
 -31 1606 l 1,0,-1
98 0 m 1,4,-1
 98 1458 l 1,5,-1
 264 1458 l 1,6,-1
 264 0 l 1,7,-1
 98 0 l 1,4,-1
260 1606 m 1,8,-1
 260 1751 l 1,9,-1
 406 1751 l 1,10,-1
 406 1606 l 1,11,-1
 260 1606 l 1,8,-1
EndSplineSet
EndChar

StartChar: Eth
Encoding: 208 208 145
Width: 380
GlyphClass: 2
Flags: W
LayerCount: 2
Fore
SplineSet
25 743 m 1,0,-1
 25 829 l 1,1,-1
 123 829 l 1,2,-1
 123 1458 l 1,3,-1
 408 1458 l 2,4,5
 573 1458 573 1458 662 1363 c 0,6,7
 750 1269 750 1269 750 1094 c 2,8,-1
 750 387 l 2,9,10
 750 184 750 184 656 92 c 128,-1,11
 562 0 562 0 389 0 c 2,12,-1
 125 0 l 1,13,-1
 125 743 l 1,14,-1
 25 743 l 1,0,-1
281 152 m 1,15,-1
 403 152 l 2,16,17
 509 152 509 152 549 207 c 0,18,19
 590 263 590 263 590 367 c 2,20,-1
 592 1094 l 2,21,22
 592 1191 592 1191 551 1249 c 128,-1,23
 510 1307 510 1307 403 1307 c 2,24,-1
 281 1307 l 1,25,-1
 281 829 l 1,26,-1
 426 829 l 1,27,-1
 426 743 l 1,28,-1
 281 743 l 1,29,-1
 281 152 l 1,15,-1
EndSplineSet
EndChar

StartChar: Ntilde
Encoding: 209 209 146
Width: 727
GlyphClass: 2
Flags: W
LayerCount: 2
Fore
SplineSet
98 0 m 1,0,-1
 98 1458 l 1,1,-1
 264 1458 l 1,2,-1
 563 905 l 1,3,-1
 563 1458 l 1,4,-1
 729 1458 l 1,5,-1
 729 0 l 1,6,-1
 563 0 l 1,7,-1
 563 559 l 1,8,-1
 264 1112 l 1,9,-1
 264 0 l 1,10,-1
 98 0 l 1,0,-1
137 1542 m 1,11,12
 158 1648 158 1648 198 1707 c 0,13,14
 238 1767 238 1767 313 1767 c 0,15,16
 326 1767 326 1767 352 1759 c 0,17,18
 382 1750 382 1750 409 1738 c 2,19,-1
 475 1709 l 2,20,21
 517 1691 517 1691 545 1681 c 2,22,-1
 579 1669 l 2,23,24
 597 1663 597 1663 608 1663 c 0,25,26
 658 1663 658 1663 685 1697 c 0,27,28
 714 1734 714 1734 721 1780 c 1,29,-1
 772 1780 l 1,30,31
 750 1672 750 1672 712 1615 c 0,32,33
 671 1554 671 1554 596 1554 c 0,34,35
 579 1554 579 1554 539 1571 c 2,36,-1
 456 1607 l 2,37,38
 427 1620 427 1620 369 1642 c 0,39,40
 324 1659 324 1659 301 1659 c 0,41,42
 251 1659 251 1659 224 1625 c 0,43,44
 195 1588 195 1588 188 1542 c 1,45,-1
 137 1542 l 1,11,12
EndSplineSet
EndChar

StartChar: Ograve
Encoding: 210 210 147
Width: 827
GlyphClass: 2
Flags: W
LayerCount: 2
Fore
SplineSet
96 287 m 2,0,-1
 96 1171 l 2,1,2
 96 1235 96 1235 122 1295 c 128,-1,3
 148 1355 148 1355 190 1397 c 128,-1,4
 232 1439 232 1439 291 1464 c 128,-1,5
 350 1489 350 1489 414 1489 c 128,-1,6
 478 1489 478 1489 537 1464 c 0,7,8
 594 1440 594 1440 637 1397 c 0,9,10
 681 1353 681 1353 705 1295 c 0,11,12
 729 1236 729 1236 729 1171 c 2,13,-1
 729 287 l 2,14,15
 729 221 729 221 705 164 c 128,-1,16
 681 107 681 107 637 63 c 0,17,18
 594 20 594 20 537 -4 c 0,19,20
 478 -29 478 -29 414 -29 c 128,-1,21
 350 -29 350 -29 291 -4 c 128,-1,22
 232 21 232 21 190 63 c 0,23,24
 149 104 149 104 122 164 c 0,25,26
 96 222 96 222 96 287 c 2,0,-1
262 287 m 2,27,28
 262 224 262 224 306 180 c 0,29,30
 349 137 349 137 414 137 c 0,31,32
 476 137 476 137 519 180 c 0,33,34
 563 224 563 224 563 287 c 2,35,-1
 563 1171 l 2,36,37
 563 1235 563 1235 519 1279 c 128,-1,38
 475 1323 475 1323 414 1323 c 0,39,40
 350 1323 350 1323 306 1279 c 128,-1,41
 262 1235 262 1235 262 1171 c 2,42,-1
 262 287 l 2,27,28
274 1776 m 1,43,-1
 377 1878 l 1,44,-1
 573 1681 l 1,45,-1
 502 1610 l 1,46,-1
 274 1776 l 1,43,-1
EndSplineSet
EndChar

StartChar: Oacute
Encoding: 211 211 148
Width: 827
GlyphClass: 2
Flags: W
LayerCount: 2
Fore
SplineSet
96 287 m 2,0,-1
 96 1171 l 2,1,2
 96 1235 96 1235 122 1295 c 128,-1,3
 148 1355 148 1355 190 1397 c 128,-1,4
 232 1439 232 1439 291 1464 c 128,-1,5
 350 1489 350 1489 414 1489 c 128,-1,6
 478 1489 478 1489 537 1464 c 0,7,8
 594 1440 594 1440 637 1397 c 0,9,10
 681 1353 681 1353 705 1295 c 0,11,12
 729 1236 729 1236 729 1171 c 2,13,-1
 729 287 l 2,14,15
 729 221 729 221 705 164 c 128,-1,16
 681 107 681 107 637 63 c 0,17,18
 594 20 594 20 537 -4 c 0,19,20
 478 -29 478 -29 414 -29 c 128,-1,21
 350 -29 350 -29 291 -4 c 128,-1,22
 232 21 232 21 190 63 c 0,23,24
 149 104 149 104 122 164 c 0,25,26
 96 222 96 222 96 287 c 2,0,-1
262 287 m 2,27,28
 262 224 262 224 306 180 c 0,29,30
 349 137 349 137 414 137 c 0,31,32
 476 137 476 137 519 180 c 0,33,34
 563 224 563 224 563 287 c 2,35,-1
 563 1171 l 2,36,37
 563 1235 563 1235 519 1279 c 128,-1,38
 475 1323 475 1323 414 1323 c 0,39,40
 350 1323 350 1323 306 1279 c 128,-1,41
 262 1235 262 1235 262 1171 c 2,42,-1
 262 287 l 2,27,28
283 1776 m 1,43,-1
 479 1972 l 1,44,-1
 582 1870 l 1,45,-1
 354 1704 l 1,46,-1
 283 1776 l 1,43,-1
EndSplineSet
EndChar

StartChar: Ocircumflex
Encoding: 212 212 149
Width: 827
GlyphClass: 2
Flags: W
LayerCount: 2
Fore
SplineSet
96 287 m 2,0,-1
 96 1171 l 2,1,2
 96 1235 96 1235 122 1295 c 128,-1,3
 148 1355 148 1355 190 1397 c 128,-1,4
 232 1439 232 1439 291 1464 c 128,-1,5
 350 1489 350 1489 414 1489 c 128,-1,6
 478 1489 478 1489 537 1464 c 0,7,8
 594 1440 594 1440 637 1397 c 0,9,10
 681 1353 681 1353 705 1295 c 0,11,12
 729 1236 729 1236 729 1171 c 2,13,-1
 729 287 l 2,14,15
 729 221 729 221 705 164 c 128,-1,16
 681 107 681 107 637 63 c 0,17,18
 594 20 594 20 537 -4 c 0,19,20
 478 -29 478 -29 414 -29 c 128,-1,21
 350 -29 350 -29 291 -4 c 128,-1,22
 232 21 232 21 190 63 c 0,23,24
 149 104 149 104 122 164 c 0,25,26
 96 222 96 222 96 287 c 2,0,-1
180 1661 m 1,27,-1
 428 1909 l 1,28,-1
 676 1661 l 1,29,-1
 614 1599 l 1,30,-1
 428 1784 l 1,31,-1
 242 1599 l 1,32,-1
 180 1661 l 1,27,-1
262 287 m 2,33,34
 262 224 262 224 306 180 c 0,35,36
 349 137 349 137 414 137 c 0,37,38
 476 137 476 137 519 180 c 0,39,40
 563 224 563 224 563 287 c 2,41,-1
 563 1171 l 2,42,43
 563 1235 563 1235 519 1279 c 128,-1,44
 475 1323 475 1323 414 1323 c 0,45,46
 350 1323 350 1323 306 1279 c 128,-1,47
 262 1235 262 1235 262 1171 c 2,48,-1
 262 287 l 2,33,34
EndSplineSet
EndChar

StartChar: Otilde
Encoding: 213 213 150
Width: 827
GlyphClass: 2
Flags: W
LayerCount: 2
Fore
SplineSet
96 287 m 2,0,-1
 96 1171 l 2,1,2
 96 1235 96 1235 122 1295 c 128,-1,3
 148 1355 148 1355 190 1397 c 128,-1,4
 232 1439 232 1439 291 1464 c 128,-1,5
 350 1489 350 1489 414 1489 c 128,-1,6
 478 1489 478 1489 537 1464 c 0,7,8
 594 1440 594 1440 637 1397 c 0,9,10
 681 1353 681 1353 705 1295 c 0,11,12
 729 1236 729 1236 729 1171 c 2,13,-1
 729 287 l 2,14,15
 729 221 729 221 705 164 c 128,-1,16
 681 107 681 107 637 63 c 0,17,18
 594 20 594 20 537 -4 c 0,19,20
 478 -29 478 -29 414 -29 c 128,-1,21
 350 -29 350 -29 291 -4 c 128,-1,22
 232 21 232 21 190 63 c 0,23,24
 149 104 149 104 122 164 c 0,25,26
 96 222 96 222 96 287 c 2,0,-1
119 1542 m 1,27,28
 141 1650 141 1650 179 1707 c 0,29,30
 220 1767 220 1767 295 1767 c 0,31,32
 308 1767 308 1767 334 1759 c 128,-1,33
 360 1751 360 1751 390 1738 c 2,34,-1
 457 1709 l 2,35,36
 503 1689 503 1689 526 1681 c 2,37,-1
 560 1669 l 2,38,39
 578 1663 578 1663 590 1663 c 0,40,41
 640 1663 640 1663 667 1697 c 0,42,43
 695 1733 695 1733 702 1780 c 1,44,-1
 754 1780 l 1,45,46
 733 1674 733 1674 693 1615 c 0,47,48
 652 1554 652 1554 578 1554 c 0,49,50
 560 1554 560 1554 520 1571 c 2,51,-1
 437 1607 l 2,52,53
 408 1620 408 1620 350 1642 c 0,54,55
 305 1659 305 1659 283 1659 c 0,56,57
 233 1659 233 1659 206 1625 c 0,58,59
 177 1588 177 1588 170 1542 c 1,60,-1
 119 1542 l 1,27,28
262 287 m 2,61,62
 262 224 262 224 306 180 c 0,63,64
 349 137 349 137 414 137 c 0,65,66
 476 137 476 137 519 180 c 0,67,68
 563 224 563 224 563 287 c 2,69,-1
 563 1171 l 2,70,71
 563 1235 563 1235 519 1279 c 128,-1,72
 475 1323 475 1323 414 1323 c 0,73,74
 350 1323 350 1323 306 1279 c 128,-1,75
 262 1235 262 1235 262 1171 c 2,76,-1
 262 287 l 2,61,62
EndSplineSet
EndChar

StartChar: Odieresis
Encoding: 214 214 151
Width: 698
GlyphClass: 2
Flags: W
LayerCount: 2
Fore
SplineSet
96 287 m 2,0,-1
 96 1171 l 2,1,2
 96 1235 96 1235 122 1295 c 128,-1,3
 148 1355 148 1355 190 1397 c 128,-1,4
 232 1439 232 1439 291 1464 c 128,-1,5
 350 1489 350 1489 414 1489 c 128,-1,6
 478 1489 478 1489 537 1464 c 0,7,8
 594 1440 594 1440 637 1397 c 0,9,10
 681 1353 681 1353 705 1295 c 0,11,12
 729 1236 729 1236 729 1171 c 2,13,-1
 729 287 l 2,14,15
 729 221 729 221 705 164 c 128,-1,16
 681 107 681 107 637 63 c 0,17,18
 594 20 594 20 537 -4 c 0,19,20
 478 -29 478 -29 414 -29 c 128,-1,21
 350 -29 350 -29 291 -4 c 128,-1,22
 232 21 232 21 190 63 c 0,23,24
 149 104 149 104 122 164 c 0,25,26
 96 222 96 222 96 287 c 2,0,-1
199 1599 m 1,27,-1
 199 1745 l 1,28,-1
 344 1745 l 1,29,-1
 344 1599 l 1,30,-1
 199 1599 l 1,27,-1
262 287 m 2,31,32
 262 224 262 224 306 180 c 0,33,34
 349 137 349 137 414 137 c 0,35,36
 476 137 476 137 519 180 c 0,37,38
 563 224 563 224 563 287 c 2,39,-1
 563 1171 l 2,40,41
 563 1235 563 1235 519 1279 c 128,-1,42
 475 1323 475 1323 414 1323 c 0,43,44
 350 1323 350 1323 306 1279 c 128,-1,45
 262 1235 262 1235 262 1171 c 2,46,-1
 262 287 l 2,31,32
489 1599 m 1,47,-1
 489 1745 l 1,48,-1
 635 1745 l 1,49,-1
 635 1599 l 1,50,-1
 489 1599 l 1,47,-1
EndSplineSet
EndChar

StartChar: multiply
Encoding: 215 215 152
Width: 1152
GlyphClass: 2
Flags: W
LayerCount: 2
Fore
SplineSet
134 137 m 1,0,-1
 497 518 l 1,1,-1
 134 901 l 1,2,-1
 214 985 l 1,3,-1
 574 604 l 1,4,-1
 937 985 l 1,5,-1
 1015 901 l 1,6,-1
 654 518 l 1,7,-1
 1017 137 l 1,8,-1
 937 53 l 1,9,-1
 574 434 l 1,10,-1
 214 51 l 1,11,-1
 134 137 l 1,0,-1
EndSplineSet
EndChar

StartChar: Oslash
Encoding: 216 216 153
Width: 872
GlyphClass: 2
Flags: W
LayerCount: 2
Fore
SplineSet
53 -47 m 1,0,-1
 152 160 l 1,1,2
 111 247 111 247 111 332 c 2,3,-1
 111 1126 l 2,4,5
 111 1214 111 1214 139 1277 c 0,6,7
 167 1341 167 1341 214 1383 c 0,8,9
 263 1427 263 1427 318 1447 c 0,10,11
 377 1468 377 1468 436 1468 c 0,12,13
 503 1468 503 1468 566 1440 c 0,14,15
 631 1411 631 1411 700 1339 c 1,16,-1
 784 1526 l 1,17,-1
 819 1505 l 1,18,-1
 721 1298 l 1,19,20
 762 1211 762 1211 762 1126 c 2,21,-1
 762 332 l 2,22,23
 762 247 762 247 733 181 c 0,24,25
 705 117 705 117 658 75 c 0,26,27
 609 31 609 31 554 11 c 0,28,29
 495 -10 495 -10 436 -10 c 0,30,31
 370 -10 370 -10 305 18 c 0,32,33
 242 45 242 45 174 121 c 1,34,-1
 88 -68 l 1,35,-1
 53 -47 l 1,0,-1
268 326 m 1,36,37
 272 238 272 238 322 196 c 128,-1,38
 372 154 372 154 436 154 c 0,39,40
 503 154 503 154 553 197 c 0,41,42
 604 240 604 240 604 332 c 2,43,-1
 604 952 l 1,44,-1
 557 952 l 1,45,-1
 268 326 l 1,36,37
268 504 m 1,46,-1
 315 504 l 1,47,-1
 604 1133 l 1,48,49
 598 1225 598 1225 549 1265 c 128,-1,50
 500 1305 500 1305 436 1305 c 0,51,52
 369 1305 369 1305 319 1262 c 0,53,54
 268 1218 268 1218 268 1126 c 2,55,-1
 268 504 l 1,46,-1
EndSplineSet
EndChar

StartChar: Ugrave
Encoding: 217 217 154
Width: 827
GlyphClass: 2
Flags: W
LayerCount: 2
Fore
SplineSet
98 287 m 2,0,-1
 98 1458 l 1,1,-1
 264 1458 l 1,2,-1
 264 287 l 2,3,4
 264 223 264 223 307 180 c 128,-1,5
 350 137 350 137 414 137 c 0,6,7
 476 137 476 137 519 180 c 0,8,9
 563 224 563 224 563 287 c 2,10,-1
 563 1458 l 1,11,-1
 729 1458 l 1,12,-1
 729 287 l 2,13,14
 729 221 729 221 705 164 c 128,-1,15
 681 107 681 107 637 63 c 0,16,17
 594 20 594 20 537 -4 c 0,18,19
 478 -29 478 -29 414 -29 c 128,-1,20
 350 -29 350 -29 291 -4 c 128,-1,21
 232 21 232 21 190 63 c 128,-1,22
 148 105 148 105 123 164 c 128,-1,23
 98 223 98 223 98 287 c 2,0,-1
283 1769 m 1,24,-1
 385 1872 l 1,25,-1
 582 1675 l 1,26,-1
 510 1604 l 1,27,-1
 283 1769 l 1,24,-1
EndSplineSet
EndChar

StartChar: Uacute
Encoding: 218 218 155
Width: 827
GlyphClass: 2
Flags: W
LayerCount: 2
Fore
SplineSet
98 287 m 2,0,-1
 98 1458 l 1,1,-1
 264 1458 l 1,2,-1
 264 287 l 2,3,4
 264 223 264 223 307 180 c 128,-1,5
 350 137 350 137 414 137 c 0,6,7
 476 137 476 137 519 180 c 0,8,9
 563 224 563 224 563 287 c 2,10,-1
 563 1458 l 1,11,-1
 729 1458 l 1,12,-1
 729 287 l 2,13,14
 729 221 729 221 705 164 c 128,-1,15
 681 107 681 107 637 63 c 0,16,17
 594 20 594 20 537 -4 c 0,18,19
 478 -29 478 -29 414 -29 c 128,-1,20
 350 -29 350 -29 291 -4 c 128,-1,21
 232 21 232 21 190 63 c 128,-1,22
 148 105 148 105 123 164 c 128,-1,23
 98 223 98 223 98 287 c 2,0,-1
270 1681 m 1,24,-1
 467 1878 l 1,25,-1
 569 1776 l 1,26,-1
 342 1610 l 1,27,-1
 270 1681 l 1,24,-1
EndSplineSet
EndChar

StartChar: Ucircumflex
Encoding: 219 219 156
Width: 827
GlyphClass: 2
Flags: W
LayerCount: 2
Fore
SplineSet
98 287 m 2,0,-1
 98 1458 l 1,1,-1
 264 1458 l 1,2,-1
 264 287 l 2,3,4
 264 223 264 223 307 180 c 128,-1,5
 350 137 350 137 414 137 c 0,6,7
 476 137 476 137 519 180 c 0,8,9
 563 224 563 224 563 287 c 2,10,-1
 563 1458 l 1,11,-1
 729 1458 l 1,12,-1
 729 287 l 2,13,14
 729 221 729 221 705 164 c 128,-1,15
 681 107 681 107 637 63 c 0,16,17
 594 20 594 20 537 -4 c 0,18,19
 478 -29 478 -29 414 -29 c 128,-1,20
 350 -29 350 -29 291 -4 c 128,-1,21
 232 21 232 21 190 63 c 128,-1,22
 148 105 148 105 123 164 c 128,-1,23
 98 223 98 223 98 287 c 2,0,-1
193 1661 m 1,24,-1
 440 1909 l 1,25,-1
 688 1661 l 1,26,-1
 627 1599 l 1,27,-1
 440 1784 l 1,28,-1
 254 1599 l 1,29,-1
 193 1661 l 1,24,-1
EndSplineSet
EndChar

StartChar: Udieresis
Encoding: 220 220 157
Width: 698
GlyphClass: 2
Flags: W
LayerCount: 2
Fore
SplineSet
98 287 m 2,0,-1
 98 1458 l 1,1,-1
 264 1458 l 1,2,-1
 264 287 l 2,3,4
 264 223 264 223 307 180 c 128,-1,5
 350 137 350 137 414 137 c 0,6,7
 476 137 476 137 519 180 c 0,8,9
 563 224 563 224 563 287 c 2,10,-1
 563 1458 l 1,11,-1
 729 1458 l 1,12,-1
 729 287 l 2,13,14
 729 221 729 221 705 164 c 128,-1,15
 681 107 681 107 637 63 c 0,16,17
 594 20 594 20 537 -4 c 0,18,19
 478 -29 478 -29 414 -29 c 128,-1,20
 350 -29 350 -29 291 -4 c 128,-1,21
 232 21 232 21 190 63 c 128,-1,22
 148 105 148 105 123 164 c 128,-1,23
 98 223 98 223 98 287 c 2,0,-1
203 1599 m 1,24,-1
 203 1745 l 1,25,-1
 348 1745 l 1,26,-1
 348 1599 l 1,27,-1
 203 1599 l 1,24,-1
494 1599 m 1,28,-1
 494 1745 l 1,29,-1
 639 1745 l 1,30,-1
 639 1599 l 1,31,-1
 494 1599 l 1,28,-1
EndSplineSet
EndChar

StartChar: Yacute
Encoding: 221 221 158
Width: 305
GlyphClass: 2
Flags: W
LayerCount: 2
Fore
SplineSet
98 1458 m 1,0,-1
 270 1458 l 1,1,-1
 414 1014 l 1,2,-1
 555 1458 l 1,3,-1
 729 1458 l 1,4,-1
 496 729 l 1,5,-1
 496 0 l 1,6,-1
 330 0 l 1,7,-1
 330 729 l 1,8,-1
 98 1458 l 1,0,-1
621 1776 m 1,9,-1
 817 1972 l 1,10,-1
 920 1870 l 1,11,-1
 692 1704 l 1,12,-1
 621 1776 l 1,9,-1
EndSplineSet
EndChar

StartChar: Thorn
Encoding: 222 222 159
Width: 380
GlyphClass: 2
Flags: W
LayerCount: 2
Fore
SplineSet
123 0 m 1,0,-1
 123 1458 l 1,1,-1
 281 1458 l 1,2,-1
 281 1196 l 1,3,-1
 412 1196 l 2,4,5
 489 1196 489 1196 550 1177 c 0,6,7
 612 1158 612 1158 657 1108 c 0,8,9
 704 1057 704 1057 727 975 c 0,10,11
 752 888 752 888 752 762 c 0,12,13
 752 664 752 664 735 582 c 0,14,15
 718 501 718 501 680 445 c 0,16,17
 641 388 641 388 577 358 c 0,18,19
 512 328 512 328 414 328 c 2,20,-1
 283 328 l 1,21,-1
 283 0 l 1,22,-1
 123 0 l 1,0,-1
281 477 m 1,23,-1
 408 477 l 2,24,25
 480 477 480 477 521 501 c 0,26,27
 563 526 563 526 580 563 c 0,28,29
 598 602 598 602 601 653 c 128,-1,30
 604 704 604 704 604 760 c 0,31,32
 604 815 604 815 601 866 c 0,33,34
 598 919 598 919 581 957 c 0,35,36
 563 997 563 997 524 1021 c 0,37,38
 487 1044 487 1044 416 1044 c 2,39,-1
 281 1044 l 1,40,-1
 281 477 l 1,23,-1
EndSplineSet
EndChar

StartChar: germandbls
Encoding: 223 223 160
Width: 796
GlyphClass: 2
Flags: W
LayerCount: 2
Fore
SplineSet
111 0 m 1,0,-1
 111 1145 l 2,1,2
 111 1213 111 1213 128 1270 c 0,3,4
 146 1330 146 1330 180 1373 c 128,-1,5
 214 1416 214 1416 268 1444 c 0,6,7
 319 1470 319 1470 395 1470 c 0,8,9
 479 1470 479 1470 532 1444 c 0,10,11
 588 1417 588 1417 622 1369 c 0,12,13
 656 1322 656 1322 671 1255 c 0,14,15
 686 1189 686 1189 686 1110 c 0,16,17
 686 1062 686 1062 681 1020 c 0,18,19
 677 986 677 986 660 954 c 0,20,21
 645 925 645 925 616 901 c 0,22,23
 582 873 582 873 541 846 c 1,24,25
 618 801 618 801 653 752 c 0,26,27
 686 706 686 706 686 631 c 2,28,-1
 686 258 l 2,29,30
 686 171 686 171 667 120 c 0,31,32
 648 68 648 68 613 39 c 256,33,34
 578 10 578 10 534 0 c 0,35,36
 488 -10 488 -10 436 -12 c 1,37,-1
 436 139 l 1,38,39
 480 145 480 145 505 176 c 0,40,41
 528 205 528 205 528 272 c 2,42,-1
 528 676 l 2,43,44
 528 728 528 728 502 748 c 0,45,46
 477 767 477 767 436 772 c 1,47,-1
 436 911 l 1,48,49
 482 916 482 916 505 939 c 128,-1,50
 528 962 528 962 528 1020 c 2,51,-1
 528 1190 l 2,52,53
 528 1242 528 1242 503 1280 c 0,54,55
 477 1319 477 1319 403 1319 c 0,56,57
 325 1319 325 1319 298 1266 c 0,58,59
 270 1212 270 1212 270 1106 c 2,60,-1
 270 0 l 1,61,-1
 111 0 l 1,0,-1
EndSplineSet
EndChar

StartChar: agrave
Encoding: 224 224 161
Width: 890
GlyphClass: 2
Flags: W
LayerCount: 2
Fore
SplineSet
55 389 m 0,0,1
 55 468 55 468 84 540 c 0,2,3
 112 609 112 609 163 663 c 0,4,5
 211 713 211 713 280 745 c 0,6,7
 348 776 348 776 422 776 c 0,8,9
 463 776 463 776 500 765 c 0,10,11
 547 751 547 751 610 725 c 1,12,-1
 610 874 l 2,13,14
 610 946 610 946 563 996 c 0,15,16
 515 1047 515 1047 451 1047 c 0,17,18
 394 1047 394 1047 350 1009 c 0,19,20
 307 972 307 972 295 913 c 1,21,-1
 117 913 l 1,22,23
 123 979 123 979 152 1039 c 0,24,25
 181 1098 181 1098 225 1141 c 0,26,27
 268 1183 268 1183 328 1208 c 0,28,29
 387 1233 387 1233 451 1233 c 0,30,31
 518 1233 518 1233 582 1205 c 0,32,33
 642 1179 642 1179 688 1128 c 128,-1,34
 734 1077 734 1077 760 1014 c 0,35,36
 786 950 786 950 786 874 c 2,37,-1
 786 0 l 1,38,-1
 610 0 l 1,39,-1
 610 53 l 1,40,41
 544 21 544 21 500 10 c 0,42,43
 461 0 461 0 422 0 c 0,44,45
 348 0 348 0 280 31 c 128,-1,46
 212 62 212 62 163 114 c 0,47,48
 111 169 111 169 84 238 c 0,49,50
 55 311 55 311 55 389 c 0,0,1
231 389 m 0,51,52
 231 351 231 351 247 311 c 0,53,54
 261 275 261 275 288 247 c 0,55,56
 314 219 314 219 348 203 c 0,57,58
 384 186 384 186 422 186 c 0,59,60
 459 186 459 186 495 203 c 0,61,62
 527 218 527 218 554 247 c 0,63,64
 581 275 581 275 595 311 c 0,65,66
 610 348 610 348 610 389 c 0,67,68
 610 428 610 428 595 465 c 0,69,70
 581 501 581 501 554 529 c 0,71,72
 527 558 527 558 495 573 c 0,73,74
 459 590 459 590 422 590 c 0,75,76
 384 590 384 590 348 573 c 0,77,78
 314 557 314 557 288 529 c 0,79,80
 261 501 261 501 247 465 c 0,81,82
 231 425 231 425 231 389 c 0,51,52
315 1516 m 1,83,-1
 418 1618 l 1,84,-1
 614 1421 l 1,85,-1
 543 1350 l 1,86,-1
 315 1516 l 1,83,-1
EndSplineSet
EndChar

StartChar: aacute
Encoding: 225 225 162
Width: 874
GlyphClass: 2
Flags: W
LayerCount: 2
Fore
SplineSet
55 389 m 0,0,1
 55 468 55 468 84 540 c 0,2,3
 112 609 112 609 163 663 c 0,4,5
 211 713 211 713 280 745 c 0,6,7
 348 776 348 776 422 776 c 0,8,9
 463 776 463 776 500 765 c 0,10,11
 547 751 547 751 610 725 c 1,12,-1
 610 874 l 2,13,14
 610 946 610 946 563 996 c 0,15,16
 515 1047 515 1047 451 1047 c 0,17,18
 394 1047 394 1047 350 1009 c 0,19,20
 307 972 307 972 295 913 c 1,21,-1
 117 913 l 1,22,23
 123 979 123 979 152 1039 c 0,24,25
 181 1098 181 1098 225 1141 c 0,26,27
 268 1183 268 1183 328 1208 c 0,28,29
 387 1233 387 1233 451 1233 c 0,30,31
 518 1233 518 1233 582 1205 c 0,32,33
 642 1179 642 1179 688 1128 c 128,-1,34
 734 1077 734 1077 760 1014 c 0,35,36
 786 950 786 950 786 874 c 2,37,-1
 786 0 l 1,38,-1
 610 0 l 1,39,-1
 610 53 l 1,40,41
 544 21 544 21 500 10 c 0,42,43
 461 0 461 0 422 0 c 0,44,45
 348 0 348 0 280 31 c 128,-1,46
 212 62 212 62 163 114 c 0,47,48
 111 169 111 169 84 238 c 0,49,50
 55 311 55 311 55 389 c 0,0,1
231 389 m 0,51,52
 231 351 231 351 247 311 c 0,53,54
 261 275 261 275 288 247 c 0,55,56
 314 219 314 219 348 203 c 0,57,58
 384 186 384 186 422 186 c 0,59,60
 459 186 459 186 495 203 c 0,61,62
 527 218 527 218 554 247 c 0,63,64
 581 275 581 275 595 311 c 0,65,66
 610 348 610 348 610 389 c 0,67,68
 610 428 610 428 595 465 c 0,69,70
 581 501 581 501 554 529 c 0,71,72
 527 558 527 558 495 573 c 0,73,74
 459 590 459 590 422 590 c 0,75,76
 384 590 384 590 348 573 c 0,77,78
 314 557 314 557 288 529 c 0,79,80
 261 501 261 501 247 465 c 0,81,82
 231 425 231 425 231 389 c 0,51,52
319 1427 m 1,83,-1
 516 1624 l 1,84,-1
 618 1522 l 1,85,-1
 391 1356 l 1,86,-1
 319 1427 l 1,83,-1
EndSplineSet
EndChar

StartChar: acircumflex
Encoding: 226 226 163
Width: 874
GlyphClass: 2
Flags: W
LayerCount: 2
Fore
SplineSet
55 389 m 0,0,1
 55 468 55 468 84 540 c 0,2,3
 112 609 112 609 163 663 c 0,4,5
 211 713 211 713 280 745 c 0,6,7
 348 776 348 776 422 776 c 0,8,9
 463 776 463 776 500 765 c 0,10,11
 547 751 547 751 610 725 c 1,12,-1
 610 874 l 2,13,14
 610 946 610 946 563 996 c 0,15,16
 515 1047 515 1047 451 1047 c 0,17,18
 394 1047 394 1047 350 1009 c 0,19,20
 307 972 307 972 295 913 c 1,21,-1
 117 913 l 1,22,23
 123 979 123 979 152 1039 c 0,24,25
 181 1098 181 1098 225 1141 c 0,26,27
 268 1183 268 1183 328 1208 c 0,28,29
 387 1233 387 1233 451 1233 c 0,30,31
 518 1233 518 1233 582 1205 c 0,32,33
 642 1179 642 1179 688 1128 c 128,-1,34
 734 1077 734 1077 760 1014 c 0,35,36
 786 950 786 950 786 874 c 2,37,-1
 786 0 l 1,38,-1
 610 0 l 1,39,-1
 610 53 l 1,40,41
 544 21 544 21 500 10 c 0,42,43
 461 0 461 0 422 0 c 0,44,45
 348 0 348 0 280 31 c 128,-1,46
 212 62 212 62 163 114 c 0,47,48
 111 169 111 169 84 238 c 0,49,50
 55 311 55 311 55 389 c 0,0,1
199 1487 m 1,51,-1
 446 1735 l 1,52,-1
 694 1487 l 1,53,-1
 633 1425 l 1,54,-1
 446 1610 l 1,55,-1
 260 1425 l 1,56,-1
 199 1487 l 1,51,-1
231 389 m 0,57,58
 231 351 231 351 247 311 c 0,59,60
 261 275 261 275 288 247 c 0,61,62
 314 219 314 219 348 203 c 0,63,64
 384 186 384 186 422 186 c 0,65,66
 459 186 459 186 495 203 c 0,67,68
 527 218 527 218 554 247 c 0,69,70
 581 275 581 275 595 311 c 0,71,72
 610 348 610 348 610 389 c 0,73,74
 610 428 610 428 595 465 c 0,75,76
 581 501 581 501 554 529 c 0,77,78
 527 558 527 558 495 573 c 0,79,80
 459 590 459 590 422 590 c 0,81,82
 384 590 384 590 348 573 c 0,83,84
 314 557 314 557 288 529 c 0,85,86
 261 501 261 501 247 465 c 0,87,88
 231 425 231 425 231 389 c 0,57,58
EndSplineSet
EndChar

StartChar: atilde
Encoding: 227 227 164
Width: 874
GlyphClass: 2
Flags: W
LayerCount: 2
Fore
SplineSet
55 389 m 0,0,1
 55 468 55 468 84 540 c 0,2,3
 112 609 112 609 163 663 c 0,4,5
 211 713 211 713 280 745 c 0,6,7
 348 776 348 776 422 776 c 0,8,9
 463 776 463 776 500 765 c 0,10,11
 547 751 547 751 610 725 c 1,12,-1
 610 874 l 2,13,14
 610 946 610 946 563 996 c 0,15,16
 515 1047 515 1047 451 1047 c 0,17,18
 394 1047 394 1047 350 1009 c 0,19,20
 307 972 307 972 295 913 c 1,21,-1
 117 913 l 1,22,23
 123 979 123 979 152 1039 c 0,24,25
 181 1098 181 1098 225 1141 c 0,26,27
 268 1183 268 1183 328 1208 c 0,28,29
 387 1233 387 1233 451 1233 c 0,30,31
 518 1233 518 1233 582 1205 c 0,32,33
 642 1179 642 1179 688 1128 c 128,-1,34
 734 1077 734 1077 760 1014 c 0,35,36
 786 950 786 950 786 874 c 2,37,-1
 786 0 l 1,38,-1
 610 0 l 1,39,-1
 610 53 l 1,40,41
 544 21 544 21 500 10 c 0,42,43
 461 0 461 0 422 0 c 0,44,45
 348 0 348 0 280 31 c 128,-1,46
 212 62 212 62 163 114 c 0,47,48
 111 169 111 169 84 238 c 0,49,50
 55 311 55 311 55 389 c 0,0,1
113 1397 m 1,51,52
 135 1505 135 1505 173 1562 c 0,53,54
 214 1622 214 1622 289 1622 c 0,55,56
 302 1622 302 1622 328 1614 c 0,57,58
 345 1609 345 1609 384 1592 c 2,59,-1
 451 1564 l 2,60,61
 497 1544 497 1544 520 1536 c 2,62,-1
 554 1524 l 2,63,64
 572 1518 572 1518 584 1518 c 0,65,66
 634 1518 634 1518 660 1551 c 0,67,68
 689 1588 689 1588 696 1634 c 1,69,-1
 748 1634 l 1,70,71
 727 1528 727 1528 687 1469 c 0,72,73
 646 1409 646 1409 571 1409 c 0,74,75
 552 1409 552 1409 514 1425 c 2,76,-1
 431 1461 l 2,77,78
 388 1480 388 1480 344 1497 c 0,79,80
 302 1513 302 1513 276 1513 c 0,81,82
 226 1513 226 1513 200 1480 c 0,83,84
 171 1443 171 1443 164 1397 c 1,85,-1
 113 1397 l 1,51,52
231 389 m 0,86,87
 231 351 231 351 247 311 c 0,88,89
 261 275 261 275 288 247 c 0,90,91
 314 219 314 219 348 203 c 0,92,93
 384 186 384 186 422 186 c 0,94,95
 459 186 459 186 495 203 c 0,96,97
 527 218 527 218 554 247 c 0,98,99
 581 275 581 275 595 311 c 0,100,101
 610 348 610 348 610 389 c 0,102,103
 610 428 610 428 595 465 c 0,104,105
 581 501 581 501 554 529 c 0,106,107
 527 558 527 558 495 573 c 0,108,109
 459 590 459 590 422 590 c 0,110,111
 384 590 384 590 348 573 c 0,112,113
 314 557 314 557 288 529 c 0,114,115
 261 501 261 501 247 465 c 0,116,117
 231 425 231 425 231 389 c 0,86,87
EndSplineSet
EndChar

StartChar: adieresis
Encoding: 228 228 165
Width: 874
GlyphClass: 2
Flags: W
LayerCount: 2
Fore
SplineSet
55 389 m 0,0,1
 55 468 55 468 84 540 c 0,2,3
 112 609 112 609 163 663 c 0,4,5
 211 713 211 713 280 745 c 0,6,7
 348 776 348 776 422 776 c 0,8,9
 463 776 463 776 500 765 c 0,10,11
 547 751 547 751 610 725 c 1,12,-1
 610 874 l 2,13,14
 610 946 610 946 563 996 c 0,15,16
 515 1047 515 1047 451 1047 c 0,17,18
 394 1047 394 1047 350 1009 c 0,19,20
 307 972 307 972 295 913 c 1,21,-1
 117 913 l 1,22,23
 123 979 123 979 152 1039 c 0,24,25
 181 1098 181 1098 225 1141 c 0,26,27
 268 1183 268 1183 328 1208 c 0,28,29
 387 1233 387 1233 451 1233 c 0,30,31
 518 1233 518 1233 582 1205 c 0,32,33
 642 1179 642 1179 688 1128 c 128,-1,34
 734 1077 734 1077 760 1014 c 0,35,36
 786 950 786 950 786 874 c 2,37,-1
 786 0 l 1,38,-1
 610 0 l 1,39,-1
 610 53 l 1,40,41
 544 21 544 21 500 10 c 0,42,43
 461 0 461 0 422 0 c 0,44,45
 348 0 348 0 280 31 c 128,-1,46
 212 62 212 62 163 114 c 0,47,48
 111 169 111 169 84 238 c 0,49,50
 55 311 55 311 55 389 c 0,0,1
217 1470 m 1,51,-1
 217 1616 l 1,52,-1
 362 1616 l 1,53,-1
 362 1470 l 1,54,-1
 217 1470 l 1,51,-1
231 389 m 0,55,56
 231 351 231 351 247 311 c 0,57,58
 261 275 261 275 288 247 c 0,59,60
 314 219 314 219 348 203 c 0,61,62
 384 186 384 186 422 186 c 0,63,64
 459 186 459 186 495 203 c 0,65,66
 527 218 527 218 554 247 c 0,67,68
 581 275 581 275 595 311 c 0,69,70
 610 348 610 348 610 389 c 0,71,72
 610 428 610 428 595 465 c 0,73,74
 581 501 581 501 554 529 c 0,75,76
 527 558 527 558 495 573 c 0,77,78
 459 590 459 590 422 590 c 0,79,80
 384 590 384 590 348 573 c 0,81,82
 314 557 314 557 288 529 c 0,83,84
 261 501 261 501 247 465 c 0,85,86
 231 425 231 425 231 389 c 0,55,56
508 1470 m 1,87,-1
 508 1616 l 1,88,-1
 653 1616 l 1,89,-1
 653 1470 l 1,90,-1
 508 1470 l 1,87,-1
EndSplineSet
EndChar

StartChar: aring
Encoding: 229 229 166
Width: 874
GlyphClass: 2
Flags: W
LayerCount: 2
Fore
SplineSet
55 389 m 0,0,1
 55 468 55 468 84 540 c 0,2,3
 112 609 112 609 163 663 c 0,4,5
 211 713 211 713 280 745 c 0,6,7
 348 776 348 776 422 776 c 0,8,9
 463 776 463 776 500 765 c 0,10,11
 547 751 547 751 610 725 c 1,12,-1
 610 874 l 2,13,14
 610 946 610 946 563 996 c 0,15,16
 515 1047 515 1047 451 1047 c 0,17,18
 394 1047 394 1047 350 1009 c 0,19,20
 307 972 307 972 295 913 c 1,21,-1
 117 913 l 1,22,23
 123 979 123 979 152 1039 c 0,24,25
 181 1098 181 1098 225 1141 c 0,26,27
 268 1183 268 1183 328 1208 c 0,28,29
 387 1233 387 1233 451 1233 c 0,30,31
 518 1233 518 1233 582 1205 c 0,32,33
 642 1179 642 1179 688 1128 c 128,-1,34
 734 1077 734 1077 760 1014 c 0,35,36
 786 950 786 950 786 874 c 2,37,-1
 786 0 l 1,38,-1
 610 0 l 1,39,-1
 610 53 l 1,40,41
 544 21 544 21 500 10 c 0,42,43
 461 0 461 0 422 0 c 0,44,45
 348 0 348 0 280 31 c 128,-1,46
 212 62 212 62 163 114 c 0,47,48
 111 169 111 169 84 238 c 0,49,50
 55 311 55 311 55 389 c 0,0,1
229 1546 m 128,-1,52
 229 1592 229 1592 246 1635 c 128,-1,53
 263 1678 263 1678 290 1708 c 0,54,55
 319 1740 319 1740 354 1757 c 0,56,57
 394 1776 394 1776 434 1776 c 0,58,59
 472 1776 472 1776 512 1757 c 0,60,61
 549 1739 549 1739 577 1708 c 0,62,63
 604 1678 604 1678 621 1635 c 0,64,65
 637 1594 637 1594 637 1546 c 128,-1,66
 637 1498 637 1498 621 1457 c 0,67,68
 604 1414 604 1414 577 1384 c 0,69,70
 549 1353 549 1353 512 1335 c 0,71,72
 474 1317 474 1317 434 1317 c 0,73,74
 392 1317 392 1317 354 1335 c 0,75,76
 319 1352 319 1352 290 1384 c 0,77,78
 263 1414 263 1414 246 1457 c 128,-1,51
 229 1500 229 1500 229 1546 c 128,-1,52
231 389 m 0,79,80
 231 351 231 351 247 311 c 0,81,82
 261 275 261 275 288 247 c 0,83,84
 314 219 314 219 348 203 c 0,85,86
 384 186 384 186 422 186 c 0,87,88
 459 186 459 186 495 203 c 0,89,90
 527 218 527 218 554 247 c 0,91,92
 581 275 581 275 595 311 c 0,93,94
 610 348 610 348 610 389 c 0,95,96
 610 428 610 428 595 465 c 0,97,98
 581 501 581 501 554 529 c 0,99,100
 527 558 527 558 495 573 c 0,101,102
 459 590 459 590 422 590 c 0,103,104
 384 590 384 590 348 573 c 0,105,106
 314 557 314 557 288 529 c 0,107,108
 261 501 261 501 247 465 c 0,109,110
 231 425 231 425 231 389 c 0,79,80
283 1546 m 128,-1,112
 283 1476 283 1476 326 1427 c 128,-1,113
 369 1378 369 1378 434 1378 c 0,114,115
 498 1378 498 1378 541 1427 c 128,-1,116
 584 1476 584 1476 584 1546 c 128,-1,117
 584 1616 584 1616 541 1665 c 128,-1,118
 498 1714 498 1714 434 1714 c 0,119,120
 369 1714 369 1714 326 1665 c 128,-1,111
 283 1616 283 1616 283 1546 c 128,-1,112
EndSplineSet
EndChar

StartChar: ae
Encoding: 230 230 167
Width: 1423
GlyphClass: 2
Flags: W
LayerCount: 2
Fore
SplineSet
70 365 m 0,0,1
 70 445 70 445 98 516 c 128,-1,2
 126 587 126 587 176 640 c 128,-1,3
 226 693 226 693 292 723 c 0,4,5
 360 754 360 754 434 754 c 0,6,7
 471 754 471 754 513 743 c 128,-1,8
 555 732 555 732 625 700 c 1,9,-1
 625 877 l 2,10,11
 625 947 625 947 578 997 c 128,-1,12
 531 1047 531 1047 463 1047 c 0,13,14
 407 1047 407 1047 363 1009 c 0,15,16
 320 972 320 972 309 913 c 1,17,-1
 131 913 l 1,18,19
 137 979 137 979 166 1039 c 0,20,21
 194 1096 194 1096 239 1141 c 0,22,23
 281 1183 281 1183 340 1208 c 128,-1,24
 399 1233 399 1233 463 1233 c 0,25,26
 529 1233 529 1233 593 1204 c 0,27,28
 655 1176 655 1176 721 1110 c 1,29,30
 787 1176 787 1176 852 1204 c 0,31,32
 919 1233 919 1233 989 1233 c 0,33,34
 1064 1233 1064 1233 1132 1202 c 0,35,36
 1198 1172 1198 1172 1248 1119 c 0,37,38
 1299 1065 1299 1065 1327 996 c 0,39,40
 1356 924 1356 924 1356 846 c 2,41,-1
 1356 575 l 1,42,-1
 801 575 l 1,43,-1
 801 334 l 2,44,45
 801 263 801 263 847 214 c 0,46,47
 894 164 894 164 961 164 c 0,48,49
 1018 164 1018 164 1061 203 c 128,-1,50
 1104 242 1104 242 1116 297 c 1,51,-1
 1294 297 l 1,52,53
 1288 228 1288 228 1260 171 c 0,54,55
 1233 115 1233 115 1186 70 c 0,56,57
 1140 26 1140 26 1082 2 c 0,58,59
 1021 -23 1021 -23 961 -23 c 0,60,61
 902 -23 902 -23 840 1 c 0,62,63
 779 25 779 25 713 92 c 1,64,-1
 705 102 l 1,65,66
 642 39 642 39 572 7 c 0,67,68
 506 -23 506 -23 434 -23 c 0,69,70
 360 -23 360 -23 292 8 c 0,71,72
 226 38 226 38 176 91 c 256,73,74
 126 144 126 144 98 214 c 0,75,76
 70 283 70 283 70 365 c 0,0,1
246 365 m 0,77,78
 246 322 246 322 260 288 c 0,79,80
 276 249 276 249 300 224 c 0,81,82
 327 195 327 195 359 180 c 0,83,84
 392 164 392 164 434 164 c 0,85,86
 475 164 475 164 508 180 c 0,87,88
 542 196 542 196 568 224 c 0,89,90
 594 251 594 251 609 288 c 0,91,92
 625 326 625 326 625 365 c 0,93,94
 625 402 625 402 609 442 c 0,95,96
 594 479 594 479 568 507 c 0,97,98
 541 536 541 536 508 550 c 0,99,100
 473 565 473 565 434 565 c 0,101,102
 394 565 394 565 359 550 c 0,103,104
 328 536 328 536 300 507 c 0,105,106
 276 481 276 481 260 442 c 0,107,108
 246 407 246 407 246 365 c 0,77,78
801 762 m 1,109,-1
 1180 762 l 1,110,-1
 1180 846 l 2,111,112
 1180 882 1180 882 1164 922 c 0,113,114
 1150 958 1150 958 1123 986 c 0,115,116
 1097 1014 1097 1014 1063 1030 c 0,117,118
 1027 1047 1027 1047 989 1047 c 0,119,120
 950 1047 950 1047 914 1030 c 0,121,122
 882 1015 882 1015 855 986 c 0,123,124
 830 960 830 960 815 922 c 0,125,126
 801 887 801 887 801 846 c 2,127,-1
 801 762 l 1,109,-1
EndSplineSet
EndChar

StartChar: ccedilla
Encoding: 231 231 168
Width: 829
GlyphClass: 2
Flags: W
LayerCount: 2
Fore
SplineSet
84 344 m 2,0,-1
 84 879 l 2,1,2
 84 952 84 952 111 1017 c 0,3,4
 138 1083 138 1083 182 1129 c 0,5,6
 228 1178 228 1178 289 1205 c 0,7,8
 353 1233 353 1233 420 1233 c 0,9,10
 481 1233 481 1233 542 1208 c 0,11,12
 600 1184 600 1184 645 1142 c 128,-1,13
 690 1100 690 1100 719 1042 c 128,-1,14
 748 984 748 984 754 918 c 1,15,-1
 575 918 l 1,16,17
 563 974 563 974 520 1011 c 0,18,19
 476 1049 476 1049 420 1049 c 0,20,21
 354 1049 354 1049 306 998 c 0,22,23
 260 949 260 949 260 879 c 2,24,-1
 260 344 l 2,25,26
 260 275 260 275 307 226 c 0,27,28
 354 178 354 178 420 178 c 0,29,30
 477 178 477 178 520 215 c 128,-1,31
 563 252 563 252 575 307 c 1,32,-1
 754 307 l 1,33,34
 742 185 742 185 656 97 c 0,35,36
 572 11 572 11 436 -10 c 1,37,-1
 436 -276 l 1,38,-1
 369 -276 l 1,39,-1
 408 -12 l 1,40,41
 332 0 332 0 273 33 c 128,-1,42
 214 66 214 66 171 113 c 0,43,44
 128 161 128 161 106 219 c 0,45,46
 84 278 84 278 84 344 c 2,0,-1
EndSplineSet
EndChar

StartChar: egrave
Encoding: 232 232 169
Width: 874
GlyphClass: 2
Flags: W
LayerCount: 2
Fore
SplineSet
72 334 m 2,0,-1
 72 846 l 2,1,2
 72 927 72 927 100 996 c 128,-1,3
 128 1065 128 1065 179 1119 c 0,4,5
 228 1171 228 1171 296 1202 c 128,-1,6
 364 1233 364 1233 438 1233 c 0,7,8
 513 1233 513 1233 581 1202 c 0,9,10
 645 1173 645 1173 696 1119 c 0,11,12
 746 1066 746 1066 774 996 c 0,13,14
 803 924 803 924 803 846 c 2,15,-1
 803 575 l 1,16,-1
 248 575 l 1,17,-1
 248 334 l 2,18,19
 248 264 248 264 295 214 c 128,-1,20
 342 164 342 164 410 164 c 0,21,22
 467 164 467 164 509 203 c 128,-1,23
 551 242 551 242 563 297 c 1,24,-1
 741 297 l 1,25,26
 735 228 735 228 707 171 c 0,27,28
 680 115 680 115 633 70 c 0,29,30
 588 26 588 26 530 2 c 0,31,32
 471 -23 471 -23 410 -23 c 0,33,34
 339 -23 339 -23 276 6 c 0,35,36
 216 34 216 34 170 83 c 0,37,38
 125 131 125 131 98 196 c 0,39,40
 72 258 72 258 72 334 c 2,0,-1
248 762 m 1,41,-1
 627 762 l 1,42,-1
 627 846 l 2,43,44
 627 882 627 882 611 922 c 0,45,46
 597 958 597 958 570 986 c 0,47,48
 543 1015 543 1015 511 1030 c 0,49,50
 475 1047 475 1047 438 1047 c 128,-1,51
 401 1047 401 1047 365 1030 c 0,52,53
 330 1013 330 1013 304 986 c 0,54,55
 277 958 277 958 263 922 c 0,56,57
 248 884 248 884 248 846 c 2,58,-1
 248 762 l 1,41,-1
307 1530 m 1,59,-1
 410 1632 l 1,60,-1
 606 1436 l 1,61,-1
 535 1364 l 1,62,-1
 307 1530 l 1,59,-1
EndSplineSet
EndChar

StartChar: eacute
Encoding: 233 233 170
Width: 874
GlyphClass: 2
Flags: W
LayerCount: 2
Fore
SplineSet
72 334 m 2,0,-1
 72 846 l 2,1,2
 72 927 72 927 100 996 c 128,-1,3
 128 1065 128 1065 179 1119 c 0,4,5
 228 1171 228 1171 296 1202 c 128,-1,6
 364 1233 364 1233 438 1233 c 0,7,8
 513 1233 513 1233 581 1202 c 0,9,10
 645 1173 645 1173 696 1119 c 0,11,12
 746 1066 746 1066 774 996 c 0,13,14
 803 924 803 924 803 846 c 2,15,-1
 803 575 l 1,16,-1
 248 575 l 1,17,-1
 248 334 l 2,18,19
 248 264 248 264 295 214 c 128,-1,20
 342 164 342 164 410 164 c 0,21,22
 467 164 467 164 509 203 c 128,-1,23
 551 242 551 242 563 297 c 1,24,-1
 741 297 l 1,25,26
 735 228 735 228 707 171 c 0,27,28
 680 115 680 115 633 70 c 0,29,30
 588 26 588 26 530 2 c 0,31,32
 471 -23 471 -23 410 -23 c 0,33,34
 339 -23 339 -23 276 6 c 0,35,36
 216 34 216 34 170 83 c 0,37,38
 125 131 125 131 98 196 c 0,39,40
 72 258 72 258 72 334 c 2,0,-1
248 762 m 1,41,-1
 627 762 l 1,42,-1
 627 846 l 2,43,44
 627 882 627 882 611 922 c 0,45,46
 597 958 597 958 570 986 c 0,47,48
 543 1015 543 1015 511 1030 c 0,49,50
 475 1047 475 1047 438 1047 c 128,-1,51
 401 1047 401 1047 365 1030 c 0,52,53
 330 1013 330 1013 304 986 c 0,54,55
 277 958 277 958 263 922 c 0,56,57
 248 884 248 884 248 846 c 2,58,-1
 248 762 l 1,41,-1
305 1427 m 1,59,-1
 502 1624 l 1,60,-1
 604 1522 l 1,61,-1
 377 1356 l 1,62,-1
 305 1427 l 1,59,-1
EndSplineSet
EndChar

StartChar: ecircumflex
Encoding: 234 234 171
Width: 874
GlyphClass: 2
Flags: W
LayerCount: 2
Fore
SplineSet
72 334 m 2,0,-1
 72 846 l 2,1,2
 72 927 72 927 100 996 c 128,-1,3
 128 1065 128 1065 179 1119 c 0,4,5
 228 1171 228 1171 296 1202 c 128,-1,6
 364 1233 364 1233 438 1233 c 0,7,8
 513 1233 513 1233 581 1202 c 0,9,10
 645 1173 645 1173 696 1119 c 0,11,12
 746 1066 746 1066 774 996 c 0,13,14
 803 924 803 924 803 846 c 2,15,-1
 803 575 l 1,16,-1
 248 575 l 1,17,-1
 248 334 l 2,18,19
 248 264 248 264 295 214 c 128,-1,20
 342 164 342 164 410 164 c 0,21,22
 467 164 467 164 509 203 c 128,-1,23
 551 242 551 242 563 297 c 1,24,-1
 741 297 l 1,25,26
 735 228 735 228 707 171 c 0,27,28
 680 115 680 115 633 70 c 0,29,30
 588 26 588 26 530 2 c 0,31,32
 471 -23 471 -23 410 -23 c 0,33,34
 339 -23 339 -23 276 6 c 0,35,36
 216 34 216 34 170 83 c 0,37,38
 125 131 125 131 98 196 c 0,39,40
 72 258 72 258 72 334 c 2,0,-1
201 1493 m 1,41,-1
 449 1741 l 1,42,-1
 696 1493 l 1,43,-1
 635 1432 l 1,44,-1
 449 1616 l 1,45,-1
 262 1432 l 1,46,-1
 201 1493 l 1,41,-1
248 762 m 1,47,-1
 627 762 l 1,48,-1
 627 846 l 2,49,50
 627 882 627 882 611 922 c 0,51,52
 597 958 597 958 570 986 c 0,53,54
 543 1015 543 1015 511 1030 c 0,55,56
 475 1047 475 1047 438 1047 c 128,-1,57
 401 1047 401 1047 365 1030 c 0,58,59
 330 1013 330 1013 304 986 c 0,60,61
 277 958 277 958 263 922 c 0,62,63
 248 884 248 884 248 846 c 2,64,-1
 248 762 l 1,47,-1
EndSplineSet
EndChar

StartChar: edieresis
Encoding: 235 235 172
Width: 874
GlyphClass: 2
Flags: W
LayerCount: 2
Fore
SplineSet
72 334 m 2,0,-1
 72 846 l 2,1,2
 72 927 72 927 100 996 c 128,-1,3
 128 1065 128 1065 179 1119 c 0,4,5
 228 1171 228 1171 296 1202 c 128,-1,6
 364 1233 364 1233 438 1233 c 0,7,8
 513 1233 513 1233 581 1202 c 0,9,10
 645 1173 645 1173 696 1119 c 0,11,12
 746 1066 746 1066 774 996 c 0,13,14
 803 924 803 924 803 846 c 2,15,-1
 803 575 l 1,16,-1
 248 575 l 1,17,-1
 248 334 l 2,18,19
 248 264 248 264 295 214 c 128,-1,20
 342 164 342 164 410 164 c 0,21,22
 467 164 467 164 509 203 c 128,-1,23
 551 242 551 242 563 297 c 1,24,-1
 741 297 l 1,25,26
 735 228 735 228 707 171 c 0,27,28
 680 115 680 115 633 70 c 0,29,30
 588 26 588 26 530 2 c 0,31,32
 471 -23 471 -23 410 -23 c 0,33,34
 339 -23 339 -23 276 6 c 0,35,36
 216 34 216 34 170 83 c 0,37,38
 125 131 125 131 98 196 c 0,39,40
 72 258 72 258 72 334 c 2,0,-1
221 1470 m 1,41,-1
 221 1616 l 1,42,-1
 367 1616 l 1,43,-1
 367 1470 l 1,44,-1
 221 1470 l 1,41,-1
248 762 m 1,45,-1
 627 762 l 1,46,-1
 627 846 l 2,47,48
 627 882 627 882 611 922 c 0,49,50
 597 958 597 958 570 986 c 0,51,52
 543 1015 543 1015 511 1030 c 0,53,54
 475 1047 475 1047 438 1047 c 128,-1,55
 401 1047 401 1047 365 1030 c 0,56,57
 330 1013 330 1013 304 986 c 0,58,59
 277 958 277 958 263 922 c 0,60,61
 248 884 248 884 248 846 c 2,62,-1
 248 762 l 1,45,-1
512 1470 m 1,63,-1
 512 1616 l 1,64,-1
 657 1616 l 1,65,-1
 657 1470 l 1,66,-1
 512 1470 l 1,63,-1
EndSplineSet
EndChar

StartChar: igrave
Encoding: 236 236 173
Width: 430
GlyphClass: 2
Flags: W
LayerCount: 2
Fore
SplineSet
53 1542 m 1,0,-1
 156 1645 l 1,1,-1
 352 1448 l 1,2,-1
 281 1376 l 1,3,-1
 53 1542 l 1,0,-1
127 0 m 1,4,-1
 127 1210 l 1,5,-1
 303 1210 l 1,6,-1
 303 0 l 1,7,-1
 127 0 l 1,4,-1
EndSplineSet
EndChar

StartChar: iacute
Encoding: 237 237 174
Width: 430
GlyphClass: 2
Flags: W
LayerCount: 2
Fore
SplineSet
82 1419 m 1,0,-1
 279 1616 l 1,1,-1
 381 1513 l 1,2,-1
 154 1348 l 1,3,-1
 82 1419 l 1,0,-1
133 0 m 1,4,-1
 133 1210 l 1,5,-1
 309 1210 l 1,6,-1
 309 0 l 1,7,-1
 133 0 l 1,4,-1
EndSplineSet
EndChar

StartChar: icircumflex
Encoding: 238 238 175
Width: 430
GlyphClass: 2
Flags: W
LayerCount: 2
Fore
SplineSet
-35 1489 m 1,0,-1
 213 1737 l 1,1,-1
 461 1489 l 1,2,-1
 399 1427 l 1,3,-1
 217 1612 l 1,4,-1
 27 1427 l 1,5,-1
 -35 1489 l 1,0,-1
125 0 m 1,6,-1
 125 1210 l 1,7,-1
 301 1210 l 1,8,-1
 301 0 l 1,9,-1
 125 0 l 1,6,-1
EndSplineSet
EndChar

StartChar: idieresis
Encoding: 239 239 176
Width: 430
GlyphClass: 2
Flags: W
LayerCount: 2
Fore
SplineSet
0 1466 m 1,0,-1
 0 1612 l 1,1,-1
 145 1612 l 1,2,-1
 145 1466 l 1,3,-1
 0 1466 l 1,0,-1
133 0 m 1,4,-1
 133 1210 l 1,5,-1
 309 1210 l 1,6,-1
 309 0 l 1,7,-1
 133 0 l 1,4,-1
291 1466 m 1,8,-1
 309 1612 l 1,9,-1
 436 1612 l 1,10,-1
 436 1466 l 1,11,-1
 291 1466 l 1,8,-1
EndSplineSet
EndChar

StartChar: eth
Encoding: 240 240 177
Width: 380
GlyphClass: 2
Flags: W
LayerCount: 2
Fore
SplineSet
92 334 m 2,0,-1
 92 688 l 2,1,2
 92 855 92 855 162 946 c 0,3,4
 231 1036 231 1036 379 1036 c 0,5,6
 426 1036 426 1036 475 973 c 1,7,-1
 510 1010 l 1,8,9
 488 1099 488 1099 464 1160 c 0,10,11
 439 1223 439 1223 393 1286 c 1,12,-1
 242 1212 l 1,13,-1
 215 1251 l 1,14,-1
 365 1325 l 1,15,16
 326 1358 326 1358 288 1385 c 0,17,18
 256 1407 256 1407 219 1425 c 1,19,-1
 332 1487 l 1,20,21
 371 1472 371 1472 412 1446 c 0,22,23
 445 1425 445 1425 489 1384 c 1,24,-1
 625 1450 l 1,25,-1
 651 1409 l 1,26,-1
 522 1348 l 1,27,28
 611 1224 611 1224 638 1094 c 0,29,30
 666 959 666 959 666 840 c 2,31,-1
 666 334 l 2,32,33
 666 169 666 169 595 78 c 0,34,35
 524 -12 524 -12 379 -12 c 0,36,37
 231 -12 231 -12 162 78 c 0,38,39
 92 169 92 169 92 334 c 2,0,-1
250 301 m 2,40,41
 250 232 250 232 285 191 c 0,42,43
 318 152 318 152 379 152 c 0,44,45
 439 152 439 152 472 191 c 0,46,47
 506 231 506 231 506 301 c 2,48,-1
 508 723 l 2,49,50
 508 792 508 792 473 833 c 0,51,52
 440 872 440 872 379 872 c 128,-1,53
 318 872 318 872 285 833 c 0,54,55
 250 792 250 792 250 723 c 2,56,-1
 250 301 l 2,40,41
EndSplineSet
EndChar

StartChar: ntilde
Encoding: 241 241 178
Width: 829
GlyphClass: 2
Flags: W
LayerCount: 2
Fore
SplineSet
76 1372 m 1,0,1
 98 1480 98 1480 136 1537 c 0,2,3
 177 1597 177 1597 252 1597 c 0,4,5
 265 1597 265 1597 291 1589 c 128,-1,6
 317 1581 317 1581 347 1568 c 2,7,-1
 414 1539 l 2,8,9
 460 1519 460 1519 483 1511 c 2,10,-1
 517 1499 l 2,11,12
 535 1493 535 1493 547 1493 c 0,13,14
 597 1493 597 1493 624 1527 c 0,15,16
 652 1563 652 1563 659 1610 c 1,17,-1
 711 1610 l 1,18,19
 690 1504 690 1504 650 1445 c 0,20,21
 609 1384 609 1384 535 1384 c 0,22,23
 517 1384 517 1384 477 1401 c 2,24,-1
 394 1437 l 2,25,26
 350 1456 350 1456 307 1473 c 0,27,28
 265 1489 265 1489 240 1489 c 0,29,30
 190 1489 190 1489 163 1455 c 0,31,32
 134 1418 134 1418 127 1372 c 1,33,-1
 76 1372 l 1,0,1
78 0 m 1,34,-1
 78 1210 l 1,35,-1
 254 1210 l 1,36,-1
 254 1171 l 1,37,38
 321 1196 321 1196 351 1203 c 0,39,40
 383 1210 383 1210 416 1210 c 0,41,42
 486 1210 486 1210 546 1183 c 0,43,44
 605 1156 605 1156 651 1106 c 0,45,46
 696 1056 696 1056 723 992 c 128,-1,47
 750 928 750 928 750 854 c 2,48,-1
 750 0 l 1,49,-1
 575 0 l 1,50,-1
 575 854 l 2,51,52
 575 925 575 925 528 975 c 0,53,54
 482 1024 482 1024 416 1024 c 0,55,56
 347 1024 347 1024 301 975 c 0,57,58
 254 925 254 925 254 854 c 2,59,-1
 254 0 l 1,60,-1
 78 0 l 1,34,-1
EndSplineSet
EndChar

StartChar: ograve
Encoding: 242 242 179
Width: 829
GlyphClass: 2
Flags: W
LayerCount: 2
Fore
SplineSet
78 334 m 2,0,-1
 78 877 l 2,1,2
 78 953 78 953 104 1015 c 0,3,4
 131 1079 131 1079 177 1128 c 0,5,6
 224 1178 224 1178 285 1205 c 0,7,8
 349 1233 349 1233 416 1233 c 0,9,10
 484 1233 484 1233 546 1205 c 0,11,12
 605 1178 605 1178 651 1128 c 128,-1,13
 697 1078 697 1078 723 1015 c 0,14,15
 750 950 750 950 750 877 c 2,16,-1
 750 334 l 2,17,18
 750 260 750 260 723 196 c 0,19,20
 696 131 696 131 651 83 c 0,21,22
 605 34 605 34 546 6 c 0,23,24
 485 -23 485 -23 416 -23 c 0,25,26
 348 -23 348 -23 285 6 c 0,27,28
 224 34 224 34 177 83 c 0,29,30
 132 130 132 130 104 196 c 0,31,32
 78 258 78 258 78 334 c 2,0,-1
254 334 m 2,33,34
 254 264 254 264 301 214 c 128,-1,35
 348 164 348 164 416 164 c 0,36,37
 482 164 482 164 529 214 c 0,38,39
 575 263 575 263 575 334 c 2,40,-1
 575 877 l 2,41,42
 575 947 575 947 528 997 c 128,-1,43
 481 1047 481 1047 416 1047 c 0,44,45
 348 1047 348 1047 301 997 c 128,-1,46
 254 947 254 947 254 877 c 2,47,-1
 254 334 l 2,33,34
305 1536 m 1,48,-1
 408 1638 l 1,49,-1
 604 1442 l 1,50,-1
 532 1370 l 1,51,-1
 305 1536 l 1,48,-1
EndSplineSet
EndChar

StartChar: oacute
Encoding: 243 243 180
Width: 829
GlyphClass: 2
Flags: W
LayerCount: 2
Fore
SplineSet
78 334 m 2,0,-1
 78 877 l 2,1,2
 78 953 78 953 104 1015 c 0,3,4
 131 1079 131 1079 177 1128 c 0,5,6
 224 1178 224 1178 285 1205 c 0,7,8
 349 1233 349 1233 416 1233 c 0,9,10
 484 1233 484 1233 546 1205 c 0,11,12
 605 1178 605 1178 651 1128 c 128,-1,13
 697 1078 697 1078 723 1015 c 0,14,15
 750 950 750 950 750 877 c 2,16,-1
 750 334 l 2,17,18
 750 260 750 260 723 196 c 0,19,20
 696 131 696 131 651 83 c 0,21,22
 605 34 605 34 546 6 c 0,23,24
 485 -23 485 -23 416 -23 c 0,25,26
 348 -23 348 -23 285 6 c 0,27,28
 224 34 224 34 177 83 c 0,29,30
 132 130 132 130 104 196 c 0,31,32
 78 258 78 258 78 334 c 2,0,-1
254 334 m 2,33,34
 254 264 254 264 301 214 c 128,-1,35
 348 164 348 164 416 164 c 0,36,37
 482 164 482 164 529 214 c 0,38,39
 575 263 575 263 575 334 c 2,40,-1
 575 877 l 2,41,42
 575 947 575 947 528 997 c 128,-1,43
 481 1047 481 1047 416 1047 c 0,44,45
 348 1047 348 1047 301 997 c 128,-1,46
 254 947 254 947 254 877 c 2,47,-1
 254 334 l 2,33,34
283 1427 m 1,48,-1
 479 1624 l 1,49,-1
 582 1522 l 1,50,-1
 354 1356 l 1,51,-1
 283 1427 l 1,48,-1
EndSplineSet
EndChar

StartChar: ocircumflex
Encoding: 244 244 181
Width: 829
GlyphClass: 2
Flags: W
LayerCount: 2
Fore
SplineSet
78 334 m 2,0,-1
 78 877 l 2,1,2
 78 953 78 953 104 1015 c 0,3,4
 131 1079 131 1079 177 1128 c 0,5,6
 224 1178 224 1178 285 1205 c 0,7,8
 349 1233 349 1233 416 1233 c 0,9,10
 484 1233 484 1233 546 1205 c 0,11,12
 605 1178 605 1178 651 1128 c 128,-1,13
 697 1078 697 1078 723 1015 c 0,14,15
 750 950 750 950 750 877 c 2,16,-1
 750 334 l 2,17,18
 750 260 750 260 723 196 c 0,19,20
 696 131 696 131 651 83 c 0,21,22
 605 34 605 34 546 6 c 0,23,24
 485 -23 485 -23 416 -23 c 0,25,26
 348 -23 348 -23 285 6 c 0,27,28
 224 34 224 34 177 83 c 0,29,30
 132 130 132 130 104 196 c 0,31,32
 78 258 78 258 78 334 c 2,0,-1
168 1487 m 1,33,-1
 416 1735 l 1,34,-1
 664 1487 l 1,35,-1
 602 1425 l 1,36,-1
 416 1610 l 1,37,-1
 229 1425 l 1,38,-1
 168 1487 l 1,33,-1
254 334 m 2,39,40
 254 264 254 264 301 214 c 128,-1,41
 348 164 348 164 416 164 c 0,42,43
 482 164 482 164 529 214 c 0,44,45
 575 263 575 263 575 334 c 2,46,-1
 575 877 l 2,47,48
 575 947 575 947 528 997 c 128,-1,49
 481 1047 481 1047 416 1047 c 0,50,51
 348 1047 348 1047 301 997 c 128,-1,52
 254 947 254 947 254 877 c 2,53,-1
 254 334 l 2,39,40
EndSplineSet
EndChar

StartChar: otilde
Encoding: 245 245 182
Width: 829
GlyphClass: 2
Flags: W
LayerCount: 2
Fore
SplineSet
78 334 m 2,0,-1
 78 877 l 2,1,2
 78 953 78 953 104 1015 c 0,3,4
 131 1079 131 1079 177 1128 c 0,5,6
 224 1178 224 1178 285 1205 c 0,7,8
 349 1233 349 1233 416 1233 c 0,9,10
 484 1233 484 1233 546 1205 c 0,11,12
 605 1178 605 1178 651 1128 c 128,-1,13
 697 1078 697 1078 723 1015 c 0,14,15
 750 950 750 950 750 877 c 2,16,-1
 750 334 l 2,17,18
 750 260 750 260 723 196 c 0,19,20
 696 131 696 131 651 83 c 0,21,22
 605 34 605 34 546 6 c 0,23,24
 485 -23 485 -23 416 -23 c 0,25,26
 348 -23 348 -23 285 6 c 0,27,28
 224 34 224 34 177 83 c 0,29,30
 132 130 132 130 104 196 c 0,31,32
 78 258 78 258 78 334 c 2,0,-1
80 1366 m 1,33,34
 102 1474 102 1474 140 1531 c 0,35,36
 180 1591 180 1591 256 1591 c 0,37,38
 269 1591 269 1591 295 1583 c 128,-1,39
 321 1575 321 1575 351 1562 c 2,40,-1
 418 1533 l 2,41,42
 464 1513 464 1513 487 1505 c 2,43,-1
 521 1493 l 2,44,45
 539 1487 539 1487 551 1487 c 0,46,47
 601 1487 601 1487 628 1521 c 0,48,49
 657 1558 657 1558 664 1604 c 1,50,-1
 715 1604 l 1,51,52
 694 1498 694 1498 654 1439 c 0,53,54
 613 1378 613 1378 539 1378 c 0,55,56
 521 1378 521 1378 481 1395 c 2,57,-1
 398 1431 l 2,58,59
 369 1444 369 1444 311 1466 c 0,60,61
 266 1483 266 1483 244 1483 c 0,62,63
 194 1483 194 1483 167 1449 c 0,64,65
 138 1412 138 1412 131 1366 c 1,66,-1
 80 1366 l 1,33,34
254 334 m 2,67,68
 254 264 254 264 301 214 c 128,-1,69
 348 164 348 164 416 164 c 0,70,71
 482 164 482 164 529 214 c 0,72,73
 575 263 575 263 575 334 c 2,74,-1
 575 877 l 2,75,76
 575 947 575 947 528 997 c 128,-1,77
 481 1047 481 1047 416 1047 c 0,78,79
 348 1047 348 1047 301 997 c 128,-1,80
 254 947 254 947 254 877 c 2,81,-1
 254 334 l 2,67,68
EndSplineSet
EndChar

StartChar: odieresis
Encoding: 246 246 183
Width: 829
GlyphClass: 2
Flags: W
LayerCount: 2
Fore
SplineSet
78 334 m 2,0,-1
 78 877 l 2,1,2
 78 953 78 953 104 1015 c 0,3,4
 131 1079 131 1079 177 1128 c 0,5,6
 224 1178 224 1178 285 1205 c 0,7,8
 349 1233 349 1233 416 1233 c 0,9,10
 484 1233 484 1233 546 1205 c 0,11,12
 605 1178 605 1178 651 1128 c 128,-1,13
 697 1078 697 1078 723 1015 c 0,14,15
 750 950 750 950 750 877 c 2,16,-1
 750 334 l 2,17,18
 750 260 750 260 723 196 c 0,19,20
 696 131 696 131 651 83 c 0,21,22
 605 34 605 34 546 6 c 0,23,24
 485 -23 485 -23 416 -23 c 0,25,26
 348 -23 348 -23 285 6 c 0,27,28
 224 34 224 34 177 83 c 0,29,30
 132 130 132 130 104 196 c 0,31,32
 78 258 78 258 78 334 c 2,0,-1
199 1473 m 1,33,-1
 199 1618 l 1,34,-1
 344 1618 l 1,35,-1
 344 1473 l 1,36,-1
 199 1473 l 1,33,-1
254 334 m 2,37,38
 254 264 254 264 301 214 c 128,-1,39
 348 164 348 164 416 164 c 0,40,41
 482 164 482 164 529 214 c 0,42,43
 575 263 575 263 575 334 c 2,44,-1
 575 877 l 2,45,46
 575 947 575 947 528 997 c 128,-1,47
 481 1047 481 1047 416 1047 c 0,48,49
 348 1047 348 1047 301 997 c 128,-1,50
 254 947 254 947 254 877 c 2,51,-1
 254 334 l 2,37,38
489 1473 m 1,52,-1
 489 1618 l 1,53,-1
 635 1618 l 1,54,-1
 635 1473 l 1,55,-1
 489 1473 l 1,52,-1
EndSplineSet
EndChar

StartChar: divide
Encoding: 247 247 184
Width: 1228
GlyphClass: 2
Flags: W
LayerCount: 2
Fore
SplineSet
121 459 m 1,0,-1
 121 578 l 1,1,-1
 1108 578 l 1,2,-1
 1108 459 l 1,3,-1
 121 459 l 1,0,-1
508 74 m 128,-1,5
 508 121 508 121 540 153 c 0,6,7
 571 184 571 184 614 184 c 0,8,9
 658 184 658 184 689 153 c 0,10,11
 721 121 721 121 721 74 c 128,-1,12
 721 27 721 27 689 -5 c 128,-1,13
 657 -37 657 -37 614 -37 c 0,14,15
 572 -37 572 -37 540 -5 c 128,-1,4
 508 27 508 27 508 74 c 128,-1,5
508 963 m 0,16,17
 508 1009 508 1009 540 1041 c 128,-1,18
 572 1073 572 1073 614 1073 c 0,19,20
 657 1073 657 1073 689 1041 c 128,-1,21
 721 1009 721 1009 721 963 c 0,22,23
 721 916 721 916 689 884 c 128,-1,24
 657 852 657 852 614 852 c 0,25,26
 572 852 572 852 540 884 c 128,-1,27
 508 916 508 916 508 963 c 0,16,17
EndSplineSet
EndChar

StartChar: oslash
Encoding: 248 248 185
Width: 757
GlyphClass: 2
Flags: W
LayerCount: 2
Fore
SplineSet
43 -41 m 1,0,-1
 137 127 l 1,1,2
 115 175 115 175 103 221 c 0,3,4
 92 262 92 262 92 315 c 2,5,-1
 92 723 l 2,6,7
 92 871 92 871 168 959 c 0,8,9
 246 1049 246 1049 379 1049 c 0,10,11
 440 1049 440 1049 495 1024 c 0,12,13
 546 1001 546 1001 600 942 c 1,14,-1
 688 1096 l 1,15,-1
 715 1079 l 1,16,-1
 621 911 l 1,17,18
 640 869 640 869 654 817 c 0,19,20
 666 772 666 772 666 723 c 2,21,-1
 666 315 l 2,22,23
 666 167 666 167 590 79 c 0,24,25
 513 -10 513 -10 379 -10 c 0,26,27
 316 -10 316 -10 263 14 c 0,28,29
 212 37 212 37 158 96 c 1,30,-1
 70 -57 l 1,31,-1
 43 -41 l 1,0,-1
250 397 m 1,32,-1
 295 397 l 1,33,-1
 502 768 l 1,34,35
 479 883 479 883 379 883 c 0,36,37
 319 883 319 883 285 843 c 0,38,39
 250 802 250 802 250 733 c 2,40,-1
 250 397 l 1,32,-1
256 270 m 1,41,42
 278 156 278 156 379 156 c 0,43,44
 439 156 439 156 473 196 c 0,45,46
 508 237 508 237 508 305 c 2,47,-1
 508 641 l 1,48,-1
 463 641 l 1,49,-1
 256 270 l 1,41,42
EndSplineSet
EndChar

StartChar: ugrave
Encoding: 249 249 186
Width: 829
GlyphClass: 2
Flags: W
LayerCount: 2
Fore
SplineSet
78 358 m 2,0,-1
 78 1210 l 1,1,-1
 254 1210 l 1,2,-1
 254 358 l 2,3,4
 254 287 254 287 301 237 c 0,5,6
 349 186 349 186 416 186 c 0,7,8
 447 186 447 186 477 200 c 128,-1,9
 507 214 507 214 527 237 c 0,10,11
 550 263 550 263 561 292 c 0,12,13
 573 324 573 324 573 358 c 2,14,-1
 573 1210 l 1,15,-1
 750 1210 l 1,16,-1
 750 0 l 1,17,-1
 573 0 l 1,18,-1
 573 35 l 1,19,20
 514 15 514 15 478 7 c 0,21,22
 446 0 446 0 416 0 c 0,23,24
 349 0 349 0 285 28 c 0,25,26
 223 55 223 55 177 104 c 128,-1,27
 131 153 131 153 104 219 c 0,28,29
 78 283 78 283 78 358 c 2,0,-1
276 1516 m 1,30,-1
 379 1618 l 1,31,-1
 575 1421 l 1,32,-1
 504 1350 l 1,33,-1
 276 1516 l 1,30,-1
EndSplineSet
EndChar

StartChar: uacute
Encoding: 250 250 187
Width: 829
GlyphClass: 2
Flags: W
LayerCount: 2
Fore
SplineSet
78 358 m 2,0,-1
 78 1210 l 1,1,-1
 254 1210 l 1,2,-1
 254 358 l 2,3,4
 254 287 254 287 301 237 c 0,5,6
 349 186 349 186 416 186 c 0,7,8
 447 186 447 186 477 200 c 128,-1,9
 507 214 507 214 527 237 c 0,10,11
 550 263 550 263 561 292 c 0,12,13
 573 324 573 324 573 358 c 2,14,-1
 573 1210 l 1,15,-1
 750 1210 l 1,16,-1
 750 0 l 1,17,-1
 573 0 l 1,18,-1
 573 35 l 1,19,20
 514 15 514 15 478 7 c 0,21,22
 446 0 446 0 416 0 c 0,23,24
 349 0 349 0 285 28 c 0,25,26
 223 55 223 55 177 104 c 128,-1,27
 131 153 131 153 104 219 c 0,28,29
 78 283 78 283 78 358 c 2,0,-1
283 1427 m 1,30,-1
 479 1624 l 1,31,-1
 582 1522 l 1,32,-1
 354 1356 l 1,33,-1
 283 1427 l 1,30,-1
EndSplineSet
EndChar

StartChar: ucircumflex
Encoding: 251 251 188
Width: 829
GlyphClass: 2
Flags: W
LayerCount: 2
Fore
SplineSet
78 358 m 2,0,-1
 78 1210 l 1,1,-1
 254 1210 l 1,2,-1
 254 358 l 2,3,4
 254 287 254 287 301 237 c 0,5,6
 349 186 349 186 416 186 c 0,7,8
 447 186 447 186 477 200 c 128,-1,9
 507 214 507 214 527 237 c 0,10,11
 550 263 550 263 561 292 c 0,12,13
 573 324 573 324 573 358 c 2,14,-1
 573 1210 l 1,15,-1
 750 1210 l 1,16,-1
 750 0 l 1,17,-1
 573 0 l 1,18,-1
 573 35 l 1,19,20
 514 15 514 15 478 7 c 0,21,22
 446 0 446 0 416 0 c 0,23,24
 349 0 349 0 285 28 c 0,25,26
 223 55 223 55 177 104 c 128,-1,27
 131 153 131 153 104 219 c 0,28,29
 78 283 78 283 78 358 c 2,0,-1
172 1487 m 1,30,-1
 420 1735 l 1,31,-1
 668 1487 l 1,32,-1
 606 1425 l 1,33,-1
 420 1610 l 1,34,-1
 233 1425 l 1,35,-1
 172 1487 l 1,30,-1
EndSplineSet
EndChar

StartChar: udieresis
Encoding: 252 252 189
Width: 829
GlyphClass: 2
Flags: W
LayerCount: 2
Fore
SplineSet
78 358 m 2,0,-1
 78 1210 l 1,1,-1
 254 1210 l 1,2,-1
 254 358 l 2,3,4
 254 287 254 287 301 237 c 0,5,6
 349 186 349 186 416 186 c 0,7,8
 447 186 447 186 477 200 c 128,-1,9
 507 214 507 214 527 237 c 0,10,11
 550 263 550 263 561 292 c 0,12,13
 573 324 573 324 573 358 c 2,14,-1
 573 1210 l 1,15,-1
 750 1210 l 1,16,-1
 750 0 l 1,17,-1
 573 0 l 1,18,-1
 573 35 l 1,19,20
 514 15 514 15 478 7 c 0,21,22
 446 0 446 0 416 0 c 0,23,24
 349 0 349 0 285 28 c 0,25,26
 223 55 223 55 177 104 c 128,-1,27
 131 153 131 153 104 219 c 0,28,29
 78 283 78 283 78 358 c 2,0,-1
199 1473 m 1,30,-1
 199 1618 l 1,31,-1
 344 1618 l 1,32,-1
 344 1473 l 1,33,-1
 199 1473 l 1,30,-1
489 1473 m 1,34,-1
 489 1618 l 1,35,-1
 635 1618 l 1,36,-1
 635 1473 l 1,37,-1
 489 1473 l 1,34,-1
EndSplineSet
EndChar

StartChar: yacute
Encoding: 253 253 190
Width: 305
GlyphClass: 2
Flags: W
LayerCount: 2
Fore
SplineSet
78 371 m 2,0,-1
 78 1210 l 1,1,-1
 254 1210 l 1,2,-1
 254 371 l 2,3,4
 254 300 254 300 301 251 c 0,5,6
 348 203 348 203 416 203 c 0,7,8
 480 203 480 203 527 251 c 0,9,10
 573 298 573 298 573 371 c 2,11,-1
 573 1210 l 1,12,-1
 750 1210 l 1,13,-1
 750 -20 l 2,14,15
 750 -93 750 -93 723 -157 c 128,-1,16
 696 -221 696 -221 651 -269 c 0,17,18
 604 -319 604 -319 546 -345 c 0,19,20
 484 -373 484 -373 416 -373 c 0,21,22
 359 -373 359 -373 302 -351 c 0,23,24
 247 -330 247 -330 203 -293 c 1,25,-1
 330 -162 l 1,26,27
 368 -188 368 -188 416 -188 c 0,28,29
 480 -188 480 -188 527 -138 c 0,30,31
 573 -89 573 -89 573 -20 c 2,32,-1
 573 53 l 1,33,34
 513 31 513 31 478 25 c 0,35,36
 438 18 438 18 416 18 c 0,37,38
 349 18 349 18 285 46 c 0,39,40
 226 72 226 72 177 121 c 0,41,42
 131 167 131 167 104 232 c 0,43,44
 78 294 78 294 78 371 c 2,0,-1
584 1427 m 1,45,-1
 780 1624 l 1,46,-1
 883 1522 l 1,47,-1
 655 1356 l 1,48,-1
 584 1427 l 1,45,-1
EndSplineSet
EndChar

StartChar: thorn
Encoding: 254 254 191
Width: 380
GlyphClass: 2
Flags: W
LayerCount: 2
Fore
SplineSet
111 -420 m 1,0,-1
 111 1458 l 1,1,-1
 268 1458 l 1,2,-1
 268 887 l 1,3,4
 323 948 323 948 334 961 c 2,5,-1
 359 991 l 2,6,7
 366 998 366 998 370 1000 c 0,8,9
 371 1000 371 1000 389 1012 c 0,10,11
 427 1038 427 1038 494 1038 c 0,12,13
 541 1038 541 1038 577 1026 c 128,-1,14
 613 1014 613 1014 637 981 c 0,15,16
 663 946 663 946 674 889 c 0,17,18
 686 829 686 829 686 735 c 2,19,-1
 686 328 l 2,20,21
 686 282 686 282 684 228 c 0,22,23
 683 195 683 195 679 161 c 0,24,25
 676 134 676 134 670 116 c 0,26,27
 668 110 668 110 655 84 c 0,28,29
 634 48 634 48 597 24 c 0,30,31
 561 0 561 0 492 0 c 0,32,33
 439 0 439 0 393 26 c 0,34,35
 348 52 348 52 313 109 c 1,36,-1
 270 109 l 1,37,-1
 270 -420 l 1,38,-1
 111 -420 l 1,0,-1
268 303 m 2,39,40
 268 243 268 243 305 203 c 0,41,42
 343 162 343 162 399 162 c 0,43,44
 440 162 440 162 463 175 c 128,-1,45
 486 188 486 188 502 210 c 0,46,47
 516 230 516 230 521 258 c 0,48,49
 526 288 526 288 526 313 c 2,50,-1
 528 705 l 2,51,52
 528 772 528 772 500 824 c 0,53,54
 471 877 471 877 399 877 c 0,55,56
 338 877 338 877 303 830 c 128,-1,57
 268 783 268 783 268 719 c 2,58,-1
 268 303 l 2,39,40
EndSplineSet
EndChar

StartChar: ydieresis
Encoding: 255 255 192
Width: 829
GlyphClass: 2
Flags: W
LayerCount: 2
Fore
SplineSet
78 371 m 2,0,-1
 78 1210 l 1,1,-1
 254 1210 l 1,2,-1
 254 371 l 2,3,4
 254 300 254 300 301 251 c 0,5,6
 348 203 348 203 416 203 c 0,7,8
 480 203 480 203 527 251 c 0,9,10
 573 298 573 298 573 371 c 2,11,-1
 573 1210 l 1,12,-1
 750 1210 l 1,13,-1
 750 -20 l 2,14,15
 750 -93 750 -93 723 -157 c 128,-1,16
 696 -221 696 -221 651 -269 c 0,17,18
 604 -319 604 -319 546 -345 c 0,19,20
 484 -373 484 -373 416 -373 c 0,21,22
 359 -373 359 -373 302 -351 c 0,23,24
 247 -330 247 -330 203 -293 c 1,25,-1
 330 -162 l 1,26,27
 368 -188 368 -188 416 -188 c 0,28,29
 480 -188 480 -188 527 -138 c 0,30,31
 573 -89 573 -89 573 -20 c 2,32,-1
 573 53 l 1,33,34
 513 31 513 31 478 25 c 0,35,36
 438 18 438 18 416 18 c 0,37,38
 349 18 349 18 285 46 c 0,39,40
 226 72 226 72 177 121 c 0,41,42
 131 167 131 167 104 232 c 0,43,44
 78 294 78 294 78 371 c 2,0,-1
199 1462 m 1,45,-1
 199 1608 l 1,46,-1
 344 1608 l 1,47,-1
 344 1462 l 1,48,-1
 199 1462 l 1,45,-1
489 1462 m 1,49,-1
 489 1608 l 1,50,-1
 635 1608 l 1,51,-1
 635 1462 l 1,52,-1
 489 1462 l 1,49,-1
EndSplineSet
EndChar

StartChar: OE
Encoding: 338 338 193
Width: 1249
GlyphClass: 2
Flags: W
LayerCount: 2
Fore
SplineSet
123 319 m 2,0,-1
 123 1139 l 2,1,2
 123 1209 123 1209 142 1267 c 128,-1,3
 161 1325 161 1325 200 1372 c 0,4,5
 237 1416 237 1416 291 1444 c 0,6,7
 342 1470 342 1470 412 1470 c 0,8,9
 471 1470 471 1470 510 1446 c 0,10,11
 547 1423 547 1423 571 1382 c 1,12,-1
 614 1382 l 1,13,-1
 614 1458 l 1,14,-1
 1188 1458 l 1,15,-1
 1188 1307 l 1,16,-1
 772 1307 l 1,17,-1
 772 811 l 1,18,-1
 1135 811 l 1,19,-1
 1135 659 l 1,20,-1
 772 659 l 1,21,-1
 772 164 l 1,22,-1
 1188 164 l 1,23,-1
 1188 0 l 1,24,-1
 616 0 l 1,25,-1
 616 72 l 1,26,-1
 573 72 l 1,27,28
 544 32 544 32 501 10 c 128,-1,29
 458 -12 458 -12 412 -12 c 0,30,31
 342 -12 342 -12 291 14 c 0,32,33
 237 42 237 42 200 86 c 0,34,35
 161 133 161 133 142 191 c 128,-1,36
 123 249 123 249 123 319 c 2,0,-1
281 309 m 2,37,38
 281 273 281 273 293 240 c 128,-1,39
 305 207 305 207 327 182 c 128,-1,40
 349 157 349 157 379 142 c 128,-1,41
 409 127 409 127 449 127 c 0,42,43
 486 127 486 127 517 142 c 128,-1,44
 548 157 548 157 570 182 c 128,-1,45
 592 207 592 207 604 240 c 128,-1,46
 616 273 616 273 616 309 c 2,47,-1
 616 1149 l 2,48,49
 616 1186 616 1186 604 1219 c 0,50,51
 593 1250 593 1250 570 1276 c 0,52,53
 548 1301 548 1301 517 1316 c 0,54,55
 485 1331 485 1331 449 1331 c 0,56,57
 409 1331 409 1331 379 1316 c 128,-1,58
 349 1301 349 1301 327 1276 c 0,59,60
 304 1250 304 1250 293 1219 c 0,61,62
 281 1186 281 1186 281 1149 c 2,63,-1
 281 309 l 2,37,38
EndSplineSet
EndChar

StartChar: oe
Encoding: 339 339 194
Width: 1589
GlyphClass: 2
Flags: W
LayerCount: 2
Fore
SplineSet
180 334 m 2,0,-1
 180 877 l 2,1,2
 180 950 180 950 207 1015 c 0,3,4
 234 1079 234 1079 280 1128 c 0,5,6
 328 1179 328 1179 387 1205 c 0,7,8
 451 1233 451 1233 518 1233 c 0,9,10
 584 1233 584 1233 648 1204 c 0,11,12
 711 1176 711 1176 772 1110 c 1,13,14
 840 1175 840 1175 907 1204 c 128,-1,15
 974 1233 974 1233 1042 1233 c 0,16,17
 1117 1233 1117 1233 1185 1202 c 128,-1,18
 1253 1171 1253 1171 1302 1119 c 0,19,20
 1352 1066 1352 1066 1380 996 c 0,21,22
 1409 924 1409 924 1409 846 c 2,23,-1
 1409 575 l 1,24,-1
 852 575 l 1,25,-1
 852 334 l 2,26,27
 852 297 852 297 865 268 c 128,-1,28
 878 239 878 239 900 214 c 0,29,30
 920 191 920 191 951 177 c 0,31,32
 980 164 980 164 1014 164 c 0,33,34
 1072 164 1072 164 1116 202 c 0,35,36
 1159 239 1159 239 1171 297 c 1,37,-1
 1350 297 l 1,38,39
 1344 230 1344 230 1314 171 c 0,40,41
 1285 114 1285 114 1239 70 c 0,42,43
 1193 25 1193 25 1136 2 c 0,44,45
 1075 -23 1075 -23 1014 -23 c 0,46,47
 951 -23 951 -23 889 5 c 0,48,49
 829 32 829 32 766 92 c 1,50,51
 704 33 704 33 642 5 c 128,-1,52
 580 -23 580 -23 518 -23 c 0,53,54
 450 -23 450 -23 387 6 c 0,55,56
 328 33 328 33 280 83 c 0,57,58
 235 130 235 130 207 196 c 0,59,60
 180 260 180 260 180 334 c 2,0,-1
356 334 m 2,61,62
 356 264 356 264 403 214 c 128,-1,63
 450 164 450 164 518 164 c 0,64,65
 553 164 553 164 580 178 c 0,66,67
 610 194 610 194 630 215 c 0,68,69
 652 239 652 239 664 268 c 0,70,71
 676 298 676 298 676 334 c 2,72,-1
 678 877 l 2,73,74
 678 947 678 947 632 996 c 0,75,76
 584 1047 584 1047 518 1047 c 0,77,78
 450 1047 450 1047 403 997 c 128,-1,79
 356 947 356 947 356 877 c 2,80,-1
 356 334 l 2,61,62
852 762 m 1,81,-1
 1233 762 l 1,82,-1
 1233 846 l 2,83,84
 1233 887 1233 887 1219 922 c 0,85,86
 1204 960 1204 960 1178 986 c 0,87,88
 1150 1014 1150 1014 1116 1030 c 0,89,90
 1080 1047 1080 1047 1042 1047 c 0,91,92
 1005 1047 1005 1047 969 1030 c 0,93,94
 934 1013 934 1013 908 986 c 0,95,96
 881 958 881 958 867 922 c 0,97,98
 852 884 852 884 852 846 c 2,99,-1
 852 762 l 1,81,-1
EndSplineSet
EndChar

StartChar: Ydieresis
Encoding: 376 376 195
Width: 634
GlyphClass: 2
Flags: W
LayerCount: 2
Fore
SplineSet
98 1458 m 1,0,-1
 270 1458 l 1,1,-1
 414 1014 l 1,2,-1
 555 1458 l 1,3,-1
 729 1458 l 1,4,-1
 496 729 l 1,5,-1
 496 0 l 1,6,-1
 330 0 l 1,7,-1
 330 729 l 1,8,-1
 98 1458 l 1,0,-1
199 1612 m 1,9,-1
 199 1757 l 1,10,-1
 344 1757 l 1,11,-1
 344 1612 l 1,12,-1
 199 1612 l 1,9,-1
489 1612 m 1,13,-1
 489 1757 l 1,14,-1
 635 1757 l 1,15,-1
 635 1612 l 1,16,-1
 489 1612 l 1,13,-1
EndSplineSet
EndChar

StartChar: circumflex
Encoding: 710 710 196
Width: 684
GlyphClass: 2
Flags: W
LayerCount: 2
Fore
SplineSet
385 1487 m 1,0,-1
 633 1735 l 1,1,-1
 881 1487 l 1,2,-1
 819 1425 l 1,3,-1
 633 1610 l 1,4,-1
 446 1425 l 1,5,-1
 385 1487 l 1,0,-1
EndSplineSet
EndChar

StartChar: tilde
Encoding: 732 732 197
Width: 380
GlyphClass: 2
Flags: W
LayerCount: 2
Fore
SplineSet
-127 1194 m 1,0,1
 -105 1302 -105 1302 -67 1359 c 0,2,3
 -27 1419 -27 1419 49 1419 c 0,4,5
 62 1419 62 1419 88 1411 c 128,-1,6
 114 1403 114 1403 144 1390 c 2,7,-1
 211 1361 l 2,8,9
 253 1343 253 1343 281 1333 c 2,10,-1
 314 1321 l 2,11,12
 332 1315 332 1315 344 1315 c 0,13,14
 394 1315 394 1315 421 1349 c 0,15,16
 450 1386 450 1386 457 1432 c 1,17,-1
 508 1432 l 1,18,19
 487 1326 487 1326 447 1267 c 0,20,21
 406 1206 406 1206 332 1206 c 0,22,23
 314 1206 314 1206 274 1223 c 2,24,-1
 191 1258 l 2,25,26
 148 1278 148 1278 104 1294 c 0,27,28
 59 1311 59 1311 37 1311 c 0,29,30
 -13 1311 -13 1311 -40 1277 c 0,31,32
 -69 1240 -69 1240 -76 1194 c 1,33,-1
 -127 1194 l 1,0,1
EndSplineSet
EndChar

StartChar: uni2010
Encoding: 8208 8208 209
Width: 827
GlyphClass: 2
Flags: W
LayerCount: 2
Fore
SplineSet
96 559 m 1,0,-1
 96 725 l 1,1,-1
 729 725 l 1,2,-1
 729 559 l 1,3,-1
 96 559 l 1,0,-1
EndSplineSet
EndChar

StartChar: uni2011
Encoding: 8209 8209 210
Width: 827
GlyphClass: 2
Flags: W
LayerCount: 2
Fore
SplineSet
96 559 m 1,0,-1
 96 725 l 1,1,-1
 729 725 l 1,2,-1
 729 559 l 1,3,-1
 96 559 l 1,0,-1
EndSplineSet
EndChar

StartChar: figuredash
Encoding: 8210 8210 211
Width: 827
GlyphClass: 2
Flags: W
LayerCount: 2
Fore
SplineSet
96 559 m 1,0,-1
 96 725 l 1,1,-1
 729 725 l 1,2,-1
 729 559 l 1,3,-1
 96 559 l 1,0,-1
EndSplineSet
EndChar

StartChar: endash
Encoding: 8211 8211 212
Width: 1024
GlyphClass: 2
Flags: W
LayerCount: 2
Fore
SplineSet
25 469 m 1,0,-1
 25 666 l 1,1,-1
 999 666 l 1,2,-1
 999 469 l 1,3,-1
 25 469 l 1,0,-1
EndSplineSet
EndChar

StartChar: emdash
Encoding: 8212 8212 213
Width: 1998
GlyphClass: 2
Flags: W
LayerCount: 2
Fore
SplineSet
0 469 m 1,0,-1
 0 666 l 1,1,-1
 1999 666 l 1,2,-1
 1999 469 l 1,3,-1
 0 469 l 1,0,-1
EndSplineSet
EndChar

StartChar: quoteleft
Encoding: 8216 8216 214
Width: 380
GlyphClass: 2
Flags: W
LayerCount: 2
Fore
SplineSet
111 1098 m 1,0,-1
 111 1298 l 1,1,-1
 270 1430 l 1,2,-1
 270 1098 l 1,3,-1
 111 1098 l 1,0,-1
EndSplineSet
EndChar

StartChar: quoteright
Encoding: 8217 8217 215
Width: 380
GlyphClass: 2
Flags: W
LayerCount: 2
Fore
SplineSet
111 1126 m 1,0,-1
 111 1458 l 1,1,-1
 270 1458 l 1,2,-1
 270 1257 l 1,3,-1
 111 1126 l 1,0,-1
EndSplineSet
EndChar

StartChar: quotesinglbase
Encoding: 8218 8218 216
Width: 380
GlyphClass: 2
Flags: W
LayerCount: 2
Fore
SplineSet
111 -123 m 1,0,-1
 111 209 l 1,1,-1
 270 209 l 1,2,-1
 270 8 l 1,3,-1
 111 -123 l 1,0,-1
EndSplineSet
EndChar

StartChar: quotedblleft
Encoding: 8220 8220 217
Width: 569
GlyphClass: 2
Flags: W
LayerCount: 2
Fore
SplineSet
61 1098 m 1,0,-1
 61 1298 l 1,1,-1
 219 1430 l 1,2,-1
 219 1098 l 1,3,-1
 61 1098 l 1,0,-1
348 1098 m 1,4,-1
 348 1298 l 1,5,-1
 508 1430 l 1,6,-1
 508 1098 l 1,7,-1
 348 1098 l 1,4,-1
EndSplineSet
EndChar

StartChar: quotedblright
Encoding: 8221 8221 218
Width: 569
GlyphClass: 2
Flags: W
LayerCount: 2
Fore
SplineSet
61 1126 m 1,0,-1
 61 1458 l 1,1,-1
 219 1458 l 1,2,-1
 219 1257 l 1,3,-1
 61 1126 l 1,0,-1
348 1126 m 1,4,-1
 348 1458 l 1,5,-1
 508 1458 l 1,6,-1
 508 1257 l 1,7,-1
 348 1126 l 1,4,-1
EndSplineSet
EndChar

StartChar: quotedblbase
Encoding: 8222 8222 219
Width: 569
GlyphClass: 2
Flags: W
LayerCount: 2
Fore
SplineSet
61 -123 m 1,0,-1
 61 209 l 1,1,-1
 219 209 l 1,2,-1
 219 8 l 1,3,-1
 61 -123 l 1,0,-1
348 -123 m 1,4,-1
 348 209 l 1,5,-1
 508 209 l 1,6,-1
 508 8 l 1,7,-1
 348 -123 l 1,4,-1
EndSplineSet
EndChar

StartChar: bullet
Encoding: 8226 8226 220
Width: 1024
GlyphClass: 2
Flags: W
LayerCount: 2
Fore
SplineSet
172 729 m 128,-1,1
 172 805 172 805 199 871 c 0,2,3
 228 941 228 941 271 987 c 0,4,5
 318 1036 318 1036 379 1065 c 0,6,7
 442 1094 442 1094 512 1094 c 0,8,9
 580 1094 580 1094 644 1065 c 0,10,11
 706 1037 706 1037 753 987 c 0,12,13
 796 941 796 941 825 871 c 0,14,15
 852 805 852 805 852 729 c 128,-1,16
 852 653 852 653 825 587 c 0,17,18
 796 517 796 517 753 471 c 0,19,20
 706 421 706 421 644 393 c 128,-1,21
 582 365 582 365 512 365 c 0,22,23
 439 365 439 365 379 393 c 0,24,25
 318 422 318 422 271 471 c 0,26,27
 228 517 228 517 199 587 c 0,28,0
 172 653 172 653 172 729 c 128,-1,1
EndSplineSet
EndChar

StartChar: ellipsis
Encoding: 8230 8230 221
Width: 2048
GlyphClass: 2
Flags: W
LayerCount: 2
Fore
SplineSet
262 0 m 1,0,-1
 262 209 l 1,1,-1
 420 209 l 1,2,-1
 420 0 l 1,3,-1
 262 0 l 1,0,-1
944 0 m 1,4,-1
 944 209 l 1,5,-1
 1102 209 l 1,6,-1
 1102 0 l 1,7,-1
 944 0 l 1,4,-1
1626 0 m 1,8,-1
 1626 209 l 1,9,-1
 1786 209 l 1,10,-1
 1786 0 l 1,11,-1
 1626 0 l 1,8,-1
EndSplineSet
EndChar

StartChar: guilsinglleft
Encoding: 8249 8249 223
Width: 493
GlyphClass: 2
Flags: W
LayerCount: 2
Fore
SplineSet
57 567 m 1,0,-1
 412 942 l 1,1,-1
 412 797 l 1,2,-1
 193 567 l 1,3,-1
 412 338 l 1,4,-1
 412 193 l 1,5,-1
 57 567 l 1,0,-1
EndSplineSet
EndChar

StartChar: guilsinglright
Encoding: 8250 8250 224
Width: 493
GlyphClass: 2
Flags: W
LayerCount: 2
Fore
SplineSet
82 193 m 1,0,-1
 82 338 l 1,1,-1
 301 567 l 1,2,-1
 82 797 l 1,3,-1
 82 942 l 1,4,-1
 436 567 l 1,5,-1
 82 193 l 1,0,-1
EndSplineSet
EndChar

StartChar: Euro
Encoding: 8364 8364 226
Width: 892
GlyphClass: 2
Flags: W
LayerCount: 2
Fore
SplineSet
76 509 m 1,0,-1
 76 680 l 1,1,-1
 196 680 l 1,2,-1
 196 823 l 1,3,-1
 76 823 l 1,4,-1
 76 995 l 1,5,-1
 196 995 l 1,6,-1
 196 1173 l 2,7,8
 196 1238 196 1238 220 1295 c 0,9,10
 246 1355 246 1355 287 1397 c 0,11,12
 328 1438 328 1438 387 1464 c 0,13,14
 442 1489 442 1489 509 1489 c 0,15,16
 575 1489 575 1489 631 1464 c 0,17,18
 687 1441 687 1441 731 1397 c 0,19,20
 774 1355 774 1355 799 1295 c 0,21,22
 823 1237 823 1237 823 1173 c 1,23,-1
 658 1173 l 1,24,25
 658 1235 658 1235 613 1279 c 0,26,27
 569 1324 569 1324 509 1324 c 0,28,29
 448 1324 448 1324 403 1279 c 0,30,31
 361 1237 361 1237 361 1173 c 2,32,-1
 361 995 l 1,33,-1
 675 995 l 1,34,-1
 675 823 l 1,35,-1
 361 823 l 1,36,-1
 361 680 l 1,37,-1
 675 680 l 1,38,-1
 675 509 l 1,39,-1
 361 509 l 1,40,-1
 361 293 l 2,41,42
 361 228 361 228 403 187 c 0,43,44
 448 144 448 144 509 144 c 0,45,46
 571 145 571 145 613 187 c 0,47,48
 658 233 658 233 658 293 c 1,49,-1
 823 293 l 1,50,51
 823 229 823 229 799 171 c 0,52,53
 776 115 776 115 731 71 c 0,54,55
 688 28 688 28 631 4 c 0,56,57
 576 -20 576 -20 509 -21 c 0,58,59
 446 -21 446 -21 387 4 c 0,60,61
 331 28 331 28 287 71 c 0,62,63
 229 130 229 130 220 171 c 0,64,65
 196 292 196 292 196 293 c 2,66,-1
 196 509 l 1,67,-1
 76 509 l 1,0,-1
EndSplineSet
EndChar

StartChar: trademark
Encoding: 8482 8482 227
Width: 2027
GlyphClass: 2
Flags: W
LayerCount: 2
Fore
SplineSet
104 1368 m 1,0,-1
 104 1458 l 1,1,-1
 721 1458 l 1,2,-1
 721 1368 l 1,3,-1
 463 1368 l 1,4,-1
 463 614 l 1,5,-1
 367 614 l 1,6,-1
 367 1368 l 1,7,-1
 104 1368 l 1,0,-1
874 614 m 1,8,-1
 874 1458 l 1,9,-1
 1065 1458 l 1,10,-1
 1323 754 l 1,11,-1
 1581 1458 l 1,12,-1
 1772 1458 l 1,13,-1
 1772 614 l 1,14,-1
 1675 614 l 1,15,-1
 1675 1368 l 1,16,-1
 1626 1368 l 1,17,-1
 1346 614 l 1,18,-1
 1298 614 l 1,19,-1
 1020 1368 l 1,20,-1
 973 1368 l 1,21,-1
 973 614 l 1,22,-1
 874 614 l 1,8,-1
EndSplineSet
EndChar

StartChar: uni25FC
Encoding: 9724 9724 228
Width: 1210
GlyphClass: 2
Flags: W
LayerCount: 2
Fore
SplineSet
0 0 m 1,0,-1
 0 1210 l 1,1,-1
 1210 1210 l 1,2,-1
 1210 0 l 1,3,-1
 0 0 l 1,0,-1
EndSplineSet
EndChar

StartChar: uniFB01
Encoding: 64257 64257 229
Width: 1036
GlyphClass: 2
Flags: W
LayerCount: 2
Fore
SplineSet
180 0 m 1,0,-1
 180 1126 l 2,1,2
 180 1200 180 1200 207 1265 c 128,-1,3
 234 1330 234 1330 280 1377 c 0,4,5
 329 1428 329 1428 387 1453 c 0,6,7
 451 1481 451 1481 518 1481 c 0,8,9
 579 1481 579 1481 640 1456 c 0,10,11
 698 1432 698 1432 743 1390 c 128,-1,12
 788 1348 788 1348 817 1290 c 128,-1,13
 846 1232 846 1232 852 1165 c 1,14,-1
 674 1165 l 1,15,16
 662 1220 662 1220 618 1258 c 128,-1,17
 574 1296 574 1296 518 1296 c 0,18,19
 449 1296 449 1296 403 1247 c 0,20,21
 356 1197 356 1197 356 1126 c 2,22,-1
 356 821 l 1,23,-1
 483 821 l 1,24,-1
 483 637 l 1,25,-1
 358 637 l 1,26,-1
 358 0 l 1,27,-1
 180 0 l 1,0,-1
676 0 m 1,28,-1
 676 821 l 1,29,-1
 854 821 l 1,30,-1
 854 0 l 1,31,-1
 676 0 l 1,28,-1
EndSplineSet
EndChar

StartChar: uniFB02
Encoding: 64258 64258 230
Width: 1036
GlyphClass: 2
Flags: W
LayerCount: 2
Fore
SplineSet
180 0 m 1,0,-1
 180 1126 l 2,1,2
 180 1192 180 1192 203 1255 c 0,3,4
 226 1317 226 1317 266 1365 c 256,5,6
 306 1413 306 1413 362 1443 c 256,7,8
 418 1473 418 1473 483 1479 c 1,9,-1
 483 1292 l 1,10,11
 427 1277 427 1277 392 1233 c 0,12,13
 356 1188 356 1188 356 1126 c 2,14,-1
 356 821 l 1,15,-1
 481 821 l 1,16,-1
 481 637 l 1,17,-1
 358 637 l 1,18,-1
 358 0 l 1,19,-1
 180 0 l 1,0,-1
676 0 m 1,20,-1
 676 1456 l 1,21,-1
 854 1456 l 1,22,-1
 854 0 l 1,23,-1
 676 0 l 1,20,-1
EndSplineSet
EndChar
